M48
;Layer_Color=9474304
;FILE_FORMAT=2:4
INCH,LZ
;TYPE=PLATED
T1F00S00C0.0157
T2F00S00C0.0315
T3F00S00C0.0394
T4F00S00C0.1181
%
T01
X013598Y014447
X016713Y013126
X026086Y014447
X0292Y013126
X038573Y014447
X041688Y013126
X042623Y021297
X041688Y027963
X038573Y029285
X0292Y027963
X026086Y029285
X016713Y027963
X017648Y021297
X030136
X013598Y029285
X017648Y036135
X030136
X042623
T02
X019898Y014623
Y01541
X032386
Y014623
X044873
Y01541
Y016197
Y016985
Y017772
Y01856
Y019347
Y020134
X044989Y022297
X045776
X044201
X043414
X044873Y02946
Y030247
Y031035
X032386
Y030247
Y02946
X032501Y022297
X033289
X031714
X032386Y020134
Y019347
Y01856
Y017772
Y016985
Y016197
X036744Y019531
Y020318
X030926Y022297
X024256Y020318
Y019531
X019898Y019347
Y01856
Y017772
Y016985
Y016197
Y020134
X020014Y022297
X020801
X019226
X018439
X019898Y02946
Y030247
Y031035
X011769Y020318
Y019531
Y034368
Y035155
X019898Y034972
Y034184
Y033397
Y03261
Y031822
X020014Y037135
X020801
X019226
X018439
X024256Y035155
Y034368
X030926Y037135
X031714
X032501
X033289
X032386Y034972
Y034184
Y033397
Y03261
Y031822
X036744Y034368
Y035155
X044873Y034972
Y034184
Y033397
Y03261
Y031822
X044989Y037135
X045776
X044201
X043414
T03
X021946Y011268
X02245Y011308
Y011899
X021946Y011859
Y012449
X02245Y012489
Y01308
X021946Y01304
Y013631
X02245Y013671
X034416Y01367
X03492Y01371
Y014301
X034416Y014261
Y013079
X03492Y013119
Y012529
X034416Y012489
Y011898
X03492Y011938
X03493Y017808
X034426Y017768
Y018359
X03493Y018399
Y018989
X034426Y018949
Y01954
X03493Y01958
Y020171
X034426Y020131
X038573Y022147
X039573
X040573
X041573
X041351Y02429
X041311Y024794
X04072
X04076Y02429
X040169
X040129Y024794
X039539
X039579Y02429
X038988
X038948Y024794
X03493Y027818
X034426Y027778
Y028369
X03493Y028409
Y028999
X034426Y028959
Y02955
X03493Y02959
Y030181
X034426Y030141
X029661Y024794
X029701Y02429
X02911
X02907Y024794
X028479
X028519Y02429
X027929
X027889Y024794
X027298
X027338Y02429
X027086Y022147
X026086
X028086
X029086
X02248Y021001
X021976Y020961
Y02037
X02248Y02041
Y019819
X021976Y019779
Y019189
X02248Y019229
Y018638
X021976Y018598
X021946Y026228
X02245Y026268
Y026859
X021946Y026819
Y027409
X02245Y027449
Y02804
X021946Y028
Y028591
X02245Y028631
X016931Y024794
X016971Y02429
X01638
X01634Y024794
X015749
X015789Y02429
X016598Y022147
X015598
X014598
X013598
X014608Y02429
X014568Y024794
X015159
X015199Y02429
X015598Y036985
X014598
X013598
X016598
X021926Y035981
X02243Y036021
Y03543
X021926Y03539
Y034799
X02243Y034839
Y034249
X021926Y034209
Y033618
X02243Y033658
X026086Y036985
X027086
X028086
X029086
X034396Y036821
X0349Y036861
Y03627
X034396Y03623
Y035639
X0349Y035679
Y035089
X034396Y035049
Y034458
X0349Y034498
X038573Y036985
X039573
X040573
X041573
T04
X020808Y011037
X033296
X045783
Y025875
X036073Y023147
X033296Y025875
X023586Y023147
X020808Y025875
X011098Y023147
Y037985
X023586
X036073
M30
