G04*
G04 #@! TF.GenerationSoftware,Altium Limited,Altium Designer,22.7.1 (60)*
G04*
G04 Layer_Color=32768*
%FSTAX24Y24*%
%MOIN*%
G70*
G04*
G04 #@! TF.SameCoordinates,6CD0EBB0-E617-4DF7-9ACC-651BA77C9F88*
G04*
G04*
G04 #@! TF.FilePolarity,Positive*
G04*
G01*
G75*
%ADD32C,0.0039*%
%ADD56C,0.0020*%
D32*
X037696Y014277D02*
Y014631D01*
X037873Y014454D02*
X037519D01*
X037696Y012895D02*
Y013249D01*
X037873Y013072D02*
X037519D01*
X045166Y021384D02*
X044811D01*
X044989Y021207D02*
Y021561D01*
X044378Y021384D02*
X044024D01*
X044201Y021207D02*
Y021561D01*
X038423Y018643D02*
Y018997D01*
X0386Y01882D02*
X038246D01*
X04291Y012538D02*
X042556D01*
X042733Y01236D02*
Y012715D01*
X042114Y011247D02*
X04172D01*
X041917Y011051D02*
Y011444D01*
X041523Y016751D02*
Y017144D01*
X04172Y016947D02*
X041326D01*
X037323Y016751D02*
Y017144D01*
X03752Y016947D02*
X037126D01*
X039036Y018365D02*
X035611D01*
X039036Y01553D02*
X035611D01*
Y018365D01*
X039036Y01553D02*
Y018365D01*
X036148Y014928D02*
Y015282D01*
X036325Y015105D02*
X03597D01*
X036148Y014218D02*
Y014572D01*
X036325Y014395D02*
X03597D01*
X038423Y019353D02*
Y019708D01*
X0386Y019531D02*
X038246D01*
X041403Y01212D02*
Y012475D01*
X04158Y012298D02*
X041226D01*
X040473Y01072D02*
Y011075D01*
X04065Y010897D02*
X040296D01*
X041963Y01409D02*
Y014445D01*
X04214Y014267D02*
X041786D01*
X041963Y01337D02*
Y013725D01*
X04214Y013547D02*
X041786D01*
X0429Y020691D02*
Y021045D01*
X043077Y020868D02*
X042723D01*
X0429Y019981D02*
Y020335D01*
X043077Y020158D02*
X042723D01*
X0429Y01927D02*
Y019625D01*
X043077Y019447D02*
X042723D01*
X040146Y01287D02*
Y013225D01*
X040323Y013047D02*
X039969D01*
X040133Y013598D02*
Y013952D01*
X04031Y013775D02*
X039956D01*
X040133Y014308D02*
Y014662D01*
X04031Y014485D02*
X039956D01*
X037696Y029114D02*
Y029468D01*
X037873Y029291D02*
X037519D01*
X037696Y027732D02*
Y028087D01*
X037873Y027909D02*
X037519D01*
X045166Y036221D02*
X044811D01*
X044989Y036044D02*
Y036398D01*
X044378Y036221D02*
X044024D01*
X044201Y036044D02*
Y036398D01*
X038423Y033481D02*
Y033835D01*
X0386Y033658D02*
X038246D01*
X04291Y027375D02*
X042556D01*
X042733Y027198D02*
Y027552D01*
X042114Y026085D02*
X04172D01*
X041917Y025888D02*
Y026282D01*
X041523Y031588D02*
Y031982D01*
X04172Y031785D02*
X041326D01*
X037323Y031588D02*
Y031982D01*
X03752Y031785D02*
X037126D01*
X039036Y033202D02*
X035611D01*
X039036Y030368D02*
X035611D01*
Y033202D01*
X039036Y030368D02*
Y033202D01*
X036148Y029765D02*
Y03012D01*
X036325Y029943D02*
X03597D01*
X036148Y029055D02*
Y029409D01*
X036325Y029232D02*
X03597D01*
X038423Y034191D02*
Y034545D01*
X0386Y034368D02*
X038246D01*
X041403Y026958D02*
Y027312D01*
X04158Y027135D02*
X041226D01*
X040473Y025558D02*
Y025912D01*
X04065Y025735D02*
X040296D01*
X041963Y028928D02*
Y029282D01*
X04214Y029105D02*
X041786D01*
X041963Y028208D02*
Y028562D01*
X04214Y028385D02*
X041786D01*
X0429Y035528D02*
Y035883D01*
X043077Y035706D02*
X042723D01*
X0429Y034818D02*
Y035172D01*
X043077Y034995D02*
X042723D01*
X0429Y034108D02*
Y034462D01*
X043077Y034285D02*
X042723D01*
X040146Y027708D02*
Y028062D01*
X040323Y027885D02*
X039969D01*
X040133Y028435D02*
Y028789D01*
X04031Y028612D02*
X039956D01*
X040133Y029145D02*
Y0295D01*
X04031Y029323D02*
X039956D01*
X025209Y014277D02*
Y014631D01*
X025386Y014454D02*
X025031D01*
X025209Y012895D02*
Y013249D01*
X025386Y013072D02*
X025031D01*
X032678Y021384D02*
X032324D01*
X032501Y021207D02*
Y021561D01*
X031891Y021384D02*
X031537D01*
X031714Y021207D02*
Y021561D01*
X025936Y018643D02*
Y018997D01*
X026113Y01882D02*
X025759D01*
X030423Y012538D02*
X030069D01*
X030246Y01236D02*
Y012715D01*
X029627Y011247D02*
X029233D01*
X02943Y011051D02*
Y011444D01*
X029036Y016751D02*
Y017144D01*
X029233Y016947D02*
X028839D01*
X024836Y016751D02*
Y017144D01*
X025033Y016947D02*
X024639D01*
X026548Y018365D02*
X023123D01*
X026548Y01553D02*
X023123D01*
Y018365D01*
X026548Y01553D02*
Y018365D01*
X02366Y014928D02*
Y015282D01*
X023837Y015105D02*
X023483D01*
X02366Y014218D02*
Y014572D01*
X023837Y014395D02*
X023483D01*
X025936Y019353D02*
Y019708D01*
X026113Y019531D02*
X025759D01*
X028916Y01212D02*
Y012475D01*
X029093Y012298D02*
X028739D01*
X027986Y01072D02*
Y011075D01*
X028163Y010897D02*
X027809D01*
X029476Y01409D02*
Y014445D01*
X029653Y014267D02*
X029299D01*
X029476Y01337D02*
Y013725D01*
X029653Y013547D02*
X029299D01*
X030413Y020691D02*
Y021045D01*
X03059Y020868D02*
X030236D01*
X030413Y019981D02*
Y020335D01*
X03059Y020158D02*
X030236D01*
X030413Y01927D02*
Y019625D01*
X03059Y019447D02*
X030236D01*
X027659Y01287D02*
Y013225D01*
X027836Y013047D02*
X027482D01*
X027646Y013598D02*
Y013952D01*
X027823Y013775D02*
X027469D01*
X027646Y014308D02*
Y014662D01*
X027823Y014485D02*
X027469D01*
X025209Y029114D02*
Y029468D01*
X025386Y029291D02*
X025031D01*
X025209Y027732D02*
Y028087D01*
X025386Y027909D02*
X025031D01*
X032678Y036221D02*
X032324D01*
X032501Y036044D02*
Y036398D01*
X031891Y036221D02*
X031537D01*
X031714Y036044D02*
Y036398D01*
X025936Y033481D02*
Y033835D01*
X026113Y033658D02*
X025759D01*
X030423Y027375D02*
X030069D01*
X030246Y027198D02*
Y027552D01*
X029627Y026085D02*
X029233D01*
X02943Y025888D02*
Y026282D01*
X029036Y031588D02*
Y031982D01*
X029233Y031785D02*
X028839D01*
X024836Y031588D02*
Y031982D01*
X025033Y031785D02*
X024639D01*
X026548Y033202D02*
X023123D01*
X026548Y030368D02*
X023123D01*
Y033202D01*
X026548Y030368D02*
Y033202D01*
X02366Y029765D02*
Y03012D01*
X023837Y029943D02*
X023483D01*
X02366Y029055D02*
Y029409D01*
X023837Y029232D02*
X023483D01*
X025936Y034191D02*
Y034545D01*
X026113Y034368D02*
X025759D01*
X028916Y026958D02*
Y027312D01*
X029093Y027135D02*
X028739D01*
X027986Y025558D02*
Y025912D01*
X028163Y025735D02*
X027809D01*
X029476Y028928D02*
Y029282D01*
X029653Y029105D02*
X029299D01*
X029476Y028208D02*
Y028562D01*
X029653Y028385D02*
X029299D01*
X030413Y035528D02*
Y035883D01*
X03059Y035706D02*
X030236D01*
X030413Y034818D02*
Y035172D01*
X03059Y034995D02*
X030236D01*
X030413Y034108D02*
Y034462D01*
X03059Y034285D02*
X030236D01*
X027659Y027708D02*
Y028062D01*
X027836Y027885D02*
X027482D01*
X027646Y028435D02*
Y028789D01*
X027823Y028612D02*
X027469D01*
X027646Y029145D02*
Y0295D01*
X027823Y029323D02*
X027469D01*
X012721Y014277D02*
Y014631D01*
X012898Y014454D02*
X012544D01*
X012721Y012895D02*
Y013249D01*
X012898Y013072D02*
X012544D01*
X020191Y021384D02*
X019837D01*
X020014Y021207D02*
Y021561D01*
X019404Y021384D02*
X019049D01*
X019226Y021207D02*
Y021561D01*
X013448Y018643D02*
Y018997D01*
X013626Y01882D02*
X013271D01*
X017936Y012538D02*
X017581D01*
X017758Y01236D02*
Y012715D01*
X017139Y011247D02*
X016746D01*
X016942Y011051D02*
Y011444D01*
X016548Y016751D02*
Y017144D01*
X016745Y016947D02*
X016351D01*
X012348Y016751D02*
Y017144D01*
X012545Y016947D02*
X012151D01*
X014061Y018365D02*
X010636D01*
X014061Y01553D02*
X010636D01*
Y018365D01*
X014061Y01553D02*
Y018365D01*
X011173Y014928D02*
Y015282D01*
X01135Y015105D02*
X010996D01*
X011173Y014218D02*
Y014572D01*
X01135Y014395D02*
X010996D01*
X013448Y019353D02*
Y019708D01*
X013626Y019531D02*
X013271D01*
X016428Y01212D02*
Y012475D01*
X016606Y012298D02*
X016251D01*
X015498Y01072D02*
Y011075D01*
X015676Y010897D02*
X015321D01*
X016988Y01409D02*
Y014445D01*
X017166Y014267D02*
X016811D01*
X016988Y01337D02*
Y013725D01*
X017166Y013547D02*
X016811D01*
X017926Y020691D02*
Y021045D01*
X018103Y020868D02*
X017748D01*
X017926Y019981D02*
Y020335D01*
X018103Y020158D02*
X017748D01*
X017926Y01927D02*
Y019625D01*
X018103Y019447D02*
X017748D01*
X015171Y01287D02*
Y013225D01*
X015348Y013047D02*
X014994D01*
X015158Y013598D02*
Y013952D01*
X015336Y013775D02*
X014981D01*
X015158Y014308D02*
Y014662D01*
X015336Y014485D02*
X014981D01*
X012721Y029114D02*
Y029468D01*
X012898Y029291D02*
X012544D01*
X012721Y027732D02*
Y028087D01*
X012898Y027909D02*
X012544D01*
X020191Y036221D02*
X019837D01*
X020014Y036044D02*
Y036398D01*
X019404Y036221D02*
X019049D01*
X019226Y036044D02*
Y036398D01*
X013448Y033481D02*
Y033835D01*
X013626Y033658D02*
X013271D01*
X017936Y027375D02*
X017581D01*
X017758Y027198D02*
Y027552D01*
X017139Y026085D02*
X016746D01*
X016942Y025888D02*
Y026282D01*
X016548Y031588D02*
Y031982D01*
X016745Y031785D02*
X016351D01*
X012348Y031588D02*
Y031982D01*
X012545Y031785D02*
X012151D01*
X014061Y033202D02*
X010636D01*
X014061Y030368D02*
X010636D01*
Y033202D01*
X014061Y030368D02*
Y033202D01*
X011173Y029765D02*
Y03012D01*
X01135Y029943D02*
X010996D01*
X011173Y029055D02*
Y029409D01*
X01135Y029232D02*
X010996D01*
X013448Y034191D02*
Y034545D01*
X013626Y034368D02*
X013271D01*
X016428Y026958D02*
Y027312D01*
X016606Y027135D02*
X016251D01*
X015498Y025558D02*
Y025912D01*
X015676Y025735D02*
X015321D01*
X016988Y028928D02*
Y029282D01*
X017166Y029105D02*
X016811D01*
X016988Y028208D02*
Y028562D01*
X017166Y028385D02*
X016811D01*
X017926Y035528D02*
Y035883D01*
X018103Y035706D02*
X017748D01*
X017926Y034818D02*
Y035172D01*
X018103Y034995D02*
X017748D01*
X017926Y034108D02*
Y034462D01*
X018103Y034285D02*
X017748D01*
X015171Y027708D02*
Y028062D01*
X015348Y027885D02*
X014994D01*
X015158Y028435D02*
Y028789D01*
X015336Y028612D02*
X014981D01*
X015158Y029145D02*
Y0295D01*
X015336Y029323D02*
X014981D01*
D56*
X037935Y013763D02*
X037542D01*
X037739Y013566D02*
Y01396D01*
X03829Y013507D02*
X037187D01*
Y014019D01*
X03829D02*
X037187D01*
X03829Y013507D02*
Y014019D01*
X037935Y015145D02*
X037542D01*
X037739Y014948D02*
Y015341D01*
X03829Y014889D02*
X037187D01*
Y0154D01*
X03829D02*
X037187D01*
X03829Y014889D02*
Y0154D01*
X037164Y014158D02*
Y014749D01*
X038227Y014158D02*
X037164D01*
X038227D02*
Y014749D01*
X037164D01*
Y012777D02*
Y013367D01*
X038227Y012777D02*
X037164D01*
X038227D02*
Y013367D01*
X037164D01*
X044792Y022534D02*
X044398D01*
X044595Y022337D02*
Y02273D01*
X042489Y02149D02*
Y023577D01*
X046701Y02149D02*
X042489D01*
X046701D02*
Y023577D01*
X042489D01*
X045284Y020852D02*
X044693D01*
Y021915D01*
X045284D02*
X044693D01*
X045284Y020852D02*
Y021915D01*
X044496Y020852D02*
X043906D01*
Y021915D01*
X044496D02*
X043906D01*
X044496Y020852D02*
Y021915D01*
X045109Y017182D02*
Y017575D01*
X045306Y017379D02*
X044913D01*
X046153Y013697D02*
Y02106D01*
Y013697D02*
X044066D01*
Y02106D01*
X046153D02*
X044066D01*
X038955Y019116D02*
X037892D01*
X038955Y018525D02*
X037892D01*
Y019116D01*
X038955Y018525D02*
Y019116D01*
X043028Y012006D02*
Y013069D01*
X042438Y012006D02*
Y013069D01*
X043028D02*
X042438D01*
X043028Y012006D02*
X042438D01*
X042665Y010637D02*
Y011858D01*
X041169Y010637D02*
Y011858D01*
X042665Y010637D02*
X041169D01*
X042665Y011858D02*
X041169D01*
X04357Y0149D02*
X039476D01*
X04357Y018995D02*
X039476D01*
Y0149D02*
Y018995D01*
X04357Y0149D02*
Y018995D01*
X036508Y019727D02*
Y020121D01*
X036704Y019924D02*
X036311D01*
X037551Y018605D02*
X035464D01*
X037551D02*
Y021243D01*
X035464D01*
Y018605D02*
Y021243D01*
X040073Y022069D02*
Y022462D01*
X04027Y022266D02*
X039876D01*
X042219Y021016D02*
Y023516D01*
X037927D01*
Y021016D02*
Y023516D01*
X042219Y021016D02*
X037927D01*
X036679Y0154D02*
X035616D01*
X036679Y01481D02*
X035616D01*
Y0154D01*
X036679Y01481D02*
Y0154D01*
Y01469D02*
X035616D01*
X036679Y0141D02*
X035616D01*
Y01469D01*
X036679Y0141D02*
Y01469D01*
X038955Y019826D02*
X037892D01*
X038955Y019235D02*
X037892D01*
Y019826D01*
X038955Y019235D02*
Y019826D01*
X041935Y012002D02*
X040872D01*
X041935Y012593D02*
X040872D01*
X041935Y012002D02*
Y012593D01*
X040872Y012002D02*
Y012593D01*
X041005Y010602D02*
X039942D01*
X041005Y011193D02*
X039942D01*
X041005Y010602D02*
Y011193D01*
X039942Y010602D02*
Y011193D01*
X042495Y014563D02*
X041432D01*
X042495Y013972D02*
X041432D01*
Y014563D01*
X042495Y013972D02*
Y014563D01*
Y013843D02*
X041432D01*
X042495Y013252D02*
X041432D01*
Y013843D01*
X042495Y013252D02*
Y013843D01*
X043432Y021163D02*
X042369D01*
X043432Y020573D02*
X042369D01*
Y021163D01*
X043432Y020573D02*
Y021163D01*
Y020453D02*
X042369D01*
X043432Y019862D02*
X042369D01*
Y020453D01*
X043432Y019862D02*
Y020453D01*
Y019743D02*
X042369D01*
X043432Y019152D02*
X042369D01*
Y019743D01*
X043432Y019152D02*
Y019743D01*
X040678Y012752D02*
X039615D01*
X040678Y013343D02*
X039615D01*
X040678Y012752D02*
Y013343D01*
X039615Y012752D02*
Y013343D01*
X040665Y01348D02*
X039602D01*
X040665Y01407D02*
X039602D01*
X040665Y01348D02*
Y01407D01*
X039602Y01348D02*
Y01407D01*
X040665Y01419D02*
X039602D01*
X040665Y01478D02*
X039602D01*
X040665Y01419D02*
Y01478D01*
X039602Y01419D02*
Y01478D01*
X037935Y0286D02*
X037542D01*
X037739Y028403D02*
Y028797D01*
X03829Y028344D02*
X037187D01*
Y028856D01*
X03829D02*
X037187D01*
X03829Y028344D02*
Y028856D01*
X037935Y029982D02*
X037542D01*
X037739Y029785D02*
Y030179D01*
X03829Y029726D02*
X037187D01*
Y030238D01*
X03829D02*
X037187D01*
X03829Y029726D02*
Y030238D01*
X037164Y028996D02*
Y029586D01*
X038227Y028996D02*
X037164D01*
X038227D02*
Y029586D01*
X037164D01*
Y027614D02*
Y028205D01*
X038227Y027614D02*
X037164D01*
X038227D02*
Y028205D01*
X037164D01*
X044792Y037371D02*
X044398D01*
X044595Y037174D02*
Y037568D01*
X042489Y036328D02*
Y038414D01*
X046701Y036328D02*
X042489D01*
X046701D02*
Y038414D01*
X042489D01*
X045284Y03569D02*
X044693D01*
Y036753D01*
X045284D02*
X044693D01*
X045284Y03569D02*
Y036753D01*
X044496Y03569D02*
X043906D01*
Y036753D01*
X044496D02*
X043906D01*
X044496Y03569D02*
Y036753D01*
X045109Y032019D02*
Y032413D01*
X045306Y032216D02*
X044913D01*
X046153Y028535D02*
Y035897D01*
Y028535D02*
X044066D01*
Y035897D01*
X046153D02*
X044066D01*
X038955Y033953D02*
X037892D01*
X038955Y033362D02*
X037892D01*
Y033953D01*
X038955Y033362D02*
Y033953D01*
X043028Y026844D02*
Y027907D01*
X042438Y026844D02*
Y027907D01*
X043028D02*
X042438D01*
X043028Y026844D02*
X042438D01*
X042665Y025475D02*
Y026695D01*
X041169Y025475D02*
Y026695D01*
X042665Y025475D02*
X041169D01*
X042665Y026695D02*
X041169D01*
X04357Y029738D02*
X039476D01*
X04357Y033832D02*
X039476D01*
Y029738D02*
Y033832D01*
X04357Y029738D02*
Y033832D01*
X036508Y034565D02*
Y034959D01*
X036704Y034762D02*
X036311D01*
X037551Y033443D02*
X035464D01*
X037551D02*
Y036081D01*
X035464D01*
Y033443D02*
Y036081D01*
X040073Y036906D02*
Y0373D01*
X04027Y037103D02*
X039876D01*
X042219Y035853D02*
Y038353D01*
X037927D01*
Y035853D02*
Y038353D01*
X042219Y035853D02*
X037927D01*
X036679Y030238D02*
X035616D01*
X036679Y029647D02*
X035616D01*
Y030238D01*
X036679Y029647D02*
Y030238D01*
Y029528D02*
X035616D01*
X036679Y028937D02*
X035616D01*
Y029528D01*
X036679Y028937D02*
Y029528D01*
X038955Y034663D02*
X037892D01*
X038955Y034073D02*
X037892D01*
Y034663D01*
X038955Y034073D02*
Y034663D01*
X041935Y02684D02*
X040872D01*
X041935Y02743D02*
X040872D01*
X041935Y02684D02*
Y02743D01*
X040872Y02684D02*
Y02743D01*
X041005Y02544D02*
X039942D01*
X041005Y02603D02*
X039942D01*
X041005Y02544D02*
Y02603D01*
X039942Y02544D02*
Y02603D01*
X042495Y0294D02*
X041432D01*
X042495Y02881D02*
X041432D01*
Y0294D01*
X042495Y02881D02*
Y0294D01*
Y02868D02*
X041432D01*
X042495Y02809D02*
X041432D01*
Y02868D01*
X042495Y02809D02*
Y02868D01*
X043432Y036001D02*
X042369D01*
X043432Y03541D02*
X042369D01*
Y036001D01*
X043432Y03541D02*
Y036001D01*
Y03529D02*
X042369D01*
X043432Y0347D02*
X042369D01*
Y03529D01*
X043432Y0347D02*
Y03529D01*
Y03458D02*
X042369D01*
X043432Y03399D02*
X042369D01*
Y03458D01*
X043432Y03399D02*
Y03458D01*
X040678Y02759D02*
X039615D01*
X040678Y02818D02*
X039615D01*
X040678Y02759D02*
Y02818D01*
X039615Y02759D02*
Y02818D01*
X040665Y028317D02*
X039602D01*
X040665Y028907D02*
X039602D01*
X040665Y028317D02*
Y028907D01*
X039602Y028317D02*
Y028907D01*
X040665Y029027D02*
X039602D01*
X040665Y029618D02*
X039602D01*
X040665Y029027D02*
Y029618D01*
X039602Y029027D02*
Y029618D01*
X025448Y013763D02*
X025054D01*
X025251Y013566D02*
Y01396D01*
X025802Y013507D02*
X0247D01*
Y014019D01*
X025802D02*
X0247D01*
X025802Y013507D02*
Y014019D01*
X025448Y015145D02*
X025054D01*
X025251Y014948D02*
Y015341D01*
X025802Y014889D02*
X0247D01*
Y0154D01*
X025802D02*
X0247D01*
X025802Y014889D02*
Y0154D01*
X024677Y014158D02*
Y014749D01*
X02574Y014158D02*
X024677D01*
X02574D02*
Y014749D01*
X024677D01*
Y012777D02*
Y013367D01*
X02574Y012777D02*
X024677D01*
X02574D02*
Y013367D01*
X024677D01*
X032304Y022534D02*
X031911D01*
X032108Y022337D02*
Y02273D01*
X030001Y02149D02*
Y023577D01*
X034214Y02149D02*
X030001D01*
X034214D02*
Y023577D01*
X030001D01*
X032796Y020852D02*
X032206D01*
Y021915D01*
X032796D02*
X032206D01*
X032796Y020852D02*
Y021915D01*
X032009Y020852D02*
X031419D01*
Y021915D01*
X032009D02*
X031419D01*
X032009Y020852D02*
Y021915D01*
X032622Y017182D02*
Y017575D01*
X032819Y017379D02*
X032425D01*
X033665Y013697D02*
Y02106D01*
Y013697D02*
X031579D01*
Y02106D01*
X033665D02*
X031579D01*
X026467Y019116D02*
X025404D01*
X026467Y018525D02*
X025404D01*
Y019116D01*
X026467Y018525D02*
Y019116D01*
X030541Y012006D02*
Y013069D01*
X02995Y012006D02*
Y013069D01*
X030541D02*
X02995D01*
X030541Y012006D02*
X02995D01*
X030178Y010637D02*
Y011858D01*
X028682Y010637D02*
Y011858D01*
X030178Y010637D02*
X028682D01*
X030178Y011858D02*
X028682D01*
X031083Y0149D02*
X026988D01*
X031083Y018995D02*
X026988D01*
Y0149D02*
Y018995D01*
X031083Y0149D02*
Y018995D01*
X02402Y019727D02*
Y020121D01*
X024217Y019924D02*
X023823D01*
X025063Y018605D02*
X022977D01*
X025063D02*
Y021243D01*
X022977D01*
Y018605D02*
Y021243D01*
X027586Y022069D02*
Y022462D01*
X027783Y022266D02*
X027389D01*
X029731Y021016D02*
Y023516D01*
X02544D01*
Y021016D02*
Y023516D01*
X029731Y021016D02*
X02544D01*
X024192Y0154D02*
X023129D01*
X024192Y01481D02*
X023129D01*
Y0154D01*
X024192Y01481D02*
Y0154D01*
Y01469D02*
X023129D01*
X024192Y0141D02*
X023129D01*
Y01469D01*
X024192Y0141D02*
Y01469D01*
X026467Y019826D02*
X025404D01*
X026467Y019235D02*
X025404D01*
Y019826D01*
X026467Y019235D02*
Y019826D01*
X029447Y012002D02*
X028384D01*
X029447Y012593D02*
X028384D01*
X029447Y012002D02*
Y012593D01*
X028384Y012002D02*
Y012593D01*
X028517Y010602D02*
X027454D01*
X028517Y011193D02*
X027454D01*
X028517Y010602D02*
Y011193D01*
X027454Y010602D02*
Y011193D01*
X030007Y014563D02*
X028944D01*
X030007Y013972D02*
X028944D01*
Y014563D01*
X030007Y013972D02*
Y014563D01*
Y013843D02*
X028944D01*
X030007Y013252D02*
X028944D01*
Y013843D01*
X030007Y013252D02*
Y013843D01*
X030944Y021163D02*
X029881D01*
X030944Y020573D02*
X029881D01*
Y021163D01*
X030944Y020573D02*
Y021163D01*
Y020453D02*
X029881D01*
X030944Y019862D02*
X029881D01*
Y020453D01*
X030944Y019862D02*
Y020453D01*
Y019743D02*
X029881D01*
X030944Y019152D02*
X029881D01*
Y019743D01*
X030944Y019152D02*
Y019743D01*
X02819Y012752D02*
X027127D01*
X02819Y013343D02*
X027127D01*
X02819Y012752D02*
Y013343D01*
X027127Y012752D02*
Y013343D01*
X028177Y01348D02*
X027114D01*
X028177Y01407D02*
X027114D01*
X028177Y01348D02*
Y01407D01*
X027114Y01348D02*
Y01407D01*
X028177Y01419D02*
X027114D01*
X028177Y01478D02*
X027114D01*
X028177Y01419D02*
Y01478D01*
X027114Y01419D02*
Y01478D01*
X025448Y0286D02*
X025054D01*
X025251Y028403D02*
Y028797D01*
X025802Y028344D02*
X0247D01*
Y028856D01*
X025802D02*
X0247D01*
X025802Y028344D02*
Y028856D01*
X025448Y029982D02*
X025054D01*
X025251Y029785D02*
Y030179D01*
X025802Y029726D02*
X0247D01*
Y030238D01*
X025802D02*
X0247D01*
X025802Y029726D02*
Y030238D01*
X024677Y028996D02*
Y029586D01*
X02574Y028996D02*
X024677D01*
X02574D02*
Y029586D01*
X024677D01*
Y027614D02*
Y028205D01*
X02574Y027614D02*
X024677D01*
X02574D02*
Y028205D01*
X024677D01*
X032304Y037371D02*
X031911D01*
X032108Y037174D02*
Y037568D01*
X030001Y036328D02*
Y038414D01*
X034214Y036328D02*
X030001D01*
X034214D02*
Y038414D01*
X030001D01*
X032796Y03569D02*
X032206D01*
Y036753D01*
X032796D02*
X032206D01*
X032796Y03569D02*
Y036753D01*
X032009Y03569D02*
X031419D01*
Y036753D01*
X032009D02*
X031419D01*
X032009Y03569D02*
Y036753D01*
X032622Y032019D02*
Y032413D01*
X032819Y032216D02*
X032425D01*
X033665Y028535D02*
Y035897D01*
Y028535D02*
X031579D01*
Y035897D01*
X033665D02*
X031579D01*
X026467Y033953D02*
X025404D01*
X026467Y033362D02*
X025404D01*
Y033953D01*
X026467Y033362D02*
Y033953D01*
X030541Y026844D02*
Y027907D01*
X02995Y026844D02*
Y027907D01*
X030541D02*
X02995D01*
X030541Y026844D02*
X02995D01*
X030178Y025475D02*
Y026695D01*
X028682Y025475D02*
Y026695D01*
X030178Y025475D02*
X028682D01*
X030178Y026695D02*
X028682D01*
X031083Y029738D02*
X026988D01*
X031083Y033832D02*
X026988D01*
Y029738D02*
Y033832D01*
X031083Y029738D02*
Y033832D01*
X02402Y034565D02*
Y034959D01*
X024217Y034762D02*
X023823D01*
X025063Y033443D02*
X022977D01*
X025063D02*
Y036081D01*
X022977D01*
Y033443D02*
Y036081D01*
X027586Y036906D02*
Y0373D01*
X027783Y037103D02*
X027389D01*
X029731Y035853D02*
Y038353D01*
X02544D01*
Y035853D02*
Y038353D01*
X029731Y035853D02*
X02544D01*
X024192Y030238D02*
X023129D01*
X024192Y029647D02*
X023129D01*
Y030238D01*
X024192Y029647D02*
Y030238D01*
Y029528D02*
X023129D01*
X024192Y028937D02*
X023129D01*
Y029528D01*
X024192Y028937D02*
Y029528D01*
X026467Y034663D02*
X025404D01*
X026467Y034073D02*
X025404D01*
Y034663D01*
X026467Y034073D02*
Y034663D01*
X029447Y02684D02*
X028384D01*
X029447Y02743D02*
X028384D01*
X029447Y02684D02*
Y02743D01*
X028384Y02684D02*
Y02743D01*
X028517Y02544D02*
X027454D01*
X028517Y02603D02*
X027454D01*
X028517Y02544D02*
Y02603D01*
X027454Y02544D02*
Y02603D01*
X030007Y0294D02*
X028944D01*
X030007Y02881D02*
X028944D01*
Y0294D01*
X030007Y02881D02*
Y0294D01*
Y02868D02*
X028944D01*
X030007Y02809D02*
X028944D01*
Y02868D01*
X030007Y02809D02*
Y02868D01*
X030944Y036001D02*
X029881D01*
X030944Y03541D02*
X029881D01*
Y036001D01*
X030944Y03541D02*
Y036001D01*
Y03529D02*
X029881D01*
X030944Y0347D02*
X029881D01*
Y03529D01*
X030944Y0347D02*
Y03529D01*
Y03458D02*
X029881D01*
X030944Y03399D02*
X029881D01*
Y03458D01*
X030944Y03399D02*
Y03458D01*
X02819Y02759D02*
X027127D01*
X02819Y02818D02*
X027127D01*
X02819Y02759D02*
Y02818D01*
X027127Y02759D02*
Y02818D01*
X028177Y028317D02*
X027114D01*
X028177Y028907D02*
X027114D01*
X028177Y028317D02*
Y028907D01*
X027114Y028317D02*
Y028907D01*
X028177Y029027D02*
X027114D01*
X028177Y029618D02*
X027114D01*
X028177Y029027D02*
Y029618D01*
X027114Y029027D02*
Y029618D01*
X012961Y013763D02*
X012567D01*
X012764Y013566D02*
Y01396D01*
X013315Y013507D02*
X012213D01*
Y014019D01*
X013315D02*
X012213D01*
X013315Y013507D02*
Y014019D01*
X012961Y015145D02*
X012567D01*
X012764Y014948D02*
Y015341D01*
X013315Y014889D02*
X012213D01*
Y0154D01*
X013315D02*
X012213D01*
X013315Y014889D02*
Y0154D01*
X01219Y014158D02*
Y014749D01*
X013253Y014158D02*
X01219D01*
X013253D02*
Y014749D01*
X01219D01*
Y012777D02*
Y013367D01*
X013253Y012777D02*
X01219D01*
X013253D02*
Y013367D01*
X01219D01*
X019817Y022534D02*
X019423D01*
X01962Y022337D02*
Y02273D01*
X017514Y02149D02*
Y023577D01*
X021726Y02149D02*
X017514D01*
X021726D02*
Y023577D01*
X017514D01*
X020309Y020852D02*
X019719D01*
Y021915D01*
X020309D02*
X019719D01*
X020309Y020852D02*
Y021915D01*
X019522Y020852D02*
X018931D01*
Y021915D01*
X019522D02*
X018931D01*
X019522Y020852D02*
Y021915D01*
X020135Y017182D02*
Y017575D01*
X020331Y017379D02*
X019938D01*
X021178Y013697D02*
Y02106D01*
Y013697D02*
X019091D01*
Y02106D01*
X021178D02*
X019091D01*
X01398Y019116D02*
X012917D01*
X01398Y018525D02*
X012917D01*
Y019116D01*
X01398Y018525D02*
Y019116D01*
X018054Y012006D02*
Y013069D01*
X017463Y012006D02*
Y013069D01*
X018054D02*
X017463D01*
X018054Y012006D02*
X017463D01*
X01769Y010637D02*
Y011858D01*
X016194Y010637D02*
Y011858D01*
X01769Y010637D02*
X016194D01*
X01769Y011858D02*
X016194D01*
X018596Y0149D02*
X014501D01*
X018596Y018995D02*
X014501D01*
Y0149D02*
Y018995D01*
X018596Y0149D02*
Y018995D01*
X011533Y019727D02*
Y020121D01*
X01173Y019924D02*
X011336D01*
X012576Y018605D02*
X010489D01*
X012576D02*
Y021243D01*
X010489D01*
Y018605D02*
Y021243D01*
X015098Y022069D02*
Y022462D01*
X015295Y022266D02*
X014901D01*
X017244Y021016D02*
Y023516D01*
X012953D01*
Y021016D02*
Y023516D01*
X017244Y021016D02*
X012953D01*
X011704Y0154D02*
X010641D01*
X011704Y01481D02*
X010641D01*
Y0154D01*
X011704Y01481D02*
Y0154D01*
Y01469D02*
X010641D01*
X011704Y0141D02*
X010641D01*
Y01469D01*
X011704Y0141D02*
Y01469D01*
X01398Y019826D02*
X012917D01*
X01398Y019235D02*
X012917D01*
Y019826D01*
X01398Y019235D02*
Y019826D01*
X01696Y012002D02*
X015897D01*
X01696Y012593D02*
X015897D01*
X01696Y012002D02*
Y012593D01*
X015897Y012002D02*
Y012593D01*
X01603Y010602D02*
X014967D01*
X01603Y011193D02*
X014967D01*
X01603Y010602D02*
Y011193D01*
X014967Y010602D02*
Y011193D01*
X01752Y014563D02*
X016457D01*
X01752Y013972D02*
X016457D01*
Y014563D01*
X01752Y013972D02*
Y014563D01*
Y013843D02*
X016457D01*
X01752Y013252D02*
X016457D01*
Y013843D01*
X01752Y013252D02*
Y013843D01*
X018457Y021163D02*
X017394D01*
X018457Y020573D02*
X017394D01*
Y021163D01*
X018457Y020573D02*
Y021163D01*
Y020453D02*
X017394D01*
X018457Y019862D02*
X017394D01*
Y020453D01*
X018457Y019862D02*
Y020453D01*
Y019743D02*
X017394D01*
X018457Y019152D02*
X017394D01*
Y019743D01*
X018457Y019152D02*
Y019743D01*
X015703Y012752D02*
X01464D01*
X015703Y013343D02*
X01464D01*
X015703Y012752D02*
Y013343D01*
X01464Y012752D02*
Y013343D01*
X01569Y01348D02*
X014627D01*
X01569Y01407D02*
X014627D01*
X01569Y01348D02*
Y01407D01*
X014627Y01348D02*
Y01407D01*
X01569Y01419D02*
X014627D01*
X01569Y01478D02*
X014627D01*
X01569Y01419D02*
Y01478D01*
X014627Y01419D02*
Y01478D01*
X012961Y0286D02*
X012567D01*
X012764Y028403D02*
Y028797D01*
X013315Y028344D02*
X012213D01*
Y028856D01*
X013315D02*
X012213D01*
X013315Y028344D02*
Y028856D01*
X012961Y029982D02*
X012567D01*
X012764Y029785D02*
Y030179D01*
X013315Y029726D02*
X012213D01*
Y030238D01*
X013315D02*
X012213D01*
X013315Y029726D02*
Y030238D01*
X01219Y028996D02*
Y029586D01*
X013253Y028996D02*
X01219D01*
X013253D02*
Y029586D01*
X01219D01*
Y027614D02*
Y028205D01*
X013253Y027614D02*
X01219D01*
X013253D02*
Y028205D01*
X01219D01*
X019817Y037371D02*
X019423D01*
X01962Y037174D02*
Y037568D01*
X017514Y036328D02*
Y038414D01*
X021726Y036328D02*
X017514D01*
X021726D02*
Y038414D01*
X017514D01*
X020309Y03569D02*
X019719D01*
Y036753D01*
X020309D02*
X019719D01*
X020309Y03569D02*
Y036753D01*
X019522Y03569D02*
X018931D01*
Y036753D01*
X019522D02*
X018931D01*
X019522Y03569D02*
Y036753D01*
X020135Y032019D02*
Y032413D01*
X020331Y032216D02*
X019938D01*
X021178Y028535D02*
Y035897D01*
Y028535D02*
X019091D01*
Y035897D01*
X021178D02*
X019091D01*
X01398Y033953D02*
X012917D01*
X01398Y033362D02*
X012917D01*
Y033953D01*
X01398Y033362D02*
Y033953D01*
X018054Y026844D02*
Y027907D01*
X017463Y026844D02*
Y027907D01*
X018054D02*
X017463D01*
X018054Y026844D02*
X017463D01*
X01769Y025475D02*
Y026695D01*
X016194Y025475D02*
Y026695D01*
X01769Y025475D02*
X016194D01*
X01769Y026695D02*
X016194D01*
X018596Y029738D02*
X014501D01*
X018596Y033832D02*
X014501D01*
Y029738D02*
Y033832D01*
X018596Y029738D02*
Y033832D01*
X011533Y034565D02*
Y034959D01*
X01173Y034762D02*
X011336D01*
X012576Y033443D02*
X010489D01*
X012576D02*
Y036081D01*
X010489D01*
Y033443D02*
Y036081D01*
X015098Y036906D02*
Y0373D01*
X015295Y037103D02*
X014901D01*
X017244Y035853D02*
Y038353D01*
X012953D01*
Y035853D02*
Y038353D01*
X017244Y035853D02*
X012953D01*
X011704Y030238D02*
X010641D01*
X011704Y029647D02*
X010641D01*
Y030238D01*
X011704Y029647D02*
Y030238D01*
Y029528D02*
X010641D01*
X011704Y028937D02*
X010641D01*
Y029528D01*
X011704Y028937D02*
Y029528D01*
X01398Y034663D02*
X012917D01*
X01398Y034073D02*
X012917D01*
Y034663D01*
X01398Y034073D02*
Y034663D01*
X01696Y02684D02*
X015897D01*
X01696Y02743D02*
X015897D01*
X01696Y02684D02*
Y02743D01*
X015897Y02684D02*
Y02743D01*
X01603Y02544D02*
X014967D01*
X01603Y02603D02*
X014967D01*
X01603Y02544D02*
Y02603D01*
X014967Y02544D02*
Y02603D01*
X01752Y0294D02*
X016457D01*
X01752Y02881D02*
X016457D01*
Y0294D01*
X01752Y02881D02*
Y0294D01*
Y02868D02*
X016457D01*
X01752Y02809D02*
X016457D01*
Y02868D01*
X01752Y02809D02*
Y02868D01*
X018457Y036001D02*
X017394D01*
X018457Y03541D02*
X017394D01*
Y036001D01*
X018457Y03541D02*
Y036001D01*
Y03529D02*
X017394D01*
X018457Y0347D02*
X017394D01*
Y03529D01*
X018457Y0347D02*
Y03529D01*
Y03458D02*
X017394D01*
X018457Y03399D02*
X017394D01*
Y03458D01*
X018457Y03399D02*
Y03458D01*
X015703Y02759D02*
X01464D01*
X015703Y02818D02*
X01464D01*
X015703Y02759D02*
Y02818D01*
X01464Y02759D02*
Y02818D01*
X01569Y028317D02*
X014627D01*
X01569Y028907D02*
X014627D01*
X01569Y028317D02*
Y028907D01*
X014627Y028317D02*
Y028907D01*
X01569Y029027D02*
X014627D01*
X01569Y029618D02*
X014627D01*
X01569Y029027D02*
Y029618D01*
X014627Y029027D02*
Y029618D01*
M02*
