G04*
G04 #@! TF.GenerationSoftware,Altium Limited,Altium Designer,22.7.1 (60)*
G04*
G04 Layer_Color=8388736*
%FSTAX24Y24*%
%MOIN*%
G70*
G04*
G04 #@! TF.SameCoordinates,6CD0EBB0-E617-4DF7-9ACC-651BA77C9F88*
G04*
G04*
G04 #@! TF.FilePolarity,Positive*
G04*
G01*
G75*
%ADD32C,0.0039*%
D32*
X043712Y012531D02*
X043456D01*
Y012924D01*
X043712D02*
X043456D01*
X04633D02*
X046074D01*
X04633Y012531D02*
Y012924D01*
Y012531D02*
X046074D01*
Y013495D02*
X043712D01*
Y01196D02*
Y013495D01*
X046074Y01196D02*
X043712D01*
X046074D02*
Y013495D01*
X043712Y027368D02*
X043456D01*
Y027762D01*
X043712D02*
X043456D01*
X04633D02*
X046074D01*
X04633Y027368D02*
Y027762D01*
Y027368D02*
X046074D01*
Y028333D02*
X043712D01*
Y026797D02*
Y028333D01*
X046074Y026797D02*
X043712D01*
X046074D02*
Y028333D01*
X031225Y012531D02*
X030969D01*
Y012924D01*
X031225D02*
X030969D01*
X033843D02*
X033587D01*
X033843Y012531D02*
Y012924D01*
Y012531D02*
X033587D01*
Y013495D02*
X031225D01*
Y01196D02*
Y013495D01*
X033587Y01196D02*
X031225D01*
X033587D02*
Y013495D01*
X031225Y027368D02*
X030969D01*
Y027762D01*
X031225D02*
X030969D01*
X033843D02*
X033587D01*
X033843Y027368D02*
Y027762D01*
Y027368D02*
X033587D01*
Y028333D02*
X031225D01*
Y026797D02*
Y028333D01*
X033587Y026797D02*
X031225D01*
X033587D02*
Y028333D01*
X018737Y012531D02*
X018481D01*
Y012924D01*
X018737D02*
X018481D01*
X021355D02*
X021099D01*
X021355Y012531D02*
Y012924D01*
Y012531D02*
X021099D01*
Y013495D02*
X018737D01*
Y01196D02*
Y013495D01*
X021099Y01196D02*
X018737D01*
X021099D02*
Y013495D01*
X018737Y027368D02*
X018481D01*
Y027762D01*
X018737D02*
X018481D01*
X021355D02*
X021099D01*
X021355Y027368D02*
Y027762D01*
Y027368D02*
X021099D01*
Y028333D02*
X018737D01*
Y026797D02*
Y028333D01*
X021099Y026797D02*
X018737D01*
X021099D02*
Y028333D01*
M02*
