G04*
G04 #@! TF.GenerationSoftware,Altium Limited,Altium Designer,22.7.1 (60)*
G04*
G04 Layer_Color=32896*
%FSTAX24Y24*%
%MOIN*%
G70*
G04*
G04 #@! TF.SameCoordinates,6CD0EBB0-E617-4DF7-9ACC-651BA77C9F88*
G04*
G04*
G04 #@! TF.FilePolarity,Positive*
G04*
G01*
G75*
%ADD22C,0.0080*%
%ADD32C,0.0039*%
%ADD34C,0.0050*%
D22*
X044379Y021719D02*
X044079D01*
Y02157D01*
X044129Y02152D01*
X044229D01*
X044279Y02157D01*
Y021719D01*
Y02162D02*
X044379Y02152D01*
Y02127D02*
X044079D01*
X044229Y02142D01*
Y02122D01*
X044379Y02092D02*
Y02112D01*
X044179Y02092D01*
X044129D01*
X044079Y02097D01*
Y02107D01*
X044129Y02112D01*
X043591Y021617D02*
X043291D01*
Y021467D01*
X043341Y021418D01*
X043441D01*
X043491Y021467D01*
Y021617D01*
Y021517D02*
X043591Y021418D01*
Y021168D02*
X043291D01*
X043441Y021318D01*
Y021118D01*
X043591Y021018D02*
Y020918D01*
Y020968D01*
X043291D01*
X043341Y021018D01*
X044379Y036557D02*
X044079D01*
Y036407D01*
X044129Y036357D01*
X044229D01*
X044279Y036407D01*
Y036557D01*
Y036457D02*
X044379Y036357D01*
Y036107D02*
X044079D01*
X044229Y036257D01*
Y036057D01*
X044379Y035757D02*
Y035957D01*
X044179Y035757D01*
X044129D01*
X044079Y035807D01*
Y035907D01*
X044129Y035957D01*
X043591Y036455D02*
X043291D01*
Y036305D01*
X043341Y036255D01*
X043441D01*
X043491Y036305D01*
Y036455D01*
Y036355D02*
X043591Y036255D01*
Y036005D02*
X043291D01*
X043441Y036155D01*
Y035955D01*
X043591Y035855D02*
Y035755D01*
Y035805D01*
X043291D01*
X043341Y035855D01*
X031891Y021719D02*
X031591D01*
Y02157D01*
X031641Y02152D01*
X031741D01*
X031791Y02157D01*
Y021719D01*
Y02162D02*
X031891Y02152D01*
Y02127D02*
X031591D01*
X031741Y02142D01*
Y02122D01*
X031891Y02092D02*
Y02112D01*
X031691Y02092D01*
X031641D01*
X031591Y02097D01*
Y02107D01*
X031641Y02112D01*
X031104Y021617D02*
X030804D01*
Y021467D01*
X030854Y021418D01*
X030954D01*
X031004Y021467D01*
Y021617D01*
Y021517D02*
X031104Y021418D01*
Y021168D02*
X030804D01*
X030954Y021318D01*
Y021118D01*
X031104Y021018D02*
Y020918D01*
Y020968D01*
X030804D01*
X030854Y021018D01*
X031891Y036557D02*
X031591D01*
Y036407D01*
X031641Y036357D01*
X031741D01*
X031791Y036407D01*
Y036557D01*
Y036457D02*
X031891Y036357D01*
Y036107D02*
X031591D01*
X031741Y036257D01*
Y036057D01*
X031891Y035757D02*
Y035957D01*
X031691Y035757D01*
X031641D01*
X031591Y035807D01*
Y035907D01*
X031641Y035957D01*
X031104Y036455D02*
X030804D01*
Y036305D01*
X030854Y036255D01*
X030954D01*
X031004Y036305D01*
Y036455D01*
Y036355D02*
X031104Y036255D01*
Y036005D02*
X030804D01*
X030954Y036155D01*
Y035955D01*
X031104Y035855D02*
Y035755D01*
Y035805D01*
X030804D01*
X030854Y035855D01*
X019404Y021719D02*
X019104D01*
Y02157D01*
X019154Y02152D01*
X019254D01*
X019304Y02157D01*
Y021719D01*
Y02162D02*
X019404Y02152D01*
Y02127D02*
X019104D01*
X019254Y02142D01*
Y02122D01*
X019404Y02092D02*
Y02112D01*
X019204Y02092D01*
X019154D01*
X019104Y02097D01*
Y02107D01*
X019154Y02112D01*
X018616Y021617D02*
X018317D01*
Y021467D01*
X018367Y021418D01*
X018467D01*
X018517Y021467D01*
Y021617D01*
Y021517D02*
X018616Y021418D01*
Y021168D02*
X018317D01*
X018467Y021318D01*
Y021118D01*
X018616Y021018D02*
Y020918D01*
Y020968D01*
X018317D01*
X018367Y021018D01*
X019404Y036557D02*
X019104D01*
Y036407D01*
X019154Y036357D01*
X019254D01*
X019304Y036407D01*
Y036557D01*
Y036457D02*
X019404Y036357D01*
Y036107D02*
X019104D01*
X019254Y036257D01*
Y036057D01*
X019404Y035757D02*
Y035957D01*
X019204Y035757D01*
X019154D01*
X019104Y035807D01*
Y035907D01*
X019154Y035957D01*
X018616Y036455D02*
X018317D01*
Y036305D01*
X018367Y036255D01*
X018467D01*
X018517Y036305D01*
Y036455D01*
Y036355D02*
X018616Y036255D01*
Y036005D02*
X018317D01*
X018467Y036155D01*
Y035955D01*
X018616Y035855D02*
Y035755D01*
Y035805D01*
X018317D01*
X018367Y035855D01*
D32*
X044839Y021314D02*
Y021464D01*
X045139Y021314D02*
Y021464D01*
X044051Y021314D02*
Y021464D01*
X044351Y021314D02*
Y021464D01*
X044839Y036151D02*
Y036301D01*
X045139Y036151D02*
Y036301D01*
X044051Y036151D02*
Y036301D01*
X044351Y036151D02*
Y036301D01*
X032351Y021314D02*
Y021464D01*
X032651Y021314D02*
Y021464D01*
X031564Y021314D02*
Y021464D01*
X031864Y021314D02*
Y021464D01*
X032351Y036151D02*
Y036301D01*
X032651Y036151D02*
Y036301D01*
X031564Y036151D02*
Y036301D01*
X031864Y036151D02*
Y036301D01*
X019864Y021314D02*
Y021464D01*
X020164Y021314D02*
Y021464D01*
X019076Y021314D02*
Y021464D01*
X019376Y021314D02*
Y021464D01*
X019864Y036151D02*
Y036301D01*
X020164Y036151D02*
Y036301D01*
X019076Y036151D02*
Y036301D01*
X019376Y036151D02*
Y036301D01*
D34*
X045289Y020864D02*
Y021914D01*
X044689D01*
Y020864D02*
Y021914D01*
X045289Y020864D02*
X044689D01*
X044501D02*
Y021914D01*
X043901D01*
Y020864D02*
Y021914D01*
X044501Y020864D02*
X043901D01*
X045289Y035701D02*
Y036751D01*
X044689D01*
Y035701D02*
Y036751D01*
X045289Y035701D02*
X044689D01*
X044501D02*
Y036751D01*
X043901D01*
Y035701D02*
Y036751D01*
X044501Y035701D02*
X043901D01*
X032801Y020864D02*
Y021914D01*
X032201D01*
Y020864D02*
Y021914D01*
X032801Y020864D02*
X032201D01*
X032014D02*
Y021914D01*
X031414D01*
Y020864D02*
Y021914D01*
X032014Y020864D02*
X031414D01*
X032801Y035701D02*
Y036751D01*
X032201D01*
Y035701D02*
Y036751D01*
X032801Y035701D02*
X032201D01*
X032014D02*
Y036751D01*
X031414D01*
Y035701D02*
Y036751D01*
X032014Y035701D02*
X031414D01*
X020314Y020864D02*
Y021914D01*
X019714D01*
Y020864D02*
Y021914D01*
X020314Y020864D02*
X019714D01*
X019526D02*
Y021914D01*
X018926D01*
Y020864D02*
Y021914D01*
X019526Y020864D02*
X018926D01*
X020314Y035701D02*
Y036751D01*
X019714D01*
Y035701D02*
Y036751D01*
X020314Y035701D02*
X019714D01*
X019526D02*
Y036751D01*
X018926D01*
Y035701D02*
Y036751D01*
X019526Y035701D02*
X018926D01*
M02*
