G04*
G04 #@! TF.GenerationSoftware,Altium Limited,Altium Designer,22.7.1 (60)*
G04*
G04 Layer_Color=32896*
%FSTAX24Y24*%
%MOIN*%
G70*
G04*
G04 #@! TF.SameCoordinates,6CD0EBB0-E617-4DF7-9ACC-651BA77C9F88*
G04*
G04*
G04 #@! TF.FilePolarity,Positive*
G04*
G01*
G75*
%ADD56C,0.0020*%
D56*
X046547Y011881D02*
X04324D01*
Y013574D01*
X046547D02*
X04324D01*
X046547Y011881D02*
Y013574D01*
X04509Y012727D02*
X044696D01*
X044893Y012531D02*
Y012924D01*
X046547Y026718D02*
X04324D01*
Y028411D01*
X046547D02*
X04324D01*
X046547Y026718D02*
Y028411D01*
X04509Y027565D02*
X044696D01*
X044893Y027368D02*
Y027762D01*
X034059Y011881D02*
X030752D01*
Y013574D01*
X034059D02*
X030752D01*
X034059Y011881D02*
Y013574D01*
X032603Y012727D02*
X032209D01*
X032406Y012531D02*
Y012924D01*
X034059Y026718D02*
X030752D01*
Y028411D01*
X034059D02*
X030752D01*
X034059Y026718D02*
Y028411D01*
X032603Y027565D02*
X032209D01*
X032406Y027368D02*
Y027762D01*
X021572Y011881D02*
X018265D01*
Y013574D01*
X021572D02*
X018265D01*
X021572Y011881D02*
Y013574D01*
X020115Y012727D02*
X019721D01*
X019918Y012531D02*
Y012924D01*
X021572Y026718D02*
X018265D01*
Y028411D01*
X021572D02*
X018265D01*
X021572Y026718D02*
Y028411D01*
X020115Y027565D02*
X019721D01*
X019918Y027368D02*
Y027762D01*
M02*
