G04*
G04 #@! TF.GenerationSoftware,Altium Limited,Altium Designer,22.7.1 (60)*
G04*
G04 Layer_Color=128*
%FSTAX24Y24*%
%MOIN*%
G70*
G04*
G04 #@! TF.SameCoordinates,6CD0EBB0-E617-4DF7-9ACC-651BA77C9F88*
G04*
G04*
G04 #@! TF.FilePolarity,Positive*
G04*
G01*
G75*
%ADD58C,0.0020*%
D58*
X034219Y011898D02*
X034613D01*
X034416Y011702D02*
Y012095D01*
X034219Y012489D02*
X034613D01*
X034416Y012292D02*
Y012686D01*
X034219Y013079D02*
X034613D01*
X034416Y012883D02*
Y013276D01*
X034219Y01367D02*
X034613D01*
X034416Y013473D02*
Y013867D01*
X034219Y014261D02*
X034613D01*
X034416Y014064D02*
Y014457D01*
X034723Y011938D02*
X035117D01*
X03492Y011741D02*
Y012135D01*
X034723Y012529D02*
X035117D01*
X03492Y012332D02*
Y012726D01*
X034723Y013119D02*
X035117D01*
X03492Y012923D02*
Y013316D01*
X034723Y01371D02*
X035117D01*
X03492Y013513D02*
Y013907D01*
X034723Y014301D02*
X035117D01*
X03492Y014104D02*
Y014497D01*
X034229Y017768D02*
X034623D01*
X034426Y017572D02*
Y017965D01*
X034229Y018359D02*
X034623D01*
X034426Y018162D02*
Y018556D01*
X034229Y018949D02*
X034623D01*
X034426Y018753D02*
Y019146D01*
X034229Y01954D02*
X034623D01*
X034426Y019343D02*
Y019737D01*
X034229Y020131D02*
X034623D01*
X034426Y019934D02*
Y020327D01*
X034733Y017808D02*
X035127D01*
X03493Y017612D02*
Y018005D01*
X034733Y018399D02*
X035127D01*
X03493Y018202D02*
Y018596D01*
X034733Y018989D02*
X035127D01*
X03493Y018793D02*
Y019186D01*
X034733Y01958D02*
X035127D01*
X03493Y019383D02*
Y019777D01*
X034733Y020171D02*
X035127D01*
X03493Y019974D02*
Y020367D01*
X034229Y027778D02*
X034623D01*
X034426Y027582D02*
Y027975D01*
X034229Y028369D02*
X034623D01*
X034426Y028172D02*
Y028566D01*
X034229Y028959D02*
X034623D01*
X034426Y028763D02*
Y029156D01*
X034229Y02955D02*
X034623D01*
X034426Y029353D02*
Y029747D01*
X034229Y030141D02*
X034623D01*
X034426Y029944D02*
Y030337D01*
X034733Y027818D02*
X035127D01*
X03493Y027622D02*
Y028015D01*
X034733Y028409D02*
X035127D01*
X03493Y028212D02*
Y028606D01*
X034733Y028999D02*
X035127D01*
X03493Y028803D02*
Y029196D01*
X034733Y02959D02*
X035127D01*
X03493Y029393D02*
Y029787D01*
X034733Y030181D02*
X035127D01*
X03493Y029984D02*
Y030377D01*
X034199Y034458D02*
X034593D01*
X034396Y034262D02*
Y034655D01*
X034199Y035049D02*
X034593D01*
X034396Y034852D02*
Y035246D01*
X034199Y035639D02*
X034593D01*
X034396Y035443D02*
Y035836D01*
X034199Y03623D02*
X034593D01*
X034396Y036033D02*
Y036427D01*
X034199Y036821D02*
X034593D01*
X034396Y036624D02*
Y037017D01*
X034703Y034498D02*
X035097D01*
X0349Y034302D02*
Y034695D01*
X034703Y035089D02*
X035097D01*
X0349Y034892D02*
Y035286D01*
X034703Y035679D02*
X035097D01*
X0349Y035483D02*
Y035876D01*
X034703Y03627D02*
X035097D01*
X0349Y036073D02*
Y036467D01*
X034703Y036861D02*
X035097D01*
X0349Y036664D02*
Y037057D01*
X021729Y033618D02*
X022123D01*
X021926Y033421D02*
Y033815D01*
X021729Y034209D02*
X022123D01*
X021926Y034012D02*
Y034406D01*
X021729Y034799D02*
X022123D01*
X021926Y034603D02*
Y034996D01*
X021729Y03539D02*
X022123D01*
X021926Y035193D02*
Y035587D01*
X021729Y035981D02*
X022123D01*
X021926Y035784D02*
Y036177D01*
X022233Y033658D02*
X022627D01*
X02243Y033461D02*
Y033855D01*
X022233Y034249D02*
X022627D01*
X02243Y034052D02*
Y034446D01*
X022233Y034839D02*
X022627D01*
X02243Y034643D02*
Y035036D01*
X022233Y03543D02*
X022627D01*
X02243Y035233D02*
Y035627D01*
X022233Y036021D02*
X022627D01*
X02243Y035824D02*
Y036217D01*
X021749Y026228D02*
X022143D01*
X021946Y026031D02*
Y026425D01*
X021749Y026819D02*
X022143D01*
X021946Y026622D02*
Y027016D01*
X021749Y027409D02*
X022143D01*
X021946Y027213D02*
Y027606D01*
X021749Y028D02*
X022143D01*
X021946Y027803D02*
Y028197D01*
X021749Y028591D02*
X022143D01*
X021946Y028394D02*
Y028787D01*
X022253Y026268D02*
X022647D01*
X02245Y026072D02*
Y026465D01*
X022253Y026859D02*
X022647D01*
X02245Y026662D02*
Y027056D01*
X022253Y027449D02*
X022647D01*
X02245Y027253D02*
Y027646D01*
X022253Y02804D02*
X022647D01*
X02245Y027843D02*
Y028237D01*
X022253Y028631D02*
X022647D01*
X02245Y028434D02*
Y028827D01*
X021779Y018598D02*
X022173D01*
X021976Y018401D02*
Y018795D01*
X021779Y019189D02*
X022173D01*
X021976Y018992D02*
Y019386D01*
X021779Y019779D02*
X022173D01*
X021976Y019583D02*
Y019976D01*
X021779Y02037D02*
X022173D01*
X021976Y020173D02*
Y020567D01*
X021779Y020961D02*
X022173D01*
X021976Y020764D02*
Y021157D01*
X022283Y018638D02*
X022677D01*
X02248Y018441D02*
Y018835D01*
X022283Y019229D02*
X022677D01*
X02248Y019032D02*
Y019426D01*
X022283Y019819D02*
X022677D01*
X02248Y019623D02*
Y020016D01*
X022283Y02041D02*
X022677D01*
X02248Y020213D02*
Y020607D01*
X022283Y021001D02*
X022677D01*
X02248Y020804D02*
Y021197D01*
X021749Y011268D02*
X022143D01*
X021946Y011071D02*
Y011465D01*
X021749Y011859D02*
X022143D01*
X021946Y011662D02*
Y012056D01*
X021749Y012449D02*
X022143D01*
X021946Y012253D02*
Y012646D01*
X021749Y01304D02*
X022143D01*
X021946Y012843D02*
Y013237D01*
X021749Y013631D02*
X022143D01*
X021946Y013434D02*
Y013827D01*
X022253Y011308D02*
X022647D01*
X02245Y011112D02*
Y011505D01*
X022253Y011899D02*
X022647D01*
X02245Y011702D02*
Y012096D01*
X022253Y012489D02*
X022647D01*
X02245Y012293D02*
Y012686D01*
X022253Y01308D02*
X022647D01*
X02245Y012883D02*
Y013277D01*
X022253Y013671D02*
X022647D01*
X02245Y013474D02*
Y013867D01*
X014372Y024794D02*
X014765D01*
X014568Y024597D02*
Y024991D01*
X014962Y024794D02*
X015356D01*
X015159Y024597D02*
Y024991D01*
X015553Y024794D02*
X015946D01*
X015749Y024597D02*
Y024991D01*
X016143Y024794D02*
X016537D01*
X01634Y024597D02*
Y024991D01*
X016734Y024794D02*
X017127D01*
X016931Y024597D02*
Y024991D01*
X014411Y02429D02*
X014805D01*
X014608Y024093D02*
Y024487D01*
X015002Y02429D02*
X015396D01*
X015199Y024093D02*
Y024487D01*
X015593Y02429D02*
X015986D01*
X015789Y024093D02*
Y024487D01*
X016183Y02429D02*
X016577D01*
X01638Y024093D02*
Y024487D01*
X016774Y02429D02*
X017167D01*
X016971Y024093D02*
Y024487D01*
X027102Y024794D02*
X027495D01*
X027298Y024597D02*
Y024991D01*
X027692Y024794D02*
X028086D01*
X027889Y024597D02*
Y024991D01*
X028283Y024794D02*
X028676D01*
X028479Y024597D02*
Y024991D01*
X028873Y024794D02*
X029267D01*
X02907Y024597D02*
Y024991D01*
X029464Y024794D02*
X029857D01*
X029661Y024597D02*
Y024991D01*
X027141Y02429D02*
X027535D01*
X027338Y024093D02*
Y024487D01*
X027732Y02429D02*
X028126D01*
X027929Y024093D02*
Y024487D01*
X028323Y02429D02*
X028716D01*
X028519Y024093D02*
Y024487D01*
X028913Y02429D02*
X029307D01*
X02911Y024093D02*
Y024487D01*
X029504Y02429D02*
X029897D01*
X029701Y024093D02*
Y024487D01*
X038791Y02429D02*
X039185D01*
X038988Y024093D02*
Y024487D01*
X039382Y02429D02*
X039776D01*
X039579Y024093D02*
Y024487D01*
X039973Y02429D02*
X040366D01*
X040169Y024093D02*
Y024487D01*
X040563Y02429D02*
X040957D01*
X04076Y024093D02*
Y024487D01*
X041154Y02429D02*
X041547D01*
X041351Y024093D02*
Y024487D01*
X038751Y024794D02*
X039145D01*
X038948Y024597D02*
Y024991D01*
X039342Y024794D02*
X039736D01*
X039539Y024597D02*
Y024991D01*
X039933Y024794D02*
X040326D01*
X040129Y024597D02*
Y024991D01*
X040523Y024794D02*
X040917D01*
X04072Y024597D02*
Y024991D01*
X041114Y024794D02*
X041507D01*
X041311Y024597D02*
Y024991D01*
X044831Y022297D02*
X045146D01*
X044989Y02214D02*
Y022455D01*
X045619Y022297D02*
X045933D01*
X045776Y02214D02*
Y022455D01*
X044044Y022297D02*
X044359D01*
X044201Y02214D02*
Y022455D01*
X043256Y022297D02*
X043571D01*
X043414Y02214D02*
Y022455D01*
X044716Y017772D02*
X045031D01*
X044873Y017615D02*
Y01793D01*
X044716Y016197D02*
X045031D01*
X044873Y01604D02*
Y016355D01*
X044716Y014623D02*
X045031D01*
X044873Y014465D02*
Y01478D01*
X044716Y01541D02*
X045031D01*
X044873Y015253D02*
Y015568D01*
X044716Y016985D02*
X045031D01*
X044873Y016827D02*
Y017142D01*
X044716Y01856D02*
X045031D01*
X044873Y018402D02*
Y018717D01*
X044716Y019347D02*
X045031D01*
X044873Y01919D02*
Y019505D01*
X044716Y020134D02*
X045031D01*
X044873Y019977D02*
Y020292D01*
X045193Y011037D02*
X046374D01*
X045783Y010447D02*
Y011628D01*
X036586Y019531D02*
X036901D01*
X036744Y019373D02*
Y019688D01*
X036586Y020318D02*
X036901D01*
X036744Y020161D02*
Y020475D01*
X039376Y022147D02*
X03977D01*
X039573Y021951D02*
Y022344D01*
X038376Y022147D02*
X03877D01*
X038573Y021951D02*
Y022344D01*
X040376Y022147D02*
X04077D01*
X040573Y021951D02*
Y022344D01*
X041376Y022147D02*
X04177D01*
X041573Y021951D02*
Y022344D01*
X035483Y023147D02*
X036664D01*
X036073Y022557D02*
Y023738D01*
X038494Y014447D02*
X038652D01*
X038573Y014369D02*
Y014526D01*
X041609Y013126D02*
X041766D01*
X041688Y013047D02*
Y013204D01*
X042544Y021297D02*
X042702D01*
X042623Y021219D02*
Y021376D01*
X044831Y037135D02*
X045146D01*
X044989Y036977D02*
Y037292D01*
X045619Y037135D02*
X045933D01*
X045776Y036977D02*
Y037292D01*
X044044Y037135D02*
X044359D01*
X044201Y036977D02*
Y037292D01*
X043256Y037135D02*
X043571D01*
X043414Y036977D02*
Y037292D01*
X044716Y03261D02*
X045031D01*
X044873Y032452D02*
Y032767D01*
X044716Y031035D02*
X045031D01*
X044873Y030877D02*
Y031192D01*
X044716Y02946D02*
X045031D01*
X044873Y029303D02*
Y029618D01*
X044716Y030247D02*
X045031D01*
X044873Y03009D02*
Y030405D01*
X044716Y031822D02*
X045031D01*
X044873Y031665D02*
Y03198D01*
X044716Y033397D02*
X045031D01*
X044873Y03324D02*
Y033555D01*
X044716Y034184D02*
X045031D01*
X044873Y034027D02*
Y034342D01*
X044716Y034972D02*
X045031D01*
X044873Y034814D02*
Y035129D01*
X045193Y025875D02*
X046374D01*
X045783Y025284D02*
Y026465D01*
X036586Y034368D02*
X036901D01*
X036744Y034211D02*
Y034525D01*
X036586Y035155D02*
X036901D01*
X036744Y034998D02*
Y035313D01*
X039376Y036985D02*
X03977D01*
X039573Y036788D02*
Y037182D01*
X038376Y036985D02*
X03877D01*
X038573Y036788D02*
Y037182D01*
X040376Y036985D02*
X04077D01*
X040573Y036788D02*
Y037182D01*
X041376Y036985D02*
X04177D01*
X041573Y036788D02*
Y037182D01*
X035483Y037985D02*
X036664D01*
X036073Y037394D02*
Y038575D01*
X038494Y029285D02*
X038652D01*
X038573Y029206D02*
Y029364D01*
X041609Y027963D02*
X041766D01*
X041688Y027884D02*
Y028042D01*
X042544Y036135D02*
X042702D01*
X042623Y036056D02*
Y036214D01*
X032344Y022297D02*
X032659D01*
X032501Y02214D02*
Y022455D01*
X033131Y022297D02*
X033446D01*
X033289Y02214D02*
Y022455D01*
X031556Y022297D02*
X031871D01*
X031714Y02214D02*
Y022455D01*
X030769Y022297D02*
X031084D01*
X030926Y02214D02*
Y022455D01*
X032228Y017772D02*
X032543D01*
X032386Y017615D02*
Y01793D01*
X032228Y016197D02*
X032543D01*
X032386Y01604D02*
Y016355D01*
X032228Y014623D02*
X032543D01*
X032386Y014465D02*
Y01478D01*
X032228Y01541D02*
X032543D01*
X032386Y015253D02*
Y015568D01*
X032228Y016985D02*
X032543D01*
X032386Y016827D02*
Y017142D01*
X032228Y01856D02*
X032543D01*
X032386Y018402D02*
Y018717D01*
X032228Y019347D02*
X032543D01*
X032386Y01919D02*
Y019505D01*
X032228Y020134D02*
X032543D01*
X032386Y019977D02*
Y020292D01*
X032705Y011037D02*
X033886D01*
X033296Y010447D02*
Y011628D01*
X024099Y019531D02*
X024414D01*
X024256Y019373D02*
Y019688D01*
X024099Y020318D02*
X024414D01*
X024256Y020161D02*
Y020475D01*
X026889Y022147D02*
X027283D01*
X027086Y021951D02*
Y022344D01*
X025889Y022147D02*
X026283D01*
X026086Y021951D02*
Y022344D01*
X027889Y022147D02*
X028283D01*
X028086Y021951D02*
Y022344D01*
X028889Y022147D02*
X029283D01*
X029086Y021951D02*
Y022344D01*
X022995Y023147D02*
X024176D01*
X023586Y022557D02*
Y023738D01*
X026007Y014447D02*
X026164D01*
X026086Y014369D02*
Y014526D01*
X029121Y013126D02*
X029279D01*
X0292Y013047D02*
Y013204D01*
X030057Y021297D02*
X030214D01*
X030136Y021219D02*
Y021376D01*
X032344Y037135D02*
X032659D01*
X032501Y036977D02*
Y037292D01*
X033131Y037135D02*
X033446D01*
X033289Y036977D02*
Y037292D01*
X031556Y037135D02*
X031871D01*
X031714Y036977D02*
Y037292D01*
X030769Y037135D02*
X031084D01*
X030926Y036977D02*
Y037292D01*
X032228Y03261D02*
X032543D01*
X032386Y032452D02*
Y032767D01*
X032228Y031035D02*
X032543D01*
X032386Y030877D02*
Y031192D01*
X032228Y02946D02*
X032543D01*
X032386Y029303D02*
Y029618D01*
X032228Y030247D02*
X032543D01*
X032386Y03009D02*
Y030405D01*
X032228Y031822D02*
X032543D01*
X032386Y031665D02*
Y03198D01*
X032228Y033397D02*
X032543D01*
X032386Y03324D02*
Y033555D01*
X032228Y034184D02*
X032543D01*
X032386Y034027D02*
Y034342D01*
X032228Y034972D02*
X032543D01*
X032386Y034814D02*
Y035129D01*
X032705Y025875D02*
X033886D01*
X033296Y025284D02*
Y026465D01*
X024099Y034368D02*
X024414D01*
X024256Y034211D02*
Y034525D01*
X024099Y035155D02*
X024414D01*
X024256Y034998D02*
Y035313D01*
X026889Y036985D02*
X027283D01*
X027086Y036788D02*
Y037182D01*
X025889Y036985D02*
X026283D01*
X026086Y036788D02*
Y037182D01*
X027889Y036985D02*
X028283D01*
X028086Y036788D02*
Y037182D01*
X028889Y036985D02*
X029283D01*
X029086Y036788D02*
Y037182D01*
X022995Y037985D02*
X024176D01*
X023586Y037394D02*
Y038575D01*
X026007Y029285D02*
X026164D01*
X026086Y029206D02*
Y029364D01*
X029121Y027963D02*
X029279D01*
X0292Y027884D02*
Y028042D01*
X030057Y036135D02*
X030214D01*
X030136Y036056D02*
Y036214D01*
X019856Y022297D02*
X020171D01*
X020014Y02214D02*
Y022455D01*
X020644Y022297D02*
X020959D01*
X020801Y02214D02*
Y022455D01*
X019069Y022297D02*
X019384D01*
X019226Y02214D02*
Y022455D01*
X018282Y022297D02*
X018596D01*
X018439Y02214D02*
Y022455D01*
X019741Y017772D02*
X020056D01*
X019898Y017615D02*
Y01793D01*
X019741Y016197D02*
X020056D01*
X019898Y01604D02*
Y016355D01*
X019741Y014623D02*
X020056D01*
X019898Y014465D02*
Y01478D01*
X019741Y01541D02*
X020056D01*
X019898Y015253D02*
Y015568D01*
X019741Y016985D02*
X020056D01*
X019898Y016827D02*
Y017142D01*
X019741Y01856D02*
X020056D01*
X019898Y018402D02*
Y018717D01*
X019741Y019347D02*
X020056D01*
X019898Y01919D02*
Y019505D01*
X019741Y020134D02*
X020056D01*
X019898Y019977D02*
Y020292D01*
X020218Y011037D02*
X021399D01*
X020808Y010447D02*
Y011628D01*
X011611Y019531D02*
X011926D01*
X011769Y019373D02*
Y019688D01*
X011611Y020318D02*
X011926D01*
X011769Y020161D02*
Y020475D01*
X014402Y022147D02*
X014795D01*
X014598Y021951D02*
Y022344D01*
X013401Y022147D02*
X013795D01*
X013598Y021951D02*
Y022344D01*
X015402Y022147D02*
X015795D01*
X015598Y021951D02*
Y022344D01*
X016401Y022147D02*
X016795D01*
X016598Y021951D02*
Y022344D01*
X010508Y023147D02*
X011689D01*
X011098Y022557D02*
Y023738D01*
X01352Y014447D02*
X013677D01*
X013598Y014369D02*
Y014526D01*
X016634Y013126D02*
X016791D01*
X016713Y013047D02*
Y013204D01*
X01757Y021297D02*
X017727D01*
X017648Y021219D02*
Y021376D01*
X019856Y037135D02*
X020171D01*
X020014Y036977D02*
Y037292D01*
X020644Y037135D02*
X020959D01*
X020801Y036977D02*
Y037292D01*
X019069Y037135D02*
X019384D01*
X019226Y036977D02*
Y037292D01*
X018282Y037135D02*
X018596D01*
X018439Y036977D02*
Y037292D01*
X019741Y03261D02*
X020056D01*
X019898Y032452D02*
Y032767D01*
X019741Y031035D02*
X020056D01*
X019898Y030877D02*
Y031192D01*
X019741Y02946D02*
X020056D01*
X019898Y029303D02*
Y029618D01*
X019741Y030247D02*
X020056D01*
X019898Y03009D02*
Y030405D01*
X019741Y031822D02*
X020056D01*
X019898Y031665D02*
Y03198D01*
X019741Y033397D02*
X020056D01*
X019898Y03324D02*
Y033555D01*
X019741Y034184D02*
X020056D01*
X019898Y034027D02*
Y034342D01*
X019741Y034972D02*
X020056D01*
X019898Y034814D02*
Y035129D01*
X020218Y025875D02*
X021399D01*
X020808Y025284D02*
Y026465D01*
X011611Y034368D02*
X011926D01*
X011769Y034211D02*
Y034525D01*
X011611Y035155D02*
X011926D01*
X011769Y034998D02*
Y035313D01*
X014402Y036985D02*
X014795D01*
X014598Y036788D02*
Y037182D01*
X013401Y036985D02*
X013795D01*
X013598Y036788D02*
Y037182D01*
X015402Y036985D02*
X015795D01*
X015598Y036788D02*
Y037182D01*
X016401Y036985D02*
X016795D01*
X016598Y036788D02*
Y037182D01*
X010508Y037985D02*
X011689D01*
X011098Y037394D02*
Y038575D01*
X01352Y029285D02*
X013677D01*
X013598Y029206D02*
Y029364D01*
X016634Y027963D02*
X016791D01*
X016713Y027884D02*
Y028042D01*
X01757Y036135D02*
X017727D01*
X017648Y036056D02*
Y036214D01*
M02*
