G04*
G04 #@! TF.GenerationSoftware,Altium Limited,Altium Designer,22.7.1 (60)*
G04*
G04 Layer_Color=65535*
%FSTAX24Y24*%
%MOIN*%
G70*
G04*
G04 #@! TF.SameCoordinates,6CD0EBB0-E617-4DF7-9ACC-651BA77C9F88*
G04*
G04*
G04 #@! TF.FilePolarity,Positive*
G04*
G01*
G75*
%ADD22C,0.0080*%
%ADD31C,0.0098*%
%ADD32C,0.0039*%
%ADD33C,0.0060*%
%ADD34C,0.0050*%
%ADD35C,0.0079*%
%ADD36C,0.0079*%
%ADD37C,0.0070*%
G36*
X036511Y026557D02*
X036512Y026557D01*
X036546Y026541D01*
X036547Y026541D01*
X036547Y026541D01*
X036575Y026525D01*
X036576Y026525D01*
X036576Y026524D01*
X036608Y026499D01*
X036608Y026499D01*
X036608Y026499D01*
X036636Y026474D01*
X036671Y026445D01*
X036672Y026443D01*
X036673Y026442D01*
X036675Y026432D01*
X036687Y026419D01*
X036688Y026419D01*
X036688Y026418D01*
X03672Y026365D01*
X03672Y026364D01*
X03672Y026364D01*
X036742Y026313D01*
X036742Y026313D01*
X036743Y026313D01*
X036762Y026266D01*
X036762Y026265D01*
X036762Y026265D01*
X036771Y026217D01*
X036771Y026217D01*
X036771Y026216D01*
X036775Y026128D01*
X036774Y026127D01*
X036775Y026127D01*
X036768Y026064D01*
X036768Y026063D01*
X036768Y026063D01*
X036749Y025999D01*
X036749Y025999D01*
X036749Y025999D01*
X036727Y025936D01*
X036726Y025935D01*
X036726Y025935D01*
X036676Y025834D01*
X036675Y025833D01*
X036675Y025832D01*
X036674Y025832D01*
X036673Y025831D01*
X036673D01*
X036673Y025831D01*
X036672Y025831D01*
X036671Y025831D01*
X03667Y025831D01*
X036669Y025831D01*
X036577Y025869D01*
X036576Y02587D01*
X036575Y02587D01*
X036549Y025897D01*
X036532Y025894D01*
X036532Y025894D01*
X036532Y025894D01*
X03653Y025895D01*
X036528Y025895D01*
X036528Y025895D01*
X036528Y025895D01*
X036504Y025915D01*
X036505Y025915D01*
X036505Y025913D01*
X036505Y025911D01*
X036505Y025911D01*
X036505Y025911D01*
X036504Y025909D01*
X036503Y025908D01*
X036503Y025908D01*
X036502Y025907D01*
X036501Y025907D01*
X036499Y025907D01*
X036499Y025907D01*
X036498Y025907D01*
X036497Y025908D01*
X036495Y025909D01*
X036461Y025963D01*
X03646Y025965D01*
X03646Y025966D01*
X03646Y025967D01*
X03646Y025967D01*
X036461Y025968D01*
X036461Y025969D01*
X036442Y026001D01*
X036441Y026001D01*
X036441Y026002D01*
X036419Y026049D01*
X036419Y026049D01*
X036419Y026049D01*
X036397Y026103D01*
X036397Y026103D01*
X036397Y026103D01*
X036384Y026141D01*
X036384Y026142D01*
X036384Y026142D01*
X036374Y026203D01*
X036374Y026203D01*
X036374Y026203D01*
X036371Y026276D01*
X036371Y026276D01*
X036371Y026277D01*
X036374Y026321D01*
X036374Y026321D01*
X036374Y026321D01*
X03638Y026359D01*
X036381Y02636D01*
X036381Y02636D01*
X036393Y026398D01*
X036394Y026398D01*
X036394Y026399D01*
X036403Y026421D01*
X036416Y026453D01*
X036416Y026453D01*
X036417Y026454D01*
X036448Y026495D01*
X036448Y026495D01*
X036449Y026495D01*
X036506Y026556D01*
X036507Y026556D01*
X036508Y026557D01*
X036509Y026557D01*
X036509Y026557D01*
X036511Y026557D01*
D02*
G37*
G36*
X024023D02*
X024024Y026557D01*
X024059Y026541D01*
X024059Y026541D01*
X024059Y026541D01*
X024088Y026525D01*
X024088Y026525D01*
X024089Y026524D01*
X02412Y026499D01*
X024121Y026499D01*
X024121Y026499D01*
X024149Y026474D01*
X024184Y026445D01*
X024185Y026443D01*
X024186Y026442D01*
X024188Y026432D01*
X0242Y026419D01*
X0242Y026419D01*
X024201Y026418D01*
X024232Y026365D01*
X024232Y026364D01*
X024233Y026364D01*
X024255Y026313D01*
X024255Y026313D01*
X024255Y026313D01*
X024274Y026266D01*
X024274Y026265D01*
X024274Y026265D01*
X024284Y026217D01*
X024284Y026217D01*
X024284Y026216D01*
X024287Y026128D01*
X024287Y026127D01*
X024287Y026127D01*
X024281Y026064D01*
X024281Y026063D01*
X024281Y026063D01*
X024262Y025999D01*
X024262Y025999D01*
X024262Y025999D01*
X024239Y025936D01*
X024239Y025935D01*
X024239Y025935D01*
X024188Y025834D01*
X024188Y025833D01*
X024187Y025832D01*
X024186Y025832D01*
X024185Y025831D01*
X024185D01*
X024185Y025831D01*
X024184Y025831D01*
X024183Y025831D01*
X024182Y025831D01*
X024181Y025831D01*
X02409Y025869D01*
X024089Y02587D01*
X024088Y02587D01*
X024061Y025897D01*
X024045Y025894D01*
X024045Y025894D01*
X024045Y025894D01*
X024043Y025895D01*
X024041Y025895D01*
X024041Y025895D01*
X024041Y025895D01*
X024017Y025915D01*
X024017Y025915D01*
X024017Y025913D01*
X024018Y025911D01*
X024018Y025911D01*
X024018Y025911D01*
X024016Y025909D01*
X024015Y025908D01*
X024015Y025908D01*
X024015Y025907D01*
X024013Y025907D01*
X024011Y025907D01*
X024011Y025907D01*
X024011Y025907D01*
X024009Y025908D01*
X024008Y025909D01*
X023973Y025963D01*
X023973Y025965D01*
X023972Y025966D01*
X023973Y025967D01*
X023972Y025967D01*
X023973Y025968D01*
X023974Y025969D01*
X023954Y026001D01*
X023954Y026001D01*
X023954Y026002D01*
X023932Y026049D01*
X023932Y026049D01*
X023931Y026049D01*
X023909Y026103D01*
X023909Y026103D01*
X023909Y026103D01*
X023897Y026141D01*
X023897Y026142D01*
X023896Y026142D01*
X023887Y026203D01*
X023887Y026203D01*
X023887Y026203D01*
X023884Y026276D01*
X023884Y026276D01*
X023884Y026277D01*
X023887Y026321D01*
X023887Y026321D01*
X023887Y026321D01*
X023893Y026359D01*
X023893Y02636D01*
X023893Y02636D01*
X023906Y026398D01*
X023906Y026398D01*
X023906Y026399D01*
X023916Y026421D01*
X023928Y026453D01*
X023929Y026453D01*
X023929Y026454D01*
X023961Y026495D01*
X023961Y026495D01*
X023961Y026495D01*
X024018Y026556D01*
X024019Y026556D01*
X02402Y026557D01*
X024021Y026557D01*
X024022Y026557D01*
X024023Y026557D01*
D02*
G37*
G36*
X011536D02*
X011537Y026557D01*
X011572Y026541D01*
X011572Y026541D01*
X011572Y026541D01*
X011601Y026525D01*
X011601Y026525D01*
X011601Y026524D01*
X011633Y026499D01*
X011633Y026499D01*
X011633Y026499D01*
X011662Y026474D01*
X011696Y026445D01*
X011697Y026443D01*
X011698Y026442D01*
X0117Y026432D01*
X011713Y026419D01*
X011713Y026419D01*
X011713Y026418D01*
X011745Y026365D01*
X011745Y026364D01*
X011745Y026364D01*
X011768Y026313D01*
X011768Y026313D01*
X011768Y026313D01*
X011787Y026266D01*
X011787Y026265D01*
X011787Y026265D01*
X011796Y026217D01*
X011796Y026217D01*
X011796Y026216D01*
X0118Y026128D01*
X0118Y026127D01*
X0118Y026127D01*
X011793Y026064D01*
X011793Y026063D01*
X011793Y026063D01*
X011774Y025999D01*
X011774Y025999D01*
X011774Y025999D01*
X011752Y025936D01*
X011752Y025935D01*
X011752Y025935D01*
X011701Y025834D01*
X0117Y025833D01*
X0117Y025832D01*
X011699Y025832D01*
X011698Y025831D01*
X011698D01*
X011698Y025831D01*
X011697Y025831D01*
X011696Y025831D01*
X011695Y025831D01*
X011694Y025831D01*
X011602Y025869D01*
X011602Y02587D01*
X011601Y02587D01*
X011574Y025897D01*
X011558Y025894D01*
X011557Y025894D01*
X011557Y025894D01*
X011555Y025895D01*
X011553Y025895D01*
X011553Y025895D01*
X011553Y025895D01*
X01153Y025915D01*
X01153Y025915D01*
X01153Y025913D01*
X01153Y025911D01*
X01153Y025911D01*
X01153Y025911D01*
X011529Y025909D01*
X011528Y025908D01*
X011528Y025908D01*
X011528Y025907D01*
X011526Y025907D01*
X011524Y025907D01*
X011524Y025907D01*
X011524Y025907D01*
X011522Y025908D01*
X01152Y025909D01*
X011486Y025963D01*
X011485Y025965D01*
X011485Y025966D01*
X011485Y025967D01*
X011485Y025967D01*
X011486Y025968D01*
X011486Y025969D01*
X011467Y026001D01*
X011467Y026001D01*
X011466Y026002D01*
X011444Y026049D01*
X011444Y026049D01*
X011444Y026049D01*
X011422Y026103D01*
X011422Y026103D01*
X011422Y026103D01*
X011409Y026141D01*
X011409Y026142D01*
X011409Y026142D01*
X011399Y026203D01*
X011399Y026203D01*
X011399Y026203D01*
X011396Y026276D01*
X011396Y026276D01*
X011396Y026277D01*
X011399Y026321D01*
X011399Y026321D01*
X011399Y026321D01*
X011406Y026359D01*
X011406Y02636D01*
X011406Y02636D01*
X011419Y026398D01*
X011419Y026398D01*
X011419Y026399D01*
X011428Y026421D01*
X011441Y026453D01*
X011442Y026453D01*
X011442Y026454D01*
X011473Y026495D01*
X011474Y026495D01*
X011474Y026495D01*
X011531Y026556D01*
X011532Y026556D01*
X011533Y026557D01*
X011534Y026557D01*
X011535Y026557D01*
X011536Y026557D01*
D02*
G37*
G36*
X035692Y026113D02*
X035693Y026113D01*
X035778Y026094D01*
X035778Y026093D01*
X035779Y026093D01*
X035846Y026065D01*
X035846Y026065D01*
X035846Y026065D01*
X035906Y026033D01*
X035906Y026033D01*
X035906Y026033D01*
X035954Y026004D01*
X035954Y026004D01*
X035955Y026004D01*
X035986Y025975D01*
X035987Y025975D01*
X035987Y025975D01*
X035987Y025975D01*
X035987Y025975D01*
X035987Y025973D01*
X035988Y025971D01*
X035988Y025971D01*
X035988Y025971D01*
X035988Y025971D01*
X035988Y025971D01*
X035987Y025969D01*
X035987Y025968D01*
X035987Y025967D01*
X035987Y025967D01*
X035986Y025967D01*
X035986Y025967D01*
X035847Y02585D01*
X035847Y02585D01*
X035847Y02585D01*
X03583Y025836D01*
X035809Y025818D01*
X035808Y025818D01*
X035808Y025818D01*
X035757Y025795D01*
X035757Y025795D01*
X035756Y025795D01*
X035683Y025776D01*
X035683Y025776D01*
X035683Y025776D01*
X035682Y025776D01*
X035616Y025769D01*
X035616Y02577D01*
X035615Y025769D01*
X035523D01*
X035523Y02577D01*
X035522Y02577D01*
X035433Y025792D01*
X035433Y025792D01*
X035433Y025792D01*
X035433D01*
X035376Y025811D01*
X035376Y025811D01*
X035375Y025811D01*
X035331Y025833D01*
X035303Y025846D01*
X035303Y025846D01*
X035302Y025846D01*
X035264Y025868D01*
X035264Y025869D01*
X035264Y025869D01*
X035263Y02587D01*
X035262Y025872D01*
X035262Y025872D01*
X035262Y025872D01*
X035262Y025874D01*
X035262Y025876D01*
X035263Y025876D01*
X035263Y025876D01*
X035295Y025917D01*
X035295Y025918D01*
X035295Y025918D01*
X035326Y025953D01*
X035352Y025984D01*
X035352Y025984D01*
X035352Y025985D01*
X0354Y026026D01*
X0354Y026026D01*
X0354Y026026D01*
X035451Y026061D01*
X035451Y026061D01*
X035452Y026062D01*
X035519Y026087D01*
X035519Y026087D01*
X035519Y026087D01*
X035604Y026109D01*
X035605Y026109D01*
X035606Y02611D01*
X035691Y026113D01*
X035692Y026113D01*
D02*
G37*
G36*
X023205D02*
X023205Y026113D01*
X023291Y026094D01*
X023291Y026093D01*
X023292Y026093D01*
X023358Y026065D01*
X023358Y026065D01*
X023359Y026065D01*
X023419Y026033D01*
X023419Y026033D01*
X023419Y026033D01*
X023467Y026004D01*
X023467Y026004D01*
X023467Y026004D01*
X023499Y025975D01*
X023499Y025975D01*
X023499Y025975D01*
X023499Y025975D01*
X0235Y025975D01*
X0235Y025973D01*
X023501Y025971D01*
X023501Y025971D01*
X023501Y025971D01*
X023501Y025971D01*
X023501Y025971D01*
X0235Y025969D01*
X023499Y025968D01*
X023499Y025967D01*
X023499Y025967D01*
X023499Y025967D01*
X023499Y025967D01*
X02336Y02585D01*
X02336Y02585D01*
X02336Y02585D01*
X023342Y025836D01*
X023322Y025818D01*
X023321Y025818D01*
X02332Y025818D01*
X02327Y025795D01*
X023269Y025795D01*
X023269Y025795D01*
X023196Y025776D01*
X023195Y025776D01*
X023195Y025776D01*
X023195Y025776D01*
X023129Y025769D01*
X023128Y02577D01*
X023128Y025769D01*
X023036D01*
X023035Y02577D01*
X023034Y02577D01*
X022946Y025792D01*
X022946Y025792D01*
X022946Y025792D01*
X022946D01*
X022889Y025811D01*
X022888Y025811D01*
X022888Y025811D01*
X022844Y025833D01*
X022816Y025846D01*
X022815Y025846D01*
X022815Y025846D01*
X022777Y025868D01*
X022777Y025869D01*
X022776Y025869D01*
X022776Y02587D01*
X022775Y025872D01*
X022775Y025872D01*
X022774Y025872D01*
X022775Y025874D01*
X022775Y025876D01*
X022775Y025876D01*
X022775Y025876D01*
X022807Y025917D01*
X022807Y025918D01*
X022807Y025918D01*
X022839Y025953D01*
X022864Y025984D01*
X022865Y025984D01*
X022865Y025985D01*
X022912Y026026D01*
X022912Y026026D01*
X022913Y026026D01*
X022963Y026061D01*
X022964Y026061D01*
X022964Y026062D01*
X023031Y026087D01*
X023031Y026087D01*
X023032Y026087D01*
X023117Y026109D01*
X023118Y026109D01*
X023118Y02611D01*
X023204Y026113D01*
X023205Y026113D01*
D02*
G37*
G36*
X010717D02*
X010718Y026113D01*
X010803Y026094D01*
X010804Y026093D01*
X010804Y026093D01*
X010871Y026065D01*
X010871Y026065D01*
X010871Y026065D01*
X010931Y026033D01*
X010931Y026033D01*
X010931Y026033D01*
X010979Y026004D01*
X010979Y026004D01*
X01098Y026004D01*
X011012Y025975D01*
X011012Y025975D01*
X011012Y025975D01*
X011012Y025975D01*
X011012Y025975D01*
X011013Y025973D01*
X011013Y025971D01*
X011013Y025971D01*
X011013Y025971D01*
X011013Y025971D01*
X011013Y025971D01*
X011013Y025969D01*
X011012Y025968D01*
X011012Y025967D01*
X011012Y025967D01*
X011012Y025967D01*
X011011Y025967D01*
X010872Y02585D01*
X010872Y02585D01*
X010872Y02585D01*
X010855Y025836D01*
X010834Y025818D01*
X010833Y025818D01*
X010833Y025818D01*
X010782Y025795D01*
X010782Y025795D01*
X010781Y025795D01*
X010708Y025776D01*
X010708Y025776D01*
X010708Y025776D01*
X010708Y025776D01*
X010641Y025769D01*
X010641Y02577D01*
X010641Y025769D01*
X010548D01*
X010548Y02577D01*
X010547Y02577D01*
X010459Y025792D01*
X010459Y025792D01*
X010458Y025792D01*
X010458D01*
X010401Y025811D01*
X010401Y025811D01*
X010401Y025811D01*
X010356Y025833D01*
X010328Y025846D01*
X010328Y025846D01*
X010328Y025846D01*
X01029Y025868D01*
X010289Y025869D01*
X010289Y025869D01*
X010288Y02587D01*
X010287Y025872D01*
X010287Y025872D01*
X010287Y025872D01*
X010287Y025874D01*
X010288Y025876D01*
X010288Y025876D01*
X010288Y025876D01*
X01032Y025917D01*
X01032Y025918D01*
X01032Y025918D01*
X010352Y025953D01*
X010377Y025984D01*
X010377Y025984D01*
X010377Y025985D01*
X010425Y026026D01*
X010425Y026026D01*
X010425Y026026D01*
X010476Y026061D01*
X010477Y026061D01*
X010477Y026062D01*
X010544Y026087D01*
X010544Y026087D01*
X010544Y026087D01*
X01063Y026109D01*
X01063Y026109D01*
X010631Y02611D01*
X010716Y026113D01*
X010717Y026113D01*
D02*
G37*
G36*
X035942Y02655D02*
X035943Y02655D01*
X035997Y026531D01*
X035997Y02653D01*
X035998Y02653D01*
X03608Y026495D01*
X03608Y026495D01*
X036081Y026495D01*
X036112Y026476D01*
X036112Y026476D01*
X036112Y026476D01*
X036153Y026451D01*
X036154Y02645D01*
X036154Y02645D01*
X036221Y02638D01*
X036221Y02638D01*
X036222Y026379D01*
X036254Y026319D01*
X036254Y026319D01*
X036254Y026318D01*
X036267Y02628D01*
X036267Y026279D01*
X036267Y026279D01*
Y026171D01*
X036267Y026171D01*
X036267Y02617D01*
X036261Y026116D01*
X03626Y026116D01*
X036261Y026116D01*
X036254Y026072D01*
X036254Y026071D01*
X036254Y02607D01*
X036238Y026032D01*
X036238Y026032D01*
X036238Y026032D01*
X036219Y025997D01*
X036218Y025997D01*
X036218Y025996D01*
X036216Y025995D01*
X036215Y025995D01*
X036215Y025995D01*
X036214Y025994D01*
X036147D01*
X036146Y025995D01*
X036145Y025995D01*
X036044Y026039D01*
X036044Y02604D01*
X036043Y02604D01*
X035955Y026097D01*
X035954Y026097D01*
X035953Y026098D01*
X035925Y026132D01*
X035925Y026133D01*
X035924Y026133D01*
X035896Y026177D01*
X035896Y026178D01*
X035895Y026178D01*
X035864Y026261D01*
X035864Y026261D01*
X035863Y026262D01*
X035854Y026316D01*
X035854Y026317D01*
X035854Y026319D01*
X035855Y026319D01*
X035855Y02632D01*
X035856Y02632D01*
X035854Y026341D01*
X035854Y026342D01*
X035854Y026343D01*
X03586Y02639D01*
X03586Y02639D01*
X03586Y026391D01*
X035876Y026441D01*
X035876Y026441D01*
X035876Y026442D01*
X035892Y026489D01*
X035893Y02649D01*
X035893Y026491D01*
X035937Y026548D01*
X035938Y026548D01*
X035939Y026549D01*
X03594Y026549D01*
X035941Y02655D01*
X035942Y02655D01*
D02*
G37*
G36*
X023455D02*
X023456Y02655D01*
X02351Y026531D01*
X02351Y02653D01*
X02351Y02653D01*
X023593Y026495D01*
X023593Y026495D01*
X023593Y026495D01*
X023625Y026476D01*
X023625Y026476D01*
X023625Y026476D01*
X023666Y026451D01*
X023666Y02645D01*
X023667Y02645D01*
X023734Y02638D01*
X023734Y02638D01*
X023735Y026379D01*
X023766Y026319D01*
X023766Y026319D01*
X023767Y026318D01*
X023779Y02628D01*
X023779Y026279D01*
X023779Y026279D01*
Y026171D01*
X023779Y026171D01*
X023779Y02617D01*
X023773Y026116D01*
X023773Y026116D01*
X023773Y026116D01*
X023767Y026072D01*
X023766Y026071D01*
X023766Y02607D01*
X02375Y026032D01*
X02375Y026032D01*
X02375Y026032D01*
X023731Y025997D01*
X023731Y025997D01*
X02373Y025996D01*
X023729Y025995D01*
X023728Y025995D01*
X023727Y025995D01*
X023726Y025994D01*
X02366D01*
X023659Y025995D01*
X023658Y025995D01*
X023557Y026039D01*
X023556Y02604D01*
X023556Y02604D01*
X023467Y026097D01*
X023467Y026097D01*
X023466Y026098D01*
X023437Y026132D01*
X023437Y026133D01*
X023437Y026133D01*
X023409Y026177D01*
X023408Y026178D01*
X023408Y026178D01*
X023376Y026261D01*
X023376Y026261D01*
X023376Y026262D01*
X023366Y026316D01*
X023367Y026317D01*
X023367Y026319D01*
X023367Y026319D01*
X023367Y02632D01*
X023369Y02632D01*
X023366Y026341D01*
X023367Y026342D01*
X023366Y026343D01*
X023373Y02639D01*
X023373Y02639D01*
X023373Y026391D01*
X023389Y026441D01*
X023389Y026441D01*
X023389Y026442D01*
X023405Y026489D01*
X023405Y02649D01*
X023405Y026491D01*
X02345Y026548D01*
X023451Y026548D01*
X023452Y026549D01*
X023453Y026549D01*
X023453Y02655D01*
X023455Y02655D01*
D02*
G37*
G36*
X010967D02*
X010968Y02655D01*
X011022Y026531D01*
X011023Y02653D01*
X011023Y02653D01*
X011105Y026495D01*
X011105Y026495D01*
X011106Y026495D01*
X011137Y026476D01*
X011137Y026476D01*
X011138Y026476D01*
X011179Y026451D01*
X011179Y02645D01*
X01118Y02645D01*
X011246Y02638D01*
X011247Y02638D01*
X011247Y026379D01*
X011279Y026319D01*
X011279Y026319D01*
X011279Y026318D01*
X011292Y02628D01*
X011292Y026279D01*
X011292Y026279D01*
Y026171D01*
X011292Y026171D01*
X011292Y02617D01*
X011286Y026116D01*
X011286Y026116D01*
X011286Y026116D01*
X011279Y026072D01*
X011279Y026071D01*
X011279Y02607D01*
X011263Y026032D01*
X011263Y026032D01*
X011263Y026032D01*
X011244Y025997D01*
X011243Y025997D01*
X011243Y025996D01*
X011242Y025995D01*
X011241Y025995D01*
X01124Y025995D01*
X011239Y025994D01*
X011173D01*
X011172Y025995D01*
X011171Y025995D01*
X011069Y026039D01*
X011069Y02604D01*
X011068Y02604D01*
X01098Y026097D01*
X010979Y026097D01*
X010979Y026098D01*
X01095Y026132D01*
X01095Y026133D01*
X010949Y026133D01*
X010921Y026177D01*
X010921Y026178D01*
X010921Y026178D01*
X010889Y026261D01*
X010889Y026261D01*
X010889Y026262D01*
X010879Y026316D01*
X010879Y026317D01*
X01088Y026319D01*
X01088Y026319D01*
X01088Y02632D01*
X010881Y02632D01*
X010879Y026341D01*
X010879Y026342D01*
X010879Y026343D01*
X010885Y02639D01*
X010886Y02639D01*
X010886Y026391D01*
X010902Y026441D01*
X010902Y026441D01*
X010902Y026442D01*
X010917Y026489D01*
X010918Y02649D01*
X010918Y026491D01*
X010962Y026548D01*
X010963Y026548D01*
X010964Y026549D01*
X010965Y026549D01*
X010966Y02655D01*
X010967Y02655D01*
D02*
G37*
G36*
X036576Y02581D02*
X036577Y02581D01*
X036577Y025809D01*
X036578Y025809D01*
X03664Y025775D01*
X036657Y025778D01*
X036659Y025778D01*
X03666Y025778D01*
X036661Y025777D01*
X036661Y025777D01*
X036662Y025776D01*
X036663Y025775D01*
X036698Y025699D01*
X036698Y025698D01*
X036699Y025698D01*
X036718Y025555D01*
X036717Y025555D01*
X036718Y025554D01*
Y025488D01*
X036717Y025487D01*
X036717Y025487D01*
X036708Y025436D01*
X036708Y025436D01*
X036708Y025435D01*
X036686Y025372D01*
X036685Y025372D01*
X036685Y025371D01*
X03666Y025327D01*
X03666Y025327D01*
X03666Y025326D01*
X036615Y025263D01*
X036615Y025263D01*
X036615Y025263D01*
X03659Y025234D01*
X036589Y025234D01*
X036589Y025233D01*
X036554Y025205D01*
X036554Y025205D01*
X036553Y025205D01*
X036515Y025179D01*
X036515Y025179D01*
X036515Y025179D01*
X036471Y025154D01*
X036471Y025154D01*
X03647Y025154D01*
X036429Y025135D01*
X036429Y025135D01*
X036429Y025134D01*
X036362Y025115D01*
X036361Y025115D01*
X03636Y025115D01*
X036359Y025116D01*
X036358Y025116D01*
X036357Y025117D01*
X036356Y025117D01*
X036315Y025168D01*
X036315Y025169D01*
X036314Y025169D01*
X036295Y025216D01*
X036295Y025217D01*
X036295Y025217D01*
X036279Y025268D01*
X036279Y025268D01*
X036279Y025269D01*
Y025272D01*
X036276Y025339D01*
X036276Y025339D01*
X036276Y025339D01*
Y025399D01*
X036276Y0254D01*
X036276Y0254D01*
X036289Y025467D01*
X036289Y025467D01*
X036289Y025467D01*
X036314Y025534D01*
X036315Y025534D01*
X036315Y025535D01*
X036349Y025592D01*
X036368Y025626D01*
X036369Y025627D01*
X036369Y025627D01*
X036391Y025659D01*
X036391Y025659D01*
X036391Y025659D01*
X03642Y025691D01*
X03642Y025691D01*
X03642Y025691D01*
X036493Y025752D01*
X036494Y025752D01*
X036494Y025752D01*
X036573Y025809D01*
X036574Y025809D01*
X036574Y02581D01*
X036575Y02581D01*
X036576Y02581D01*
X036576Y02581D01*
D02*
G37*
G36*
X024089D02*
X024089Y02581D01*
X02409Y025809D01*
X024091Y025809D01*
X024153Y025775D01*
X02417Y025778D01*
X024171Y025778D01*
X024173Y025778D01*
X024173Y025777D01*
X024174Y025777D01*
X024175Y025776D01*
X024176Y025775D01*
X024211Y025699D01*
X024211Y025698D01*
X024211Y025698D01*
X02423Y025555D01*
X02423Y025555D01*
X02423Y025554D01*
Y025488D01*
X02423Y025487D01*
X02423Y025487D01*
X02422Y025436D01*
X02422Y025436D01*
X02422Y025435D01*
X024198Y025372D01*
X024198Y025372D01*
X024198Y025371D01*
X024172Y025327D01*
X024172Y025327D01*
X024172Y025326D01*
X024128Y025263D01*
X024128Y025263D01*
X024127Y025263D01*
X024102Y025234D01*
X024102Y025234D01*
X024101Y025233D01*
X024066Y025205D01*
X024066Y025205D01*
X024066Y025205D01*
X024028Y025179D01*
X024028Y025179D01*
X024028Y025179D01*
X023983Y025154D01*
X023983Y025154D01*
X023983Y025154D01*
X023942Y025135D01*
X023942Y025135D01*
X023941Y025134D01*
X023875Y025115D01*
X023874Y025115D01*
X023873Y025115D01*
X023872Y025116D01*
X02387Y025116D01*
X02387Y025117D01*
X023869Y025117D01*
X023828Y025168D01*
X023828Y025169D01*
X023827Y025169D01*
X023808Y025216D01*
X023808Y025217D01*
X023808Y025217D01*
X023792Y025268D01*
X023792Y025268D01*
X023792Y025269D01*
Y025272D01*
X023789Y025339D01*
X023789Y025339D01*
X023789Y025339D01*
Y025399D01*
X023789Y0254D01*
X023789Y0254D01*
X023801Y025467D01*
X023802Y025467D01*
X023802Y025467D01*
X023827Y025534D01*
X023827Y025534D01*
X023827Y025535D01*
X023862Y025592D01*
X023881Y025626D01*
X023881Y025627D01*
X023881Y025627D01*
X023904Y025659D01*
X023904Y025659D01*
X023904Y025659D01*
X023932Y025691D01*
X023933Y025691D01*
X023933Y025691D01*
X024006Y025752D01*
X024006Y025752D01*
X024006Y025752D01*
X024085Y025809D01*
X024086Y025809D01*
X024087Y02581D01*
X024088Y02581D01*
X024088Y02581D01*
X024089Y02581D01*
D02*
G37*
G36*
X011601D02*
X011602Y02581D01*
X011603Y025809D01*
X011604Y025809D01*
X011665Y025775D01*
X011682Y025778D01*
X011684Y025778D01*
X011685Y025778D01*
X011686Y025777D01*
X011686Y025777D01*
X011687Y025776D01*
X011688Y025775D01*
X011723Y025699D01*
X011723Y025698D01*
X011724Y025698D01*
X011743Y025555D01*
X011743Y025555D01*
X011743Y025554D01*
Y025488D01*
X011743Y025487D01*
X011743Y025487D01*
X011733Y025436D01*
X011733Y025436D01*
X011733Y025435D01*
X011711Y025372D01*
X01171Y025372D01*
X01171Y025371D01*
X011685Y025327D01*
X011685Y025327D01*
X011685Y025326D01*
X01164Y025263D01*
X01164Y025263D01*
X01164Y025263D01*
X011615Y025234D01*
X011614Y025234D01*
X011614Y025233D01*
X011579Y025205D01*
X011579Y025205D01*
X011579Y025205D01*
X011541Y025179D01*
X01154Y025179D01*
X01154Y025179D01*
X011496Y025154D01*
X011496Y025154D01*
X011496Y025154D01*
X011455Y025135D01*
X011454Y025135D01*
X011454Y025134D01*
X011387Y025115D01*
X011386Y025115D01*
X011385Y025115D01*
X011384Y025116D01*
X011383Y025116D01*
X011382Y025117D01*
X011381Y025117D01*
X01134Y025168D01*
X01134Y025169D01*
X01134Y025169D01*
X011321Y025216D01*
X011321Y025217D01*
X011321Y025217D01*
X011305Y025268D01*
X011305Y025268D01*
X011304Y025269D01*
Y025272D01*
X011301Y025339D01*
X011301Y025339D01*
X011301Y025339D01*
Y025399D01*
X011301Y0254D01*
X011301Y0254D01*
X011314Y025467D01*
X011314Y025467D01*
X011314Y025467D01*
X01134Y025534D01*
X01134Y025534D01*
X01134Y025535D01*
X011375Y025592D01*
X011394Y025626D01*
X011394Y025627D01*
X011394Y025627D01*
X011416Y025659D01*
X011417Y025659D01*
X011417Y025659D01*
X011445Y025691D01*
X011445Y025691D01*
X011446Y025691D01*
X011519Y025752D01*
X011519Y025752D01*
X011519Y025752D01*
X011598Y025809D01*
X011599Y025809D01*
X0116Y02581D01*
X0116Y02581D01*
X011601Y02581D01*
X011601Y02581D01*
D02*
G37*
G36*
X036145Y025939D02*
X036146Y02594D01*
X036203Y025933D01*
X036203Y025933D01*
X036203Y025933D01*
X036205Y025932D01*
X036206Y025931D01*
X036206Y025931D01*
X036207Y025931D01*
X036216Y025915D01*
X036217Y025914D01*
X036217Y025913D01*
X03622Y025891D01*
X036236Y025838D01*
X036236Y025838D01*
X036236Y025837D01*
X036245Y025796D01*
X036245Y025796D01*
X036245Y025796D01*
X036255Y025749D01*
X036255Y025748D01*
X036255Y025747D01*
Y02571D01*
X036255Y025709D01*
X036255Y025709D01*
X036248Y025616D01*
X036248Y025615D01*
X036248Y025615D01*
X036229Y025564D01*
X036228Y025564D01*
X036228Y025563D01*
X03619Y025487D01*
X03619Y025487D01*
X03619Y025486D01*
X036139Y025429D01*
X036138Y025429D01*
X036138Y025429D01*
X036081Y025384D01*
X036081Y025384D01*
X036081Y025384D01*
X036036Y025356D01*
X036036Y025356D01*
X036036Y025355D01*
X035982Y025333D01*
X035981D01*
X035981Y025333D01*
X035934Y02532D01*
X035932Y02532D01*
X03593Y02532D01*
X03593Y02532D01*
X035929Y02532D01*
X035929Y025321D01*
X035928Y025321D01*
X035928Y025321D01*
X035928Y025321D01*
X035926Y025323D01*
X035925Y025324D01*
X035909Y025355D01*
X035899Y025377D01*
X035899Y025377D01*
X035899Y025377D01*
X035877Y025424D01*
X035877Y025425D01*
X035876Y025425D01*
X03586Y025489D01*
X03586Y025489D01*
X03586Y02549D01*
Y02555D01*
X03586Y025551D01*
X03586Y025551D01*
X03587Y025611D01*
X03587Y025611D01*
X03587Y025612D01*
X035886Y025666D01*
X035886Y025666D01*
X035886Y025667D01*
X035915Y025724D01*
X035915Y025724D01*
X035915Y025724D01*
X035954Y025785D01*
X035954Y025785D01*
X035954Y025785D01*
X035976Y025814D01*
X035977Y025814D01*
X035977Y025815D01*
X035993Y025827D01*
X036008Y025846D01*
X036009Y025846D01*
X036009Y025847D01*
X036031Y025862D01*
X036053Y025881D01*
X036053Y025881D01*
X036054Y025882D01*
X036079Y025898D01*
X03611Y02592D01*
X036111Y02592D01*
X036111Y02592D01*
X036142Y025939D01*
X036144Y025939D01*
X036145Y02594D01*
X036145Y025939D01*
D02*
G37*
G36*
X023658D02*
X023658Y02594D01*
X023715Y025933D01*
X023716Y025933D01*
X023716Y025933D01*
X023717Y025932D01*
X023719Y025931D01*
X023719Y025931D01*
X023719Y025931D01*
X023729Y025915D01*
X023729Y025914D01*
X02373Y025913D01*
X023733Y025891D01*
X023749Y025838D01*
X023749Y025838D01*
X023749Y025837D01*
X023758Y025796D01*
X023758Y025796D01*
X023758Y025796D01*
X023768Y025749D01*
X023768Y025748D01*
X023768Y025747D01*
Y02571D01*
X023768Y025709D01*
X023768Y025709D01*
X02376Y025616D01*
X02376Y025615D01*
X02376Y025615D01*
X023741Y025564D01*
X023741Y025564D01*
X023741Y025563D01*
X023703Y025487D01*
X023702Y025487D01*
X023702Y025486D01*
X023651Y025429D01*
X023651Y025429D01*
X023651Y025429D01*
X023594Y025384D01*
X023593Y025384D01*
X023593Y025384D01*
X023549Y025356D01*
X023549Y025356D01*
X023548Y025355D01*
X023494Y025333D01*
X023494D01*
X023493Y025333D01*
X023446Y02532D01*
X023445Y02532D01*
X023443Y02532D01*
X023443Y02532D01*
X023442Y02532D01*
X023442Y025321D01*
X023441Y025321D01*
X02344Y025321D01*
X02344Y025321D01*
X023439Y025323D01*
X023438Y025324D01*
X023422Y025355D01*
X023411Y025377D01*
X023411Y025377D01*
X023411Y025377D01*
X023389Y025424D01*
X023389Y025425D01*
X023389Y025425D01*
X023373Y025489D01*
X023373Y025489D01*
X023373Y02549D01*
Y02555D01*
X023373Y025551D01*
X023373Y025551D01*
X023382Y025611D01*
X023383Y025611D01*
X023383Y025612D01*
X023398Y025666D01*
X023399Y025666D01*
X023399Y025667D01*
X023427Y025724D01*
X023427Y025724D01*
X023428Y025724D01*
X023467Y025785D01*
X023467Y025785D01*
X023467Y025785D01*
X023489Y025814D01*
X023489Y025814D01*
X02349Y025815D01*
X023505Y025827D01*
X023521Y025846D01*
X023521Y025846D01*
X023522Y025847D01*
X023544Y025862D01*
X023566Y025881D01*
X023566Y025881D01*
X023566Y025882D01*
X023591Y025898D01*
X023623Y02592D01*
X023623Y02592D01*
X023623Y02592D01*
X023655Y025939D01*
X023656Y025939D01*
X023658Y02594D01*
X023658Y025939D01*
D02*
G37*
G36*
X011171D02*
X011171Y02594D01*
X011228Y025933D01*
X011228Y025933D01*
X011229Y025933D01*
X01123Y025932D01*
X011232Y025931D01*
X011232Y025931D01*
X011232Y025931D01*
X011242Y025915D01*
X011242Y025914D01*
X011242Y025913D01*
X011245Y025891D01*
X011261Y025838D01*
X011261Y025838D01*
X011261Y025837D01*
X011271Y025796D01*
X011271Y025796D01*
X011271Y025796D01*
X01128Y025749D01*
X01128Y025748D01*
X01128Y025747D01*
Y02571D01*
X01128Y025709D01*
X01128Y025709D01*
X011273Y025616D01*
X011273Y025615D01*
X011273Y025615D01*
X011254Y025564D01*
X011254Y025564D01*
X011254Y025563D01*
X011216Y025487D01*
X011215Y025487D01*
X011215Y025486D01*
X011164Y025429D01*
X011164Y025429D01*
X011163Y025429D01*
X011106Y025384D01*
X011106Y025384D01*
X011106Y025384D01*
X011062Y025356D01*
X011061Y025356D01*
X011061Y025355D01*
X011007Y025333D01*
X011006D01*
X011006Y025333D01*
X010959Y02532D01*
X010957Y02532D01*
X010956Y02532D01*
X010955Y02532D01*
X010955Y02532D01*
X010954Y025321D01*
X010953Y025321D01*
X010953Y025321D01*
X010953Y025321D01*
X010952Y025323D01*
X01095Y025324D01*
X010934Y025355D01*
X010924Y025377D01*
X010924Y025377D01*
X010924Y025377D01*
X010902Y025424D01*
X010902Y025425D01*
X010901Y025425D01*
X010885Y025489D01*
X010886Y025489D01*
X010885Y02549D01*
Y02555D01*
X010885Y025551D01*
X010885Y025551D01*
X010895Y025611D01*
X010895Y025611D01*
X010895Y025612D01*
X010911Y025666D01*
X010911Y025666D01*
X010911Y025667D01*
X01094Y025724D01*
X01094Y025724D01*
X01094Y025724D01*
X010979Y025785D01*
X010979Y025785D01*
X010979Y025785D01*
X011001Y025814D01*
X011002Y025814D01*
X011002Y025815D01*
X011018Y025827D01*
X011033Y025846D01*
X011034Y025846D01*
X011034Y025847D01*
X011056Y025862D01*
X011078Y025881D01*
X011079Y025881D01*
X011079Y025882D01*
X011104Y025898D01*
X011136Y02592D01*
X011136Y02592D01*
X011136Y02592D01*
X011168Y025939D01*
X011169Y025939D01*
X01117Y02594D01*
X011171Y025939D01*
D02*
G37*
G36*
X036511Y011719D02*
X036512Y011719D01*
X036546Y011703D01*
X036547Y011703D01*
X036547Y011703D01*
X036575Y011688D01*
X036576Y011687D01*
X036576Y011687D01*
X036608Y011662D01*
X036608Y011662D01*
X036608Y011661D01*
X036636Y011636D01*
X036671Y011608D01*
X036672Y011606D01*
X036673Y011604D01*
X036675Y011594D01*
X036687Y011582D01*
X036688Y011581D01*
X036688Y011581D01*
X03672Y011527D01*
X03672Y011527D01*
X03672Y011527D01*
X036742Y011476D01*
X036742Y011476D01*
X036743Y011476D01*
X036762Y011428D01*
X036762Y011428D01*
X036762Y011427D01*
X036771Y01138D01*
X036771Y011379D01*
X036771Y011379D01*
X036775Y01129D01*
X036774Y01129D01*
X036775Y01129D01*
X036768Y011226D01*
X036768Y011226D01*
X036768Y011225D01*
X036749Y011162D01*
X036749Y011162D01*
X036749Y011162D01*
X036727Y011098D01*
X036726Y011098D01*
X036726Y011098D01*
X036676Y010996D01*
X036675Y010996D01*
X036675Y010995D01*
X036674Y010995D01*
X036673Y010994D01*
X036673D01*
X036673Y010994D01*
X036672Y010994D01*
X036671Y010993D01*
X03667Y010994D01*
X036669Y010994D01*
X036577Y011032D01*
X036576Y011033D01*
X036575Y011033D01*
X036549Y011059D01*
X036532Y011057D01*
X036532Y011057D01*
X036532Y011057D01*
X03653Y011057D01*
X036528Y011058D01*
X036528Y011058D01*
X036528Y011058D01*
X036504Y011078D01*
X036505Y011077D01*
X036505Y011076D01*
X036505Y011074D01*
X036505Y011073D01*
X036505Y011073D01*
X036504Y011072D01*
X036503Y01107D01*
X036503Y01107D01*
X036502Y01107D01*
X036501Y01107D01*
X036499Y011069D01*
X036499Y01107D01*
X036498Y01107D01*
X036497Y011071D01*
X036495Y011072D01*
X036461Y011126D01*
X03646Y011127D01*
X03646Y011129D01*
X03646Y011129D01*
X03646Y01113D01*
X036461Y011131D01*
X036461Y011131D01*
X036442Y011164D01*
X036441Y011164D01*
X036441Y011164D01*
X036419Y011212D01*
X036419Y011212D01*
X036419Y011212D01*
X036397Y011266D01*
X036397Y011266D01*
X036397Y011266D01*
X036384Y011304D01*
X036384Y011305D01*
X036384Y011305D01*
X036374Y011365D01*
X036374Y011366D01*
X036374Y011366D01*
X036371Y011439D01*
X036371Y011439D01*
X036371Y011439D01*
X036374Y011483D01*
X036374Y011484D01*
X036374Y011484D01*
X03638Y011522D01*
X036381Y011522D01*
X036381Y011523D01*
X036393Y011561D01*
X036394Y011561D01*
X036394Y011561D01*
X036403Y011584D01*
X036416Y011615D01*
X036416Y011616D01*
X036417Y011616D01*
X036448Y011657D01*
X036448Y011658D01*
X036449Y011658D01*
X036506Y011718D01*
X036507Y011719D01*
X036508Y01172D01*
X036509Y011719D01*
X036509Y01172D01*
X036511Y011719D01*
D02*
G37*
G36*
X024023D02*
X024024Y011719D01*
X024059Y011703D01*
X024059Y011703D01*
X024059Y011703D01*
X024088Y011688D01*
X024088Y011687D01*
X024089Y011687D01*
X02412Y011662D01*
X024121Y011662D01*
X024121Y011661D01*
X024149Y011636D01*
X024184Y011608D01*
X024185Y011606D01*
X024186Y011604D01*
X024188Y011594D01*
X0242Y011582D01*
X0242Y011581D01*
X024201Y011581D01*
X024232Y011527D01*
X024232Y011527D01*
X024233Y011527D01*
X024255Y011476D01*
X024255Y011476D01*
X024255Y011476D01*
X024274Y011428D01*
X024274Y011428D01*
X024274Y011427D01*
X024284Y01138D01*
X024284Y011379D01*
X024284Y011379D01*
X024287Y01129D01*
X024287Y01129D01*
X024287Y01129D01*
X024281Y011226D01*
X024281Y011226D01*
X024281Y011225D01*
X024262Y011162D01*
X024262Y011162D01*
X024262Y011162D01*
X024239Y011098D01*
X024239Y011098D01*
X024239Y011098D01*
X024188Y010996D01*
X024188Y010996D01*
X024187Y010995D01*
X024186Y010995D01*
X024185Y010994D01*
X024185D01*
X024185Y010994D01*
X024184Y010994D01*
X024183Y010993D01*
X024182Y010994D01*
X024181Y010994D01*
X02409Y011032D01*
X024089Y011033D01*
X024088Y011033D01*
X024061Y011059D01*
X024045Y011057D01*
X024045Y011057D01*
X024045Y011057D01*
X024043Y011057D01*
X024041Y011058D01*
X024041Y011058D01*
X024041Y011058D01*
X024017Y011078D01*
X024017Y011077D01*
X024017Y011076D01*
X024018Y011074D01*
X024018Y011073D01*
X024018Y011073D01*
X024016Y011072D01*
X024015Y01107D01*
X024015Y01107D01*
X024015Y01107D01*
X024013Y01107D01*
X024011Y011069D01*
X024011Y01107D01*
X024011Y01107D01*
X024009Y011071D01*
X024008Y011072D01*
X023973Y011126D01*
X023973Y011127D01*
X023972Y011129D01*
X023973Y011129D01*
X023972Y01113D01*
X023973Y011131D01*
X023974Y011131D01*
X023954Y011164D01*
X023954Y011164D01*
X023954Y011164D01*
X023932Y011212D01*
X023932Y011212D01*
X023931Y011212D01*
X023909Y011266D01*
X023909Y011266D01*
X023909Y011266D01*
X023897Y011304D01*
X023897Y011305D01*
X023896Y011305D01*
X023887Y011365D01*
X023887Y011366D01*
X023887Y011366D01*
X023884Y011439D01*
X023884Y011439D01*
X023884Y011439D01*
X023887Y011483D01*
X023887Y011484D01*
X023887Y011484D01*
X023893Y011522D01*
X023893Y011522D01*
X023893Y011523D01*
X023906Y011561D01*
X023906Y011561D01*
X023906Y011561D01*
X023916Y011584D01*
X023928Y011615D01*
X023929Y011616D01*
X023929Y011616D01*
X023961Y011657D01*
X023961Y011658D01*
X023961Y011658D01*
X024018Y011718D01*
X024019Y011719D01*
X02402Y01172D01*
X024021Y011719D01*
X024022Y01172D01*
X024023Y011719D01*
D02*
G37*
G36*
X011536D02*
X011537Y011719D01*
X011572Y011703D01*
X011572Y011703D01*
X011572Y011703D01*
X011601Y011688D01*
X011601Y011687D01*
X011601Y011687D01*
X011633Y011662D01*
X011633Y011662D01*
X011633Y011661D01*
X011662Y011636D01*
X011696Y011608D01*
X011697Y011606D01*
X011698Y011604D01*
X0117Y011594D01*
X011713Y011582D01*
X011713Y011581D01*
X011713Y011581D01*
X011745Y011527D01*
X011745Y011527D01*
X011745Y011527D01*
X011768Y011476D01*
X011768Y011476D01*
X011768Y011476D01*
X011787Y011428D01*
X011787Y011428D01*
X011787Y011427D01*
X011796Y01138D01*
X011796Y011379D01*
X011796Y011379D01*
X0118Y01129D01*
X0118Y01129D01*
X0118Y01129D01*
X011793Y011226D01*
X011793Y011226D01*
X011793Y011225D01*
X011774Y011162D01*
X011774Y011162D01*
X011774Y011162D01*
X011752Y011098D01*
X011752Y011098D01*
X011752Y011098D01*
X011701Y010996D01*
X0117Y010996D01*
X0117Y010995D01*
X011699Y010995D01*
X011698Y010994D01*
X011698D01*
X011698Y010994D01*
X011697Y010994D01*
X011696Y010993D01*
X011695Y010994D01*
X011694Y010994D01*
X011602Y011032D01*
X011602Y011033D01*
X011601Y011033D01*
X011574Y011059D01*
X011558Y011057D01*
X011557Y011057D01*
X011557Y011057D01*
X011555Y011057D01*
X011553Y011058D01*
X011553Y011058D01*
X011553Y011058D01*
X01153Y011078D01*
X01153Y011077D01*
X01153Y011076D01*
X01153Y011074D01*
X01153Y011073D01*
X01153Y011073D01*
X011529Y011072D01*
X011528Y01107D01*
X011528Y01107D01*
X011528Y01107D01*
X011526Y01107D01*
X011524Y011069D01*
X011524Y01107D01*
X011524Y01107D01*
X011522Y011071D01*
X01152Y011072D01*
X011486Y011126D01*
X011485Y011127D01*
X011485Y011129D01*
X011485Y011129D01*
X011485Y01113D01*
X011486Y011131D01*
X011486Y011131D01*
X011467Y011164D01*
X011467Y011164D01*
X011466Y011164D01*
X011444Y011212D01*
X011444Y011212D01*
X011444Y011212D01*
X011422Y011266D01*
X011422Y011266D01*
X011422Y011266D01*
X011409Y011304D01*
X011409Y011305D01*
X011409Y011305D01*
X011399Y011365D01*
X011399Y011366D01*
X011399Y011366D01*
X011396Y011439D01*
X011396Y011439D01*
X011396Y011439D01*
X011399Y011483D01*
X011399Y011484D01*
X011399Y011484D01*
X011406Y011522D01*
X011406Y011522D01*
X011406Y011523D01*
X011419Y011561D01*
X011419Y011561D01*
X011419Y011561D01*
X011428Y011584D01*
X011441Y011615D01*
X011442Y011616D01*
X011442Y011616D01*
X011473Y011657D01*
X011474Y011658D01*
X011474Y011658D01*
X011531Y011718D01*
X011532Y011719D01*
X011533Y01172D01*
X011534Y011719D01*
X011535Y01172D01*
X011536Y011719D01*
D02*
G37*
G36*
X035692Y011275D02*
X035693Y011275D01*
X035778Y011256D01*
X035778Y011256D01*
X035779Y011256D01*
X035846Y011227D01*
X035846Y011227D01*
X035846Y011227D01*
X035906Y011196D01*
X035906Y011195D01*
X035906Y011195D01*
X035954Y011167D01*
X035954Y011167D01*
X035955Y011166D01*
X035986Y011138D01*
X035987Y011138D01*
X035987Y011138D01*
X035987Y011137D01*
X035987Y011137D01*
X035987Y011136D01*
X035988Y011134D01*
X035988Y011134D01*
X035988Y011134D01*
X035988Y011134D01*
X035988Y011133D01*
X035987Y011132D01*
X035987Y01113D01*
X035987Y01113D01*
X035987Y01113D01*
X035986Y01113D01*
X035986Y01113D01*
X035847Y011013D01*
X035847Y011013D01*
X035847Y011013D01*
X03583Y010998D01*
X035809Y010981D01*
X035808Y010981D01*
X035808Y01098D01*
X035757Y010958D01*
X035757Y010958D01*
X035756Y010958D01*
X035683Y010939D01*
X035683Y010939D01*
X035683Y010938D01*
X035682Y010938D01*
X035616Y010932D01*
X035616Y010932D01*
X035615Y010932D01*
X035523D01*
X035523Y010932D01*
X035522Y010932D01*
X035433Y010955D01*
X035433Y010955D01*
X035433Y010955D01*
X035433D01*
X035376Y010974D01*
X035376Y010974D01*
X035375Y010974D01*
X035331Y010996D01*
X035303Y011008D01*
X035303Y011009D01*
X035302Y011009D01*
X035264Y011031D01*
X035264Y011031D01*
X035264Y011031D01*
X035263Y011033D01*
X035262Y011034D01*
X035262Y011035D01*
X035262Y011035D01*
X035262Y011037D01*
X035262Y011039D01*
X035263Y011039D01*
X035263Y011039D01*
X035295Y01108D01*
X035295Y01108D01*
X035295Y01108D01*
X035326Y011115D01*
X035352Y011147D01*
X035352Y011147D01*
X035352Y011148D01*
X0354Y011189D01*
X0354Y011189D01*
X0354Y011189D01*
X035451Y011224D01*
X035451Y011224D01*
X035452Y011224D01*
X035519Y01125D01*
X035519Y01125D01*
X035519Y01125D01*
X035604Y011272D01*
X035605Y011272D01*
X035606Y011272D01*
X035691Y011276D01*
X035692Y011275D01*
D02*
G37*
G36*
X023205D02*
X023205Y011275D01*
X023291Y011256D01*
X023291Y011256D01*
X023292Y011256D01*
X023358Y011227D01*
X023358Y011227D01*
X023359Y011227D01*
X023419Y011196D01*
X023419Y011195D01*
X023419Y011195D01*
X023467Y011167D01*
X023467Y011167D01*
X023467Y011166D01*
X023499Y011138D01*
X023499Y011138D01*
X023499Y011138D01*
X023499Y011137D01*
X0235Y011137D01*
X0235Y011136D01*
X023501Y011134D01*
X023501Y011134D01*
X023501Y011134D01*
X023501Y011134D01*
X023501Y011133D01*
X0235Y011132D01*
X023499Y01113D01*
X023499Y01113D01*
X023499Y01113D01*
X023499Y01113D01*
X023499Y01113D01*
X02336Y011013D01*
X02336Y011013D01*
X02336Y011013D01*
X023342Y010998D01*
X023322Y010981D01*
X023321Y010981D01*
X02332Y01098D01*
X02327Y010958D01*
X023269Y010958D01*
X023269Y010958D01*
X023196Y010939D01*
X023195Y010939D01*
X023195Y010938D01*
X023195Y010938D01*
X023129Y010932D01*
X023128Y010932D01*
X023128Y010932D01*
X023036D01*
X023035Y010932D01*
X023034Y010932D01*
X022946Y010955D01*
X022946Y010955D01*
X022946Y010955D01*
X022946D01*
X022889Y010974D01*
X022888Y010974D01*
X022888Y010974D01*
X022844Y010996D01*
X022816Y011008D01*
X022815Y011009D01*
X022815Y011009D01*
X022777Y011031D01*
X022777Y011031D01*
X022776Y011031D01*
X022776Y011033D01*
X022775Y011034D01*
X022775Y011035D01*
X022774Y011035D01*
X022775Y011037D01*
X022775Y011039D01*
X022775Y011039D01*
X022775Y011039D01*
X022807Y01108D01*
X022807Y01108D01*
X022807Y01108D01*
X022839Y011115D01*
X022864Y011147D01*
X022865Y011147D01*
X022865Y011148D01*
X022912Y011189D01*
X022912Y011189D01*
X022913Y011189D01*
X022963Y011224D01*
X022964Y011224D01*
X022964Y011224D01*
X023031Y01125D01*
X023031Y01125D01*
X023032Y01125D01*
X023117Y011272D01*
X023118Y011272D01*
X023118Y011272D01*
X023204Y011276D01*
X023205Y011275D01*
D02*
G37*
G36*
X010717D02*
X010718Y011275D01*
X010803Y011256D01*
X010804Y011256D01*
X010804Y011256D01*
X010871Y011227D01*
X010871Y011227D01*
X010871Y011227D01*
X010931Y011196D01*
X010931Y011195D01*
X010931Y011195D01*
X010979Y011167D01*
X010979Y011167D01*
X01098Y011166D01*
X011012Y011138D01*
X011012Y011138D01*
X011012Y011138D01*
X011012Y011137D01*
X011012Y011137D01*
X011013Y011136D01*
X011013Y011134D01*
X011013Y011134D01*
X011013Y011134D01*
X011013Y011134D01*
X011013Y011133D01*
X011013Y011132D01*
X011012Y01113D01*
X011012Y01113D01*
X011012Y01113D01*
X011012Y01113D01*
X011011Y01113D01*
X010872Y011013D01*
X010872Y011013D01*
X010872Y011013D01*
X010855Y010998D01*
X010834Y010981D01*
X010833Y010981D01*
X010833Y01098D01*
X010782Y010958D01*
X010782Y010958D01*
X010781Y010958D01*
X010708Y010939D01*
X010708Y010939D01*
X010708Y010938D01*
X010708Y010938D01*
X010641Y010932D01*
X010641Y010932D01*
X010641Y010932D01*
X010548D01*
X010548Y010932D01*
X010547Y010932D01*
X010459Y010955D01*
X010459Y010955D01*
X010458Y010955D01*
X010458D01*
X010401Y010974D01*
X010401Y010974D01*
X010401Y010974D01*
X010356Y010996D01*
X010328Y011008D01*
X010328Y011009D01*
X010328Y011009D01*
X01029Y011031D01*
X010289Y011031D01*
X010289Y011031D01*
X010288Y011033D01*
X010287Y011034D01*
X010287Y011035D01*
X010287Y011035D01*
X010287Y011037D01*
X010288Y011039D01*
X010288Y011039D01*
X010288Y011039D01*
X01032Y01108D01*
X01032Y01108D01*
X01032Y01108D01*
X010352Y011115D01*
X010377Y011147D01*
X010377Y011147D01*
X010377Y011148D01*
X010425Y011189D01*
X010425Y011189D01*
X010425Y011189D01*
X010476Y011224D01*
X010477Y011224D01*
X010477Y011224D01*
X010544Y01125D01*
X010544Y01125D01*
X010544Y01125D01*
X01063Y011272D01*
X01063Y011272D01*
X010631Y011272D01*
X010716Y011276D01*
X010717Y011275D01*
D02*
G37*
G36*
X035942Y011712D02*
X035943Y011712D01*
X035997Y011693D01*
X035997Y011693D01*
X035998Y011693D01*
X03608Y011658D01*
X03608Y011658D01*
X036081Y011658D01*
X036112Y011639D01*
X036112Y011639D01*
X036112Y011639D01*
X036153Y011613D01*
X036154Y011613D01*
X036154Y011613D01*
X036221Y011543D01*
X036221Y011542D01*
X036222Y011542D01*
X036254Y011482D01*
X036254Y011481D01*
X036254Y011481D01*
X036267Y011443D01*
X036267Y011442D01*
X036267Y011441D01*
Y011333D01*
X036267Y011333D01*
X036267Y011333D01*
X036261Y011279D01*
X03626Y011279D01*
X036261Y011279D01*
X036254Y011234D01*
X036254Y011234D01*
X036254Y011233D01*
X036238Y011195D01*
X036238Y011195D01*
X036238Y011194D01*
X036219Y01116D01*
X036218Y011159D01*
X036218Y011159D01*
X036216Y011158D01*
X036215Y011157D01*
X036215Y011157D01*
X036214Y011157D01*
X036147D01*
X036146Y011157D01*
X036145Y011157D01*
X036044Y011202D01*
X036044Y011202D01*
X036043Y011202D01*
X035955Y011259D01*
X035954Y01126D01*
X035953Y01126D01*
X035925Y011295D01*
X035925Y011295D01*
X035924Y011296D01*
X035896Y01134D01*
X035896Y01134D01*
X035895Y011341D01*
X035864Y011423D01*
X035864Y011424D01*
X035863Y011424D01*
X035854Y011478D01*
X035854Y01148D01*
X035854Y011482D01*
X035855Y011482D01*
X035855Y011482D01*
X035856Y011483D01*
X035854Y011504D01*
X035854Y011505D01*
X035854Y011505D01*
X03586Y011552D01*
X03586Y011553D01*
X03586Y011553D01*
X035876Y011604D01*
X035876Y011604D01*
X035876Y011604D01*
X035892Y011652D01*
X035893Y011653D01*
X035893Y011653D01*
X035937Y01171D01*
X035938Y011711D01*
X035939Y011712D01*
X03594Y011712D01*
X035941Y011712D01*
X035942Y011712D01*
D02*
G37*
G36*
X023455D02*
X023456Y011712D01*
X02351Y011693D01*
X02351Y011693D01*
X02351Y011693D01*
X023593Y011658D01*
X023593Y011658D01*
X023593Y011658D01*
X023625Y011639D01*
X023625Y011639D01*
X023625Y011639D01*
X023666Y011613D01*
X023666Y011613D01*
X023667Y011613D01*
X023734Y011543D01*
X023734Y011542D01*
X023735Y011542D01*
X023766Y011482D01*
X023766Y011481D01*
X023767Y011481D01*
X023779Y011443D01*
X023779Y011442D01*
X023779Y011441D01*
Y011333D01*
X023779Y011333D01*
X023779Y011333D01*
X023773Y011279D01*
X023773Y011279D01*
X023773Y011279D01*
X023767Y011234D01*
X023766Y011234D01*
X023766Y011233D01*
X02375Y011195D01*
X02375Y011195D01*
X02375Y011194D01*
X023731Y01116D01*
X023731Y011159D01*
X02373Y011159D01*
X023729Y011158D01*
X023728Y011157D01*
X023727Y011157D01*
X023726Y011157D01*
X02366D01*
X023659Y011157D01*
X023658Y011157D01*
X023557Y011202D01*
X023556Y011202D01*
X023556Y011202D01*
X023467Y011259D01*
X023467Y01126D01*
X023466Y01126D01*
X023437Y011295D01*
X023437Y011295D01*
X023437Y011296D01*
X023409Y01134D01*
X023408Y01134D01*
X023408Y011341D01*
X023376Y011423D01*
X023376Y011424D01*
X023376Y011424D01*
X023366Y011478D01*
X023367Y01148D01*
X023367Y011482D01*
X023367Y011482D01*
X023367Y011482D01*
X023369Y011483D01*
X023366Y011504D01*
X023367Y011505D01*
X023366Y011505D01*
X023373Y011552D01*
X023373Y011553D01*
X023373Y011553D01*
X023389Y011604D01*
X023389Y011604D01*
X023389Y011604D01*
X023405Y011652D01*
X023405Y011653D01*
X023405Y011653D01*
X02345Y01171D01*
X023451Y011711D01*
X023452Y011712D01*
X023453Y011712D01*
X023453Y011712D01*
X023455Y011712D01*
D02*
G37*
G36*
X010967D02*
X010968Y011712D01*
X011022Y011693D01*
X011023Y011693D01*
X011023Y011693D01*
X011105Y011658D01*
X011105Y011658D01*
X011106Y011658D01*
X011137Y011639D01*
X011137Y011639D01*
X011138Y011639D01*
X011179Y011613D01*
X011179Y011613D01*
X01118Y011613D01*
X011246Y011543D01*
X011247Y011542D01*
X011247Y011542D01*
X011279Y011482D01*
X011279Y011481D01*
X011279Y011481D01*
X011292Y011443D01*
X011292Y011442D01*
X011292Y011441D01*
Y011333D01*
X011292Y011333D01*
X011292Y011333D01*
X011286Y011279D01*
X011286Y011279D01*
X011286Y011279D01*
X011279Y011234D01*
X011279Y011234D01*
X011279Y011233D01*
X011263Y011195D01*
X011263Y011195D01*
X011263Y011194D01*
X011244Y01116D01*
X011243Y011159D01*
X011243Y011159D01*
X011242Y011158D01*
X011241Y011157D01*
X01124Y011157D01*
X011239Y011157D01*
X011173D01*
X011172Y011157D01*
X011171Y011157D01*
X011069Y011202D01*
X011069Y011202D01*
X011068Y011202D01*
X01098Y011259D01*
X010979Y01126D01*
X010979Y01126D01*
X01095Y011295D01*
X01095Y011295D01*
X010949Y011296D01*
X010921Y01134D01*
X010921Y01134D01*
X010921Y011341D01*
X010889Y011423D01*
X010889Y011424D01*
X010889Y011424D01*
X010879Y011478D01*
X010879Y01148D01*
X01088Y011482D01*
X01088Y011482D01*
X01088Y011482D01*
X010881Y011483D01*
X010879Y011504D01*
X010879Y011505D01*
X010879Y011505D01*
X010885Y011552D01*
X010886Y011553D01*
X010886Y011553D01*
X010902Y011604D01*
X010902Y011604D01*
X010902Y011604D01*
X010917Y011652D01*
X010918Y011653D01*
X010918Y011653D01*
X010962Y01171D01*
X010963Y011711D01*
X010964Y011712D01*
X010965Y011712D01*
X010966Y011712D01*
X010967Y011712D01*
D02*
G37*
G36*
X036576Y010972D02*
X036577Y010972D01*
X036577Y010972D01*
X036578Y010972D01*
X03664Y010938D01*
X036657Y010941D01*
X036659Y01094D01*
X03666Y010941D01*
X036661Y01094D01*
X036661Y01094D01*
X036662Y010939D01*
X036663Y010938D01*
X036698Y010862D01*
X036698Y010861D01*
X036699Y01086D01*
X036718Y010717D01*
X036717Y010717D01*
X036718Y010717D01*
Y01065D01*
X036717Y01065D01*
X036717Y010649D01*
X036708Y010599D01*
X036708Y010598D01*
X036708Y010598D01*
X036686Y010535D01*
X036685Y010534D01*
X036685Y010534D01*
X03666Y010489D01*
X03666Y010489D01*
X03666Y010489D01*
X036615Y010426D01*
X036615Y010425D01*
X036615Y010425D01*
X03659Y010397D01*
X036589Y010396D01*
X036589Y010396D01*
X036554Y010368D01*
X036554Y010367D01*
X036553Y010367D01*
X036515Y010342D01*
X036515Y010342D01*
X036515Y010342D01*
X036471Y010316D01*
X036471Y010316D01*
X03647Y010316D01*
X036429Y010297D01*
X036429Y010297D01*
X036429Y010297D01*
X036362Y010278D01*
X036361Y010278D01*
X03636Y010278D01*
X036359Y010278D01*
X036358Y010278D01*
X036357Y010279D01*
X036356Y01028D01*
X036315Y01033D01*
X036315Y010331D01*
X036314Y010332D01*
X036295Y010379D01*
X036295Y010379D01*
X036295Y010379D01*
X036279Y01043D01*
X036279Y010431D01*
X036279Y010432D01*
Y010435D01*
X036276Y010501D01*
X036276Y010501D01*
X036276Y010501D01*
Y010562D01*
X036276Y010562D01*
X036276Y010563D01*
X036289Y010629D01*
X036289Y01063D01*
X036289Y01063D01*
X036314Y010697D01*
X036315Y010697D01*
X036315Y010698D01*
X036349Y010754D01*
X036368Y010789D01*
X036369Y010789D01*
X036369Y01079D01*
X036391Y010821D01*
X036391Y010821D01*
X036391Y010822D01*
X03642Y010853D01*
X03642Y010854D01*
X03642Y010854D01*
X036493Y010914D01*
X036494Y010914D01*
X036494Y010914D01*
X036573Y010971D01*
X036574Y010972D01*
X036574Y010972D01*
X036575Y010972D01*
X036576Y010973D01*
X036576Y010972D01*
D02*
G37*
G36*
X024089D02*
X024089Y010972D01*
X02409Y010972D01*
X024091Y010972D01*
X024153Y010938D01*
X02417Y010941D01*
X024171Y01094D01*
X024173Y010941D01*
X024173Y01094D01*
X024174Y01094D01*
X024175Y010939D01*
X024176Y010938D01*
X024211Y010862D01*
X024211Y010861D01*
X024211Y01086D01*
X02423Y010717D01*
X02423Y010717D01*
X02423Y010717D01*
Y01065D01*
X02423Y01065D01*
X02423Y010649D01*
X02422Y010599D01*
X02422Y010598D01*
X02422Y010598D01*
X024198Y010535D01*
X024198Y010534D01*
X024198Y010534D01*
X024172Y010489D01*
X024172Y010489D01*
X024172Y010489D01*
X024128Y010426D01*
X024128Y010425D01*
X024127Y010425D01*
X024102Y010397D01*
X024102Y010396D01*
X024101Y010396D01*
X024066Y010368D01*
X024066Y010367D01*
X024066Y010367D01*
X024028Y010342D01*
X024028Y010342D01*
X024028Y010342D01*
X023983Y010316D01*
X023983Y010316D01*
X023983Y010316D01*
X023942Y010297D01*
X023942Y010297D01*
X023941Y010297D01*
X023875Y010278D01*
X023874Y010278D01*
X023873Y010278D01*
X023872Y010278D01*
X02387Y010278D01*
X02387Y010279D01*
X023869Y01028D01*
X023828Y01033D01*
X023828Y010331D01*
X023827Y010332D01*
X023808Y010379D01*
X023808Y010379D01*
X023808Y010379D01*
X023792Y01043D01*
X023792Y010431D01*
X023792Y010432D01*
Y010435D01*
X023789Y010501D01*
X023789Y010501D01*
X023789Y010501D01*
Y010562D01*
X023789Y010562D01*
X023789Y010563D01*
X023801Y010629D01*
X023802Y01063D01*
X023802Y01063D01*
X023827Y010697D01*
X023827Y010697D01*
X023827Y010698D01*
X023862Y010754D01*
X023881Y010789D01*
X023881Y010789D01*
X023881Y01079D01*
X023904Y010821D01*
X023904Y010821D01*
X023904Y010822D01*
X023932Y010853D01*
X023933Y010854D01*
X023933Y010854D01*
X024006Y010914D01*
X024006Y010914D01*
X024006Y010914D01*
X024085Y010971D01*
X024086Y010972D01*
X024087Y010972D01*
X024088Y010972D01*
X024088Y010973D01*
X024089Y010972D01*
D02*
G37*
G36*
X011601D02*
X011602Y010972D01*
X011603Y010972D01*
X011604Y010972D01*
X011665Y010938D01*
X011682Y010941D01*
X011684Y01094D01*
X011685Y010941D01*
X011686Y01094D01*
X011686Y01094D01*
X011687Y010939D01*
X011688Y010938D01*
X011723Y010862D01*
X011723Y010861D01*
X011724Y01086D01*
X011743Y010717D01*
X011743Y010717D01*
X011743Y010717D01*
Y01065D01*
X011743Y01065D01*
X011743Y010649D01*
X011733Y010599D01*
X011733Y010598D01*
X011733Y010598D01*
X011711Y010535D01*
X01171Y010534D01*
X01171Y010534D01*
X011685Y010489D01*
X011685Y010489D01*
X011685Y010489D01*
X01164Y010426D01*
X01164Y010425D01*
X01164Y010425D01*
X011615Y010397D01*
X011614Y010396D01*
X011614Y010396D01*
X011579Y010368D01*
X011579Y010367D01*
X011579Y010367D01*
X011541Y010342D01*
X01154Y010342D01*
X01154Y010342D01*
X011496Y010316D01*
X011496Y010316D01*
X011496Y010316D01*
X011455Y010297D01*
X011454Y010297D01*
X011454Y010297D01*
X011387Y010278D01*
X011386Y010278D01*
X011385Y010278D01*
X011384Y010278D01*
X011383Y010278D01*
X011382Y010279D01*
X011381Y01028D01*
X01134Y01033D01*
X01134Y010331D01*
X01134Y010332D01*
X011321Y010379D01*
X011321Y010379D01*
X011321Y010379D01*
X011305Y01043D01*
X011305Y010431D01*
X011304Y010432D01*
Y010435D01*
X011301Y010501D01*
X011301Y010501D01*
X011301Y010501D01*
Y010562D01*
X011301Y010562D01*
X011301Y010563D01*
X011314Y010629D01*
X011314Y01063D01*
X011314Y01063D01*
X01134Y010697D01*
X01134Y010697D01*
X01134Y010698D01*
X011375Y010754D01*
X011394Y010789D01*
X011394Y010789D01*
X011394Y01079D01*
X011416Y010821D01*
X011417Y010821D01*
X011417Y010822D01*
X011445Y010853D01*
X011445Y010854D01*
X011446Y010854D01*
X011519Y010914D01*
X011519Y010914D01*
X011519Y010914D01*
X011598Y010971D01*
X011599Y010972D01*
X0116Y010972D01*
X0116Y010972D01*
X011601Y010973D01*
X011601Y010972D01*
D02*
G37*
G36*
X036145Y011102D02*
X036146Y011102D01*
X036203Y011096D01*
X036203Y011096D01*
X036203Y011096D01*
X036205Y011095D01*
X036206Y011094D01*
X036206Y011093D01*
X036207Y011093D01*
X036216Y011078D01*
X036217Y011076D01*
X036217Y011075D01*
X03622Y011054D01*
X036236Y011D01*
X036236Y011D01*
X036236Y011D01*
X036245Y010959D01*
X036245Y010959D01*
X036245Y010959D01*
X036255Y010911D01*
X036255Y010911D01*
X036255Y01091D01*
Y010872D01*
X036255Y010872D01*
X036255Y010872D01*
X036248Y010779D01*
X036248Y010778D01*
X036248Y010777D01*
X036229Y010727D01*
X036228Y010726D01*
X036228Y010726D01*
X03619Y01065D01*
X03619Y01065D01*
X03619Y010649D01*
X036139Y010592D01*
X036138Y010592D01*
X036138Y010591D01*
X036081Y010547D01*
X036081Y010547D01*
X036081Y010547D01*
X036036Y010518D01*
X036036Y010518D01*
X036036Y010518D01*
X035982Y010495D01*
X035981D01*
X035981Y010495D01*
X035934Y010483D01*
X035932Y010483D01*
X03593Y010483D01*
X03593Y010483D01*
X035929Y010483D01*
X035929Y010484D01*
X035928Y010484D01*
X035928Y010484D01*
X035928Y010484D01*
X035926Y010485D01*
X035925Y010486D01*
X035909Y010518D01*
X035899Y010539D01*
X035899Y010539D01*
X035899Y010539D01*
X035877Y010587D01*
X035877Y010587D01*
X035876Y010588D01*
X03586Y010651D01*
X03586Y010652D01*
X03586Y010652D01*
Y010713D01*
X03586Y010713D01*
X03586Y010714D01*
X03587Y010774D01*
X03587Y010774D01*
X03587Y010774D01*
X035886Y010828D01*
X035886Y010829D01*
X035886Y010829D01*
X035915Y010886D01*
X035915Y010886D01*
X035915Y010887D01*
X035954Y010948D01*
X035954Y010948D01*
X035954Y010948D01*
X035976Y010977D01*
X035977Y010977D01*
X035977Y010978D01*
X035993Y01099D01*
X036008Y011009D01*
X036009Y011009D01*
X036009Y01101D01*
X036031Y011025D01*
X036053Y011044D01*
X036053Y011044D01*
X036054Y011044D01*
X036079Y01106D01*
X03611Y011082D01*
X036111Y011082D01*
X036111Y011082D01*
X036142Y011101D01*
X036144Y011102D01*
X036145Y011102D01*
X036145Y011102D01*
D02*
G37*
G36*
X023658D02*
X023658Y011102D01*
X023715Y011096D01*
X023716Y011096D01*
X023716Y011096D01*
X023717Y011095D01*
X023719Y011094D01*
X023719Y011093D01*
X023719Y011093D01*
X023729Y011078D01*
X023729Y011076D01*
X02373Y011075D01*
X023733Y011054D01*
X023749Y011D01*
X023749Y011D01*
X023749Y011D01*
X023758Y010959D01*
X023758Y010959D01*
X023758Y010959D01*
X023768Y010911D01*
X023768Y010911D01*
X023768Y01091D01*
Y010872D01*
X023768Y010872D01*
X023768Y010872D01*
X02376Y010779D01*
X02376Y010778D01*
X02376Y010777D01*
X023741Y010727D01*
X023741Y010726D01*
X023741Y010726D01*
X023703Y01065D01*
X023702Y01065D01*
X023702Y010649D01*
X023651Y010592D01*
X023651Y010592D01*
X023651Y010591D01*
X023594Y010547D01*
X023593Y010547D01*
X023593Y010547D01*
X023549Y010518D01*
X023549Y010518D01*
X023548Y010518D01*
X023494Y010495D01*
X023494D01*
X023493Y010495D01*
X023446Y010483D01*
X023445Y010483D01*
X023443Y010483D01*
X023443Y010483D01*
X023442Y010483D01*
X023442Y010484D01*
X023441Y010484D01*
X02344Y010484D01*
X02344Y010484D01*
X023439Y010485D01*
X023438Y010486D01*
X023422Y010518D01*
X023411Y010539D01*
X023411Y010539D01*
X023411Y010539D01*
X023389Y010587D01*
X023389Y010587D01*
X023389Y010588D01*
X023373Y010651D01*
X023373Y010652D01*
X023373Y010652D01*
Y010713D01*
X023373Y010713D01*
X023373Y010714D01*
X023382Y010774D01*
X023383Y010774D01*
X023383Y010774D01*
X023398Y010828D01*
X023399Y010829D01*
X023399Y010829D01*
X023427Y010886D01*
X023427Y010886D01*
X023428Y010887D01*
X023467Y010948D01*
X023467Y010948D01*
X023467Y010948D01*
X023489Y010977D01*
X023489Y010977D01*
X02349Y010978D01*
X023505Y01099D01*
X023521Y011009D01*
X023521Y011009D01*
X023522Y01101D01*
X023544Y011025D01*
X023566Y011044D01*
X023566Y011044D01*
X023566Y011044D01*
X023591Y01106D01*
X023623Y011082D01*
X023623Y011082D01*
X023623Y011082D01*
X023655Y011101D01*
X023656Y011102D01*
X023658Y011102D01*
X023658Y011102D01*
D02*
G37*
G36*
X011171D02*
X011171Y011102D01*
X011228Y011096D01*
X011228Y011096D01*
X011229Y011096D01*
X01123Y011095D01*
X011232Y011094D01*
X011232Y011093D01*
X011232Y011093D01*
X011242Y011078D01*
X011242Y011076D01*
X011242Y011075D01*
X011245Y011054D01*
X011261Y011D01*
X011261Y011D01*
X011261Y011D01*
X011271Y010959D01*
X011271Y010959D01*
X011271Y010959D01*
X01128Y010911D01*
X01128Y010911D01*
X01128Y01091D01*
Y010872D01*
X01128Y010872D01*
X01128Y010872D01*
X011273Y010779D01*
X011273Y010778D01*
X011273Y010777D01*
X011254Y010727D01*
X011254Y010726D01*
X011254Y010726D01*
X011216Y01065D01*
X011215Y01065D01*
X011215Y010649D01*
X011164Y010592D01*
X011164Y010592D01*
X011163Y010591D01*
X011106Y010547D01*
X011106Y010547D01*
X011106Y010547D01*
X011062Y010518D01*
X011061Y010518D01*
X011061Y010518D01*
X011007Y010495D01*
X011006D01*
X011006Y010495D01*
X010959Y010483D01*
X010957Y010483D01*
X010956Y010483D01*
X010955Y010483D01*
X010955Y010483D01*
X010954Y010484D01*
X010953Y010484D01*
X010953Y010484D01*
X010953Y010484D01*
X010952Y010485D01*
X01095Y010486D01*
X010934Y010518D01*
X010924Y010539D01*
X010924Y010539D01*
X010924Y010539D01*
X010902Y010587D01*
X010902Y010587D01*
X010901Y010588D01*
X010885Y010651D01*
X010886Y010652D01*
X010885Y010652D01*
Y010713D01*
X010885Y010713D01*
X010885Y010714D01*
X010895Y010774D01*
X010895Y010774D01*
X010895Y010774D01*
X010911Y010828D01*
X010911Y010829D01*
X010911Y010829D01*
X01094Y010886D01*
X01094Y010886D01*
X01094Y010887D01*
X010979Y010948D01*
X010979Y010948D01*
X010979Y010948D01*
X011001Y010977D01*
X011002Y010977D01*
X011002Y010978D01*
X011018Y01099D01*
X011033Y011009D01*
X011034Y011009D01*
X011034Y01101D01*
X011056Y011025D01*
X011078Y011044D01*
X011079Y011044D01*
X011079Y011044D01*
X011104Y01106D01*
X011136Y011082D01*
X011136Y011082D01*
X011136Y011082D01*
X011168Y011101D01*
X011169Y011102D01*
X01117Y011102D01*
X011171Y011102D01*
D02*
G37*
D22*
X038224Y010738D02*
X038523D01*
Y010887D01*
X038474Y010937D01*
X038274D01*
X038224Y010887D01*
Y010738D01*
X038474Y011037D02*
X038523Y011087D01*
Y011187D01*
X038474Y011237D01*
X038274D01*
X038224Y011187D01*
Y011087D01*
X038274Y011037D01*
X038324D01*
X038374Y011087D01*
Y011237D01*
X039163Y010738D02*
X039463D01*
Y010887D01*
X039413Y010937D01*
X039213D01*
X039163Y010887D01*
Y010738D01*
X039213Y011037D02*
X039163Y011087D01*
Y011187D01*
X039213Y011237D01*
X039263D01*
X039313Y011187D01*
X039363Y011237D01*
X039413D01*
X039463Y011187D01*
Y011087D01*
X039413Y011037D01*
X039363D01*
X039313Y011087D01*
X039263Y011037D01*
X039213D01*
X039313Y011087D02*
Y011187D01*
X038993Y010738D02*
X038693D01*
Y010888D01*
X038743Y010938D01*
X038843D01*
X038893Y010888D01*
Y010738D01*
Y010838D02*
X038993Y010938D01*
Y011187D02*
X038693D01*
X038843Y011037D01*
Y011237D01*
X038743Y011337D02*
X038693Y011387D01*
Y011487D01*
X038743Y011537D01*
X038943D01*
X038993Y011487D01*
Y011387D01*
X038943Y011337D01*
X038743D01*
X038054Y010738D02*
X037754D01*
Y010888D01*
X037804Y010938D01*
X037904D01*
X037954Y010888D01*
Y010738D01*
Y010838D02*
X038054Y010938D01*
Y011187D02*
X037754D01*
X037904Y011037D01*
Y011237D01*
X037804Y011337D02*
X037754Y011387D01*
Y011487D01*
X037804Y011537D01*
X037854D01*
X037904Y011487D01*
Y011437D01*
Y011487D01*
X037954Y011537D01*
X038004D01*
X038054Y011487D01*
Y011387D01*
X038004Y011337D01*
X035252Y020204D02*
X035202Y020154D01*
Y020054D01*
X035252Y020004D01*
X035452D01*
X035502Y020054D01*
Y020154D01*
X035452Y020204D01*
X035352D01*
Y020104D01*
X035502Y020304D02*
X035202D01*
X035502Y020504D01*
X035202D01*
Y020604D02*
X035502D01*
Y020754D01*
X035452Y020804D01*
X035252D01*
X035202Y020754D01*
Y020604D01*
X035343Y019127D02*
Y019327D01*
X035243Y019227D02*
X035443D01*
X035193Y019627D02*
Y019427D01*
X035343D01*
X035293Y019527D01*
Y019577D01*
X035343Y019627D01*
X035443D01*
X035493Y019577D01*
Y019477D01*
X035443Y019427D01*
X038893Y023668D02*
X038843Y023618D01*
X038743D01*
X038693Y023668D01*
Y023718D01*
X038743Y023767D01*
X038793D01*
X038743D01*
X038693Y023817D01*
Y023867D01*
X038743Y023917D01*
X038843D01*
X038893Y023867D01*
X038593Y023917D02*
Y023867D01*
X038543D01*
Y023917D01*
X038593D01*
X038343Y023668D02*
X038293Y023618D01*
X038193D01*
X038143Y023668D01*
Y023718D01*
X038193Y023767D01*
X038243D01*
X038193D01*
X038143Y023817D01*
Y023867D01*
X038193Y023917D01*
X038293D01*
X038343Y023867D01*
X039793Y023668D02*
X039843Y023618D01*
X039943D01*
X039993Y023668D01*
Y023867D01*
X039943Y023917D01*
X039843D01*
X039793Y023867D01*
X039693Y023618D02*
Y023917D01*
X039493D01*
X039393Y023618D02*
Y023917D01*
Y023817D01*
X039193Y023618D01*
X039343Y023767D01*
X039193Y023917D01*
X040893Y023668D02*
X040943Y023618D01*
X041043D01*
X041093Y023668D01*
Y023867D01*
X041043Y023917D01*
X040943D01*
X040893Y023867D01*
Y023767D01*
X040993D01*
X040793Y023917D02*
Y023618D01*
X040593Y023917D01*
Y023618D01*
X040493D02*
Y023917D01*
X040343D01*
X040293Y023867D01*
Y023668D01*
X040343Y023618D01*
X040493D01*
X042143D02*
Y023917D01*
X041993D01*
X041943Y023867D01*
Y023668D01*
X041993Y023618D01*
X042143D01*
X041843D02*
X041743D01*
X041793D01*
Y023917D01*
X041843D01*
X041743D01*
X041443Y023618D02*
X041543D01*
X041593Y023668D01*
Y023867D01*
X041543Y023917D01*
X041443D01*
X041393Y023867D01*
Y023668D01*
X041443Y023618D01*
X043243Y023668D02*
X043293Y023618D01*
X043393D01*
X043443Y023668D01*
Y023867D01*
X043393Y023917D01*
X043293D01*
X043243Y023867D01*
Y023767D01*
X043343D01*
X043143Y023917D02*
Y023618D01*
X042943Y023917D01*
Y023618D01*
X042843D02*
Y023917D01*
X042693D01*
X042643Y023867D01*
Y023668D01*
X042693Y023618D01*
X042843D01*
X044299Y023668D02*
X044349Y023618D01*
X044449D01*
X044499Y023668D01*
Y023718D01*
X044449Y023767D01*
X044349D01*
X044299Y023817D01*
Y023867D01*
X044349Y023917D01*
X044449D01*
X044499Y023867D01*
X044199Y023618D02*
Y023917D01*
X044049D01*
X043999Y023867D01*
Y023668D01*
X044049Y023618D01*
X044199D01*
X043899Y023917D02*
Y023718D01*
X043799Y023618D01*
X043699Y023718D01*
Y023917D01*
Y023767D01*
X043899D01*
X045355Y023668D02*
X045405Y023618D01*
X045505D01*
X045555Y023668D01*
Y023718D01*
X045505Y023767D01*
X045405D01*
X045355Y023817D01*
Y023867D01*
X045405Y023917D01*
X045505D01*
X045555Y023867D01*
X045055Y023668D02*
X045105Y023618D01*
X045205D01*
X045255Y023668D01*
Y023867D01*
X045205Y023917D01*
X045105D01*
X045055Y023867D01*
X044955Y023618D02*
Y023917D01*
X044755D01*
X046561Y023668D02*
X046511Y023618D01*
X046411D01*
X046361Y023668D01*
Y023718D01*
X046411Y023767D01*
X046461D01*
X046411D01*
X046361Y023817D01*
Y023867D01*
X046411Y023917D01*
X046511D01*
X046561Y023867D01*
X046261Y023917D02*
Y023867D01*
X046211D01*
Y023917D01*
X046261D01*
X046011Y023668D02*
X045961Y023618D01*
X045861D01*
X045811Y023668D01*
Y023718D01*
X045861Y023767D01*
X045911D01*
X045861D01*
X045811Y023817D01*
Y023867D01*
X045861Y023917D01*
X045961D01*
X046011Y023867D01*
X046243Y016827D02*
X046543D01*
Y016977D01*
X046493Y017027D01*
X046293D01*
X046243Y016977D01*
Y016827D01*
X046293Y017327D02*
X046243Y017277D01*
Y017177D01*
X046293Y017127D01*
X046493D01*
X046543Y017177D01*
Y017277D01*
X046493Y017327D01*
X046393D01*
Y017227D01*
X046543Y017427D02*
Y017527D01*
Y017477D01*
X046243D01*
X046293Y017427D01*
X046243Y020127D02*
X046543D01*
Y020277D01*
X046493Y020327D01*
X046293D01*
X046243Y020277D01*
Y020127D01*
X046293Y020627D02*
X046243Y020577D01*
Y020477D01*
X046293Y020427D01*
X046493D01*
X046543Y020477D01*
Y020577D01*
X046493Y020627D01*
X046393D01*
Y020527D01*
X046543Y020877D02*
X046243D01*
X046393Y020727D01*
Y020927D01*
X046243Y018977D02*
X046543D01*
Y019127D01*
X046493Y019177D01*
X046293D01*
X046243Y019127D01*
Y018977D01*
X046293Y019477D02*
X046243Y019427D01*
Y019327D01*
X046293Y019277D01*
X046493D01*
X046543Y019327D01*
Y019427D01*
X046493Y019477D01*
X046393D01*
Y019377D01*
X046293Y019577D02*
X046243Y019627D01*
Y019727D01*
X046293Y019777D01*
X046343D01*
X046393Y019727D01*
Y019677D01*
Y019727D01*
X046443Y019777D01*
X046493D01*
X046543Y019727D01*
Y019627D01*
X046493Y019577D01*
X046243Y017877D02*
X046543D01*
Y018027D01*
X046493Y018077D01*
X046293D01*
X046243Y018027D01*
Y017877D01*
X046293Y018377D02*
X046243Y018327D01*
Y018227D01*
X046293Y018177D01*
X046493D01*
X046543Y018227D01*
Y018327D01*
X046493Y018377D01*
X046393D01*
Y018277D01*
X046543Y018677D02*
Y018477D01*
X046343Y018677D01*
X046293D01*
X046243Y018627D01*
Y018527D01*
X046293Y018477D01*
X046543Y016027D02*
X046343D01*
X046243Y016127D01*
X046343Y016227D01*
X046543D01*
X046393D01*
Y016027D01*
X046293Y016327D02*
X046243Y016377D01*
Y016477D01*
X046293Y016527D01*
X046343D01*
X046393Y016477D01*
Y016427D01*
Y016477D01*
X046443Y016527D01*
X046493D01*
X046543Y016477D01*
Y016377D01*
X046493Y016327D01*
X046543Y015227D02*
X046343D01*
X046243Y015327D01*
X046343Y015427D01*
X046543D01*
X046393D01*
Y015227D01*
X046543Y015727D02*
Y015527D01*
X046343Y015727D01*
X046293D01*
X046243Y015677D01*
Y015577D01*
X046293Y015527D01*
X046543Y014577D02*
X046343D01*
X046243Y014677D01*
X046343Y014777D01*
X046543D01*
X046393D01*
Y014577D01*
X046543Y014877D02*
Y014977D01*
Y014927D01*
X046243D01*
X046293Y014877D01*
X046543Y013827D02*
X046343D01*
X046243Y013927D01*
X046343Y014027D01*
X046543D01*
X046393D01*
Y013827D01*
X046293Y014127D02*
X046243Y014177D01*
Y014277D01*
X046293Y014327D01*
X046493D01*
X046543Y014277D01*
Y014177D01*
X046493Y014127D01*
X046293D01*
X044813Y011801D02*
Y011501D01*
X044663D01*
X044613Y011551D01*
Y011651D01*
X044663Y011701D01*
X044813D01*
X044713D02*
X044613Y011801D01*
X044313Y011551D02*
X044363Y011501D01*
X044463D01*
X044513Y011551D01*
Y011601D01*
X044463Y011651D01*
X044363D01*
X044313Y011701D01*
Y011751D01*
X044363Y011801D01*
X044463D01*
X044513Y011751D01*
X044213Y011501D02*
X044013D01*
X044113D01*
Y011801D01*
X039624Y018703D02*
X039674Y018653D01*
X039774D01*
X039824Y018703D01*
Y018903D01*
X039774Y018953D01*
X039674D01*
X039624Y018903D01*
X039524Y018953D02*
X039424D01*
X039474D01*
Y018653D01*
X039524Y018703D01*
X039274D02*
X039224Y018653D01*
X039124D01*
X039074Y018703D01*
Y018753D01*
X039124Y018803D01*
X039174D01*
X039124D01*
X039074Y018853D01*
Y018903D01*
X039124Y018953D01*
X039224D01*
X039274Y018903D01*
X042073Y012422D02*
X042023Y012373D01*
Y012273D01*
X042073Y012223D01*
X042273D01*
X042323Y012273D01*
Y012373D01*
X042273Y012422D01*
X042323Y012522D02*
Y012622D01*
Y012572D01*
X042023D01*
X042073Y012522D01*
X042323Y012972D02*
Y012772D01*
X042123Y012972D01*
X042073D01*
X042023Y012922D01*
Y012822D01*
X042073Y012772D01*
X041073Y014297D02*
X041123Y014247D01*
X041223D01*
X041273Y014297D01*
Y014497D01*
X041223Y014547D01*
X041123D01*
X041073Y014497D01*
X040773Y014547D02*
X040973D01*
X040773Y014347D01*
Y014297D01*
X040823Y014247D01*
X040923D01*
X040973Y014297D01*
X035273Y015072D02*
X035223Y015023D01*
Y014923D01*
X035273Y014873D01*
X035473D01*
X035523Y014923D01*
Y015023D01*
X035473Y015072D01*
X035523Y015172D02*
Y015272D01*
Y015222D01*
X035223D01*
X035273Y015172D01*
X035223Y015622D02*
X035273Y015522D01*
X035373Y015422D01*
X035473D01*
X035523Y015472D01*
Y015572D01*
X035473Y015622D01*
X035423D01*
X035373Y015572D01*
Y015422D01*
X035273Y014072D02*
X035223Y014023D01*
Y013923D01*
X035273Y013873D01*
X035473D01*
X035523Y013923D01*
Y014023D01*
X035473Y014072D01*
X035523Y014172D02*
Y014272D01*
Y014222D01*
X035223D01*
X035273Y014172D01*
X035223Y014622D02*
Y014422D01*
X035373D01*
X035323Y014522D01*
Y014572D01*
X035373Y014622D01*
X035473D01*
X035523Y014572D01*
Y014472D01*
X035473Y014422D01*
X039223Y012997D02*
X039273Y012947D01*
X039373D01*
X039423Y012997D01*
Y013197D01*
X039373Y013247D01*
X039273D01*
X039223Y013197D01*
X038973Y013247D02*
Y012947D01*
X039123Y013097D01*
X038923D01*
X039223Y013697D02*
X039273Y013647D01*
X039373D01*
X039423Y013697D01*
Y013897D01*
X039373Y013947D01*
X039273D01*
X039223Y013897D01*
X039123Y013697D02*
X039073Y013647D01*
X038973D01*
X038923Y013697D01*
Y013747D01*
X038973Y013797D01*
X039023D01*
X038973D01*
X038923Y013847D01*
Y013897D01*
X038973Y013947D01*
X039073D01*
X039123Y013897D01*
X042923Y010697D02*
X043223Y010897D01*
X042923D02*
X043223Y010697D01*
Y010997D02*
Y011097D01*
Y011047D01*
X042923D01*
X042973Y010997D01*
X040373Y019098D02*
X040623D01*
X040673Y019147D01*
Y019247D01*
X040623Y019297D01*
X040373D01*
Y019597D02*
X040423Y019497D01*
X040523Y019397D01*
X040623D01*
X040673Y019447D01*
Y019547D01*
X040623Y019597D01*
X040573D01*
X040523Y019547D01*
Y019397D01*
X039123Y016023D02*
Y016123D01*
Y016073D01*
X039423D01*
Y016023D01*
Y016123D01*
X039173Y016472D02*
X039123Y016422D01*
Y016322D01*
X039173Y016272D01*
X039373D01*
X039423Y016322D01*
Y016422D01*
X039373Y016472D01*
X039423Y016772D02*
Y016572D01*
X039223Y016772D01*
X039173D01*
X039123Y016722D01*
Y016622D01*
X039173Y016572D01*
X039624Y019453D02*
X039674Y019403D01*
X039774D01*
X039824Y019453D01*
Y019653D01*
X039774Y019703D01*
X039674D01*
X039624Y019653D01*
X039524Y019703D02*
X039424D01*
X039474D01*
Y019403D01*
X039524Y019453D01*
X039124Y019703D02*
Y019403D01*
X039274Y019553D01*
X039074D01*
X040518Y012227D02*
X040568Y012177D01*
X040668D01*
X040718Y012227D01*
Y012427D01*
X040668Y012477D01*
X040568D01*
X040518Y012427D01*
X040418Y012477D02*
X040318D01*
X040368D01*
Y012177D01*
X040418Y012227D01*
X040168Y012477D02*
X040068D01*
X040118D01*
Y012177D01*
X040168Y012227D01*
X040658Y011407D02*
X040708Y011357D01*
X040808D01*
X040858Y011407D01*
Y011607D01*
X040808Y011657D01*
X040708D01*
X040658Y011607D01*
X040558Y011657D02*
X040458D01*
X040508D01*
Y011357D01*
X040558Y011407D01*
X040308D02*
X040258Y011357D01*
X040158D01*
X040108Y011407D01*
Y011607D01*
X040158Y011657D01*
X040258D01*
X040308Y011607D01*
Y011407D01*
X042973Y014207D02*
X043023Y014157D01*
X043123D01*
X043173Y014207D01*
Y014407D01*
X043123Y014457D01*
X043023D01*
X042973Y014407D01*
X042873D02*
X042823Y014457D01*
X042723D01*
X042673Y014407D01*
Y014207D01*
X042723Y014157D01*
X042823D01*
X042873Y014207D01*
Y014257D01*
X042823Y014307D01*
X042673D01*
X042973Y013447D02*
X043023Y013397D01*
X043123D01*
X043173Y013447D01*
Y013647D01*
X043123Y013697D01*
X043023D01*
X042973Y013647D01*
X042873Y013447D02*
X042823Y013397D01*
X042723D01*
X042673Y013447D01*
Y013497D01*
X042723Y013547D01*
X042673Y013597D01*
Y013647D01*
X042723Y013697D01*
X042823D01*
X042873Y013647D01*
Y013597D01*
X042823Y013547D01*
X042873Y013497D01*
Y013447D01*
X042823Y013547D02*
X042723D01*
X042023Y020747D02*
X042073Y020697D01*
X042173D01*
X042223Y020747D01*
Y020947D01*
X042173Y020997D01*
X042073D01*
X042023Y020947D01*
X041923Y020697D02*
X041723D01*
Y020747D01*
X041923Y020947D01*
Y020997D01*
X042023Y020097D02*
X042073Y020047D01*
X042173D01*
X042223Y020097D01*
Y020297D01*
X042173Y020347D01*
X042073D01*
X042023Y020297D01*
X041723Y020047D02*
X041823Y020097D01*
X041923Y020197D01*
Y020297D01*
X041873Y020347D01*
X041773D01*
X041723Y020297D01*
Y020247D01*
X041773Y020197D01*
X041923D01*
X041973Y019347D02*
X042023Y019297D01*
X042123D01*
X042173Y019347D01*
Y019547D01*
X042123Y019597D01*
X042023D01*
X041973Y019547D01*
X041673Y019297D02*
X041873D01*
Y019447D01*
X041773Y019397D01*
X041723D01*
X041673Y019447D01*
Y019547D01*
X041723Y019597D01*
X041823D01*
X041873Y019547D01*
X038224Y025575D02*
X038523D01*
Y025725D01*
X038474Y025775D01*
X038274D01*
X038224Y025725D01*
Y025575D01*
X038474Y025875D02*
X038523Y025925D01*
Y026025D01*
X038474Y026075D01*
X038274D01*
X038224Y026025D01*
Y025925D01*
X038274Y025875D01*
X038324D01*
X038374Y025925D01*
Y026075D01*
X039163Y025575D02*
X039463D01*
Y025725D01*
X039413Y025775D01*
X039213D01*
X039163Y025725D01*
Y025575D01*
X039213Y025875D02*
X039163Y025925D01*
Y026025D01*
X039213Y026075D01*
X039263D01*
X039313Y026025D01*
X039363Y026075D01*
X039413D01*
X039463Y026025D01*
Y025925D01*
X039413Y025875D01*
X039363D01*
X039313Y025925D01*
X039263Y025875D01*
X039213D01*
X039313Y025925D02*
Y026025D01*
X038993Y025575D02*
X038693D01*
Y025725D01*
X038743Y025775D01*
X038843D01*
X038893Y025725D01*
Y025575D01*
Y025675D02*
X038993Y025775D01*
Y026025D02*
X038693D01*
X038843Y025875D01*
Y026075D01*
X038743Y026175D02*
X038693Y026225D01*
Y026325D01*
X038743Y026375D01*
X038943D01*
X038993Y026325D01*
Y026225D01*
X038943Y026175D01*
X038743D01*
X038054Y025575D02*
X037754D01*
Y025725D01*
X037804Y025775D01*
X037904D01*
X037954Y025725D01*
Y025575D01*
Y025675D02*
X038054Y025775D01*
Y026025D02*
X037754D01*
X037904Y025875D01*
Y026075D01*
X037804Y026175D02*
X037754Y026225D01*
Y026325D01*
X037804Y026375D01*
X037854D01*
X037904Y026325D01*
Y026275D01*
Y026325D01*
X037954Y026375D01*
X038004D01*
X038054Y026325D01*
Y026225D01*
X038004Y026175D01*
X035252Y035042D02*
X035202Y034992D01*
Y034892D01*
X035252Y034842D01*
X035452D01*
X035502Y034892D01*
Y034992D01*
X035452Y035042D01*
X035352D01*
Y034942D01*
X035502Y035142D02*
X035202D01*
X035502Y035342D01*
X035202D01*
Y035442D02*
X035502D01*
Y035591D01*
X035452Y035641D01*
X035252D01*
X035202Y035591D01*
Y035442D01*
X035343Y033965D02*
Y034165D01*
X035243Y034065D02*
X035443D01*
X035193Y034465D02*
Y034265D01*
X035343D01*
X035293Y034365D01*
Y034415D01*
X035343Y034465D01*
X035443D01*
X035493Y034415D01*
Y034315D01*
X035443Y034265D01*
X038893Y038505D02*
X038843Y038455D01*
X038743D01*
X038693Y038505D01*
Y038555D01*
X038743Y038605D01*
X038793D01*
X038743D01*
X038693Y038655D01*
Y038705D01*
X038743Y038755D01*
X038843D01*
X038893Y038705D01*
X038593Y038755D02*
Y038705D01*
X038543D01*
Y038755D01*
X038593D01*
X038343Y038505D02*
X038293Y038455D01*
X038193D01*
X038143Y038505D01*
Y038555D01*
X038193Y038605D01*
X038243D01*
X038193D01*
X038143Y038655D01*
Y038705D01*
X038193Y038755D01*
X038293D01*
X038343Y038705D01*
X039793Y038505D02*
X039843Y038455D01*
X039943D01*
X039993Y038505D01*
Y038705D01*
X039943Y038755D01*
X039843D01*
X039793Y038705D01*
X039693Y038455D02*
Y038755D01*
X039493D01*
X039393Y038455D02*
Y038755D01*
Y038655D01*
X039193Y038455D01*
X039343Y038605D01*
X039193Y038755D01*
X040893Y038505D02*
X040943Y038455D01*
X041043D01*
X041093Y038505D01*
Y038705D01*
X041043Y038755D01*
X040943D01*
X040893Y038705D01*
Y038605D01*
X040993D01*
X040793Y038755D02*
Y038455D01*
X040593Y038755D01*
Y038455D01*
X040493D02*
Y038755D01*
X040343D01*
X040293Y038705D01*
Y038505D01*
X040343Y038455D01*
X040493D01*
X042143D02*
Y038755D01*
X041993D01*
X041943Y038705D01*
Y038505D01*
X041993Y038455D01*
X042143D01*
X041843D02*
X041743D01*
X041793D01*
Y038755D01*
X041843D01*
X041743D01*
X041443Y038455D02*
X041543D01*
X041593Y038505D01*
Y038705D01*
X041543Y038755D01*
X041443D01*
X041393Y038705D01*
Y038505D01*
X041443Y038455D01*
X043243Y038505D02*
X043293Y038455D01*
X043393D01*
X043443Y038505D01*
Y038705D01*
X043393Y038755D01*
X043293D01*
X043243Y038705D01*
Y038605D01*
X043343D01*
X043143Y038755D02*
Y038455D01*
X042943Y038755D01*
Y038455D01*
X042843D02*
Y038755D01*
X042693D01*
X042643Y038705D01*
Y038505D01*
X042693Y038455D01*
X042843D01*
X044299Y038505D02*
X044349Y038455D01*
X044449D01*
X044499Y038505D01*
Y038555D01*
X044449Y038605D01*
X044349D01*
X044299Y038655D01*
Y038705D01*
X044349Y038755D01*
X044449D01*
X044499Y038705D01*
X044199Y038455D02*
Y038755D01*
X044049D01*
X043999Y038705D01*
Y038505D01*
X044049Y038455D01*
X044199D01*
X043899Y038755D02*
Y038555D01*
X043799Y038455D01*
X043699Y038555D01*
Y038755D01*
Y038605D01*
X043899D01*
X045355Y038505D02*
X045405Y038455D01*
X045505D01*
X045555Y038505D01*
Y038555D01*
X045505Y038605D01*
X045405D01*
X045355Y038655D01*
Y038705D01*
X045405Y038755D01*
X045505D01*
X045555Y038705D01*
X045055Y038505D02*
X045105Y038455D01*
X045205D01*
X045255Y038505D01*
Y038705D01*
X045205Y038755D01*
X045105D01*
X045055Y038705D01*
X044955Y038455D02*
Y038755D01*
X044755D01*
X046561Y038505D02*
X046511Y038455D01*
X046411D01*
X046361Y038505D01*
Y038555D01*
X046411Y038605D01*
X046461D01*
X046411D01*
X046361Y038655D01*
Y038705D01*
X046411Y038755D01*
X046511D01*
X046561Y038705D01*
X046261Y038755D02*
Y038705D01*
X046211D01*
Y038755D01*
X046261D01*
X046011Y038505D02*
X045961Y038455D01*
X045861D01*
X045811Y038505D01*
Y038555D01*
X045861Y038605D01*
X045911D01*
X045861D01*
X045811Y038655D01*
Y038705D01*
X045861Y038755D01*
X045961D01*
X046011Y038705D01*
X046243Y031665D02*
X046543D01*
Y031815D01*
X046493Y031865D01*
X046293D01*
X046243Y031815D01*
Y031665D01*
X046293Y032165D02*
X046243Y032115D01*
Y032015D01*
X046293Y031965D01*
X046493D01*
X046543Y032015D01*
Y032115D01*
X046493Y032165D01*
X046393D01*
Y032065D01*
X046543Y032265D02*
Y032365D01*
Y032315D01*
X046243D01*
X046293Y032265D01*
X046243Y034965D02*
X046543D01*
Y035115D01*
X046493Y035165D01*
X046293D01*
X046243Y035115D01*
Y034965D01*
X046293Y035465D02*
X046243Y035415D01*
Y035315D01*
X046293Y035265D01*
X046493D01*
X046543Y035315D01*
Y035415D01*
X046493Y035465D01*
X046393D01*
Y035365D01*
X046543Y035715D02*
X046243D01*
X046393Y035565D01*
Y035765D01*
X046243Y033815D02*
X046543D01*
Y033965D01*
X046493Y034015D01*
X046293D01*
X046243Y033965D01*
Y033815D01*
X046293Y034315D02*
X046243Y034265D01*
Y034165D01*
X046293Y034115D01*
X046493D01*
X046543Y034165D01*
Y034265D01*
X046493Y034315D01*
X046393D01*
Y034215D01*
X046293Y034415D02*
X046243Y034465D01*
Y034565D01*
X046293Y034615D01*
X046343D01*
X046393Y034565D01*
Y034515D01*
Y034565D01*
X046443Y034615D01*
X046493D01*
X046543Y034565D01*
Y034465D01*
X046493Y034415D01*
X046243Y032715D02*
X046543D01*
Y032865D01*
X046493Y032915D01*
X046293D01*
X046243Y032865D01*
Y032715D01*
X046293Y033215D02*
X046243Y033165D01*
Y033065D01*
X046293Y033015D01*
X046493D01*
X046543Y033065D01*
Y033165D01*
X046493Y033215D01*
X046393D01*
Y033115D01*
X046543Y033515D02*
Y033315D01*
X046343Y033515D01*
X046293D01*
X046243Y033465D01*
Y033365D01*
X046293Y033315D01*
X046543Y030865D02*
X046343D01*
X046243Y030965D01*
X046343Y031065D01*
X046543D01*
X046393D01*
Y030865D01*
X046293Y031165D02*
X046243Y031215D01*
Y031315D01*
X046293Y031365D01*
X046343D01*
X046393Y031315D01*
Y031265D01*
Y031315D01*
X046443Y031365D01*
X046493D01*
X046543Y031315D01*
Y031215D01*
X046493Y031165D01*
X046543Y030065D02*
X046343D01*
X046243Y030165D01*
X046343Y030265D01*
X046543D01*
X046393D01*
Y030065D01*
X046543Y030565D02*
Y030365D01*
X046343Y030565D01*
X046293D01*
X046243Y030515D01*
Y030415D01*
X046293Y030365D01*
X046543Y029415D02*
X046343D01*
X046243Y029515D01*
X046343Y029615D01*
X046543D01*
X046393D01*
Y029415D01*
X046543Y029715D02*
Y029815D01*
Y029765D01*
X046243D01*
X046293Y029715D01*
X046543Y028665D02*
X046343D01*
X046243Y028765D01*
X046343Y028865D01*
X046543D01*
X046393D01*
Y028665D01*
X046293Y028965D02*
X046243Y029015D01*
Y029115D01*
X046293Y029165D01*
X046493D01*
X046543Y029115D01*
Y029015D01*
X046493Y028965D01*
X046293D01*
X044813Y026638D02*
Y026338D01*
X044663D01*
X044613Y026388D01*
Y026488D01*
X044663Y026538D01*
X044813D01*
X044713D02*
X044613Y026638D01*
X044313Y026388D02*
X044363Y026338D01*
X044463D01*
X044513Y026388D01*
Y026438D01*
X044463Y026488D01*
X044363D01*
X044313Y026538D01*
Y026588D01*
X044363Y026638D01*
X044463D01*
X044513Y026588D01*
X044213Y026338D02*
X044013D01*
X044113D01*
Y026638D01*
X039624Y033541D02*
X039674Y033491D01*
X039774D01*
X039824Y033541D01*
Y033741D01*
X039774Y033791D01*
X039674D01*
X039624Y033741D01*
X039524Y033791D02*
X039424D01*
X039474D01*
Y033491D01*
X039524Y033541D01*
X039274D02*
X039224Y033491D01*
X039124D01*
X039074Y033541D01*
Y033591D01*
X039124Y033641D01*
X039174D01*
X039124D01*
X039074Y033691D01*
Y033741D01*
X039124Y033791D01*
X039224D01*
X039274Y033741D01*
X042073Y02726D02*
X042023Y02721D01*
Y02711D01*
X042073Y02706D01*
X042273D01*
X042323Y02711D01*
Y02721D01*
X042273Y02726D01*
X042323Y02736D02*
Y02746D01*
Y02741D01*
X042023D01*
X042073Y02736D01*
X042323Y02781D02*
Y02761D01*
X042123Y02781D01*
X042073D01*
X042023Y02776D01*
Y02766D01*
X042073Y02761D01*
X041073Y029135D02*
X041123Y029085D01*
X041223D01*
X041273Y029135D01*
Y029335D01*
X041223Y029385D01*
X041123D01*
X041073Y029335D01*
X040773Y029385D02*
X040973D01*
X040773Y029185D01*
Y029135D01*
X040823Y029085D01*
X040923D01*
X040973Y029135D01*
X035273Y02991D02*
X035223Y02986D01*
Y02976D01*
X035273Y02971D01*
X035473D01*
X035523Y02976D01*
Y02986D01*
X035473Y02991D01*
X035523Y03001D02*
Y03011D01*
Y03006D01*
X035223D01*
X035273Y03001D01*
X035223Y03046D02*
X035273Y03036D01*
X035373Y03026D01*
X035473D01*
X035523Y03031D01*
Y03041D01*
X035473Y03046D01*
X035423D01*
X035373Y03041D01*
Y03026D01*
X035273Y02891D02*
X035223Y02886D01*
Y02876D01*
X035273Y02871D01*
X035473D01*
X035523Y02876D01*
Y02886D01*
X035473Y02891D01*
X035523Y02901D02*
Y02911D01*
Y02906D01*
X035223D01*
X035273Y02901D01*
X035223Y02946D02*
Y02926D01*
X035373D01*
X035323Y02936D01*
Y02941D01*
X035373Y02946D01*
X035473D01*
X035523Y02941D01*
Y02931D01*
X035473Y02926D01*
X039223Y027835D02*
X039273Y027785D01*
X039373D01*
X039423Y027835D01*
Y028035D01*
X039373Y028085D01*
X039273D01*
X039223Y028035D01*
X038973Y028085D02*
Y027785D01*
X039123Y027935D01*
X038923D01*
X039223Y028535D02*
X039273Y028485D01*
X039373D01*
X039423Y028535D01*
Y028735D01*
X039373Y028785D01*
X039273D01*
X039223Y028735D01*
X039123Y028535D02*
X039073Y028485D01*
X038973D01*
X038923Y028535D01*
Y028585D01*
X038973Y028635D01*
X039023D01*
X038973D01*
X038923Y028685D01*
Y028735D01*
X038973Y028785D01*
X039073D01*
X039123Y028735D01*
X042923Y025535D02*
X043223Y025735D01*
X042923D02*
X043223Y025535D01*
Y025835D02*
Y025935D01*
Y025885D01*
X042923D01*
X042973Y025835D01*
X040373Y033935D02*
X040623D01*
X040673Y033985D01*
Y034085D01*
X040623Y034135D01*
X040373D01*
Y034435D02*
X040423Y034335D01*
X040523Y034235D01*
X040623D01*
X040673Y034285D01*
Y034385D01*
X040623Y034435D01*
X040573D01*
X040523Y034385D01*
Y034235D01*
X039123Y03086D02*
Y03096D01*
Y03091D01*
X039423D01*
Y03086D01*
Y03096D01*
X039173Y03131D02*
X039123Y03126D01*
Y03116D01*
X039173Y03111D01*
X039373D01*
X039423Y03116D01*
Y03126D01*
X039373Y03131D01*
X039423Y03161D02*
Y03141D01*
X039223Y03161D01*
X039173D01*
X039123Y03156D01*
Y03146D01*
X039173Y03141D01*
X039624Y034291D02*
X039674Y034241D01*
X039774D01*
X039824Y034291D01*
Y034491D01*
X039774Y034541D01*
X039674D01*
X039624Y034491D01*
X039524Y034541D02*
X039424D01*
X039474D01*
Y034241D01*
X039524Y034291D01*
X039124Y034541D02*
Y034241D01*
X039274Y034391D01*
X039074D01*
X040518Y027065D02*
X040568Y027015D01*
X040668D01*
X040718Y027065D01*
Y027265D01*
X040668Y027315D01*
X040568D01*
X040518Y027265D01*
X040418Y027315D02*
X040318D01*
X040368D01*
Y027015D01*
X040418Y027065D01*
X040168Y027315D02*
X040068D01*
X040118D01*
Y027015D01*
X040168Y027065D01*
X040658Y026245D02*
X040708Y026195D01*
X040808D01*
X040858Y026245D01*
Y026445D01*
X040808Y026495D01*
X040708D01*
X040658Y026445D01*
X040558Y026495D02*
X040458D01*
X040508D01*
Y026195D01*
X040558Y026245D01*
X040308D02*
X040258Y026195D01*
X040158D01*
X040108Y026245D01*
Y026445D01*
X040158Y026495D01*
X040258D01*
X040308Y026445D01*
Y026245D01*
X042973Y029045D02*
X043023Y028995D01*
X043123D01*
X043173Y029045D01*
Y029245D01*
X043123Y029295D01*
X043023D01*
X042973Y029245D01*
X042873D02*
X042823Y029295D01*
X042723D01*
X042673Y029245D01*
Y029045D01*
X042723Y028995D01*
X042823D01*
X042873Y029045D01*
Y029095D01*
X042823Y029145D01*
X042673D01*
X042973Y028285D02*
X043023Y028235D01*
X043123D01*
X043173Y028285D01*
Y028485D01*
X043123Y028535D01*
X043023D01*
X042973Y028485D01*
X042873Y028285D02*
X042823Y028235D01*
X042723D01*
X042673Y028285D01*
Y028335D01*
X042723Y028385D01*
X042673Y028435D01*
Y028485D01*
X042723Y028535D01*
X042823D01*
X042873Y028485D01*
Y028435D01*
X042823Y028385D01*
X042873Y028335D01*
Y028285D01*
X042823Y028385D02*
X042723D01*
X042023Y035585D02*
X042073Y035535D01*
X042173D01*
X042223Y035585D01*
Y035785D01*
X042173Y035835D01*
X042073D01*
X042023Y035785D01*
X041923Y035535D02*
X041723D01*
Y035585D01*
X041923Y035785D01*
Y035835D01*
X042023Y034935D02*
X042073Y034885D01*
X042173D01*
X042223Y034935D01*
Y035135D01*
X042173Y035185D01*
X042073D01*
X042023Y035135D01*
X041723Y034885D02*
X041823Y034935D01*
X041923Y035035D01*
Y035135D01*
X041873Y035185D01*
X041773D01*
X041723Y035135D01*
Y035085D01*
X041773Y035035D01*
X041923D01*
X041973Y034185D02*
X042023Y034135D01*
X042123D01*
X042173Y034185D01*
Y034385D01*
X042123Y034435D01*
X042023D01*
X041973Y034385D01*
X041673Y034135D02*
X041873D01*
Y034285D01*
X041773Y034235D01*
X041723D01*
X041673Y034285D01*
Y034385D01*
X041723Y034435D01*
X041823D01*
X041873Y034385D01*
X025736Y010738D02*
X026036D01*
Y010887D01*
X025986Y010937D01*
X025786D01*
X025736Y010887D01*
Y010738D01*
X025986Y011037D02*
X026036Y011087D01*
Y011187D01*
X025986Y011237D01*
X025786D01*
X025736Y011187D01*
Y011087D01*
X025786Y011037D01*
X025836D01*
X025886Y011087D01*
Y011237D01*
X026676Y010738D02*
X026976D01*
Y010887D01*
X026926Y010937D01*
X026726D01*
X026676Y010887D01*
Y010738D01*
X026726Y011037D02*
X026676Y011087D01*
Y011187D01*
X026726Y011237D01*
X026776D01*
X026826Y011187D01*
X026876Y011237D01*
X026926D01*
X026976Y011187D01*
Y011087D01*
X026926Y011037D01*
X026876D01*
X026826Y011087D01*
X026776Y011037D01*
X026726D01*
X026826Y011087D02*
Y011187D01*
X026506Y010738D02*
X026206D01*
Y010888D01*
X026256Y010938D01*
X026356D01*
X026406Y010888D01*
Y010738D01*
Y010838D02*
X026506Y010938D01*
Y011187D02*
X026206D01*
X026356Y011037D01*
Y011237D01*
X026256Y011337D02*
X026206Y011387D01*
Y011487D01*
X026256Y011537D01*
X026456D01*
X026506Y011487D01*
Y011387D01*
X026456Y011337D01*
X026256D01*
X025566Y010738D02*
X025266D01*
Y010888D01*
X025316Y010938D01*
X025416D01*
X025466Y010888D01*
Y010738D01*
Y010838D02*
X025566Y010938D01*
Y011187D02*
X025266D01*
X025416Y011037D01*
Y011237D01*
X025316Y011337D02*
X025266Y011387D01*
Y011487D01*
X025316Y011537D01*
X025366D01*
X025416Y011487D01*
Y011437D01*
Y011487D01*
X025466Y011537D01*
X025516D01*
X025566Y011487D01*
Y011387D01*
X025516Y011337D01*
X022765Y020204D02*
X022715Y020154D01*
Y020054D01*
X022765Y020004D01*
X022965D01*
X023015Y020054D01*
Y020154D01*
X022965Y020204D01*
X022865D01*
Y020104D01*
X023015Y020304D02*
X022715D01*
X023015Y020504D01*
X022715D01*
Y020604D02*
X023015D01*
Y020754D01*
X022965Y020804D01*
X022765D01*
X022715Y020754D01*
Y020604D01*
X022856Y019127D02*
Y019327D01*
X022756Y019227D02*
X022956D01*
X022706Y019627D02*
Y019427D01*
X022856D01*
X022806Y019527D01*
Y019577D01*
X022856Y019627D01*
X022956D01*
X023006Y019577D01*
Y019477D01*
X022956Y019427D01*
X026406Y023668D02*
X026356Y023618D01*
X026256D01*
X026206Y023668D01*
Y023718D01*
X026256Y023767D01*
X026306D01*
X026256D01*
X026206Y023817D01*
Y023867D01*
X026256Y023917D01*
X026356D01*
X026406Y023867D01*
X026106Y023917D02*
Y023867D01*
X026056D01*
Y023917D01*
X026106D01*
X025856Y023668D02*
X025806Y023618D01*
X025706D01*
X025656Y023668D01*
Y023718D01*
X025706Y023767D01*
X025756D01*
X025706D01*
X025656Y023817D01*
Y023867D01*
X025706Y023917D01*
X025806D01*
X025856Y023867D01*
X027306Y023668D02*
X027356Y023618D01*
X027456D01*
X027506Y023668D01*
Y023867D01*
X027456Y023917D01*
X027356D01*
X027306Y023867D01*
X027206Y023618D02*
Y023917D01*
X027006D01*
X026906Y023618D02*
Y023917D01*
Y023817D01*
X026706Y023618D01*
X026856Y023767D01*
X026706Y023917D01*
X028406Y023668D02*
X028456Y023618D01*
X028556D01*
X028606Y023668D01*
Y023867D01*
X028556Y023917D01*
X028456D01*
X028406Y023867D01*
Y023767D01*
X028506D01*
X028306Y023917D02*
Y023618D01*
X028106Y023917D01*
Y023618D01*
X028006D02*
Y023917D01*
X027856D01*
X027806Y023867D01*
Y023668D01*
X027856Y023618D01*
X028006D01*
X029656D02*
Y023917D01*
X029506D01*
X029456Y023867D01*
Y023668D01*
X029506Y023618D01*
X029656D01*
X029356D02*
X029256D01*
X029306D01*
Y023917D01*
X029356D01*
X029256D01*
X028956Y023618D02*
X029056D01*
X029106Y023668D01*
Y023867D01*
X029056Y023917D01*
X028956D01*
X028906Y023867D01*
Y023668D01*
X028956Y023618D01*
X030756Y023668D02*
X030806Y023618D01*
X030906D01*
X030956Y023668D01*
Y023867D01*
X030906Y023917D01*
X030806D01*
X030756Y023867D01*
Y023767D01*
X030856D01*
X030656Y023917D02*
Y023618D01*
X030456Y023917D01*
Y023618D01*
X030356D02*
Y023917D01*
X030206D01*
X030156Y023867D01*
Y023668D01*
X030206Y023618D01*
X030356D01*
X031812Y023668D02*
X031862Y023618D01*
X031962D01*
X032012Y023668D01*
Y023718D01*
X031962Y023767D01*
X031862D01*
X031812Y023817D01*
Y023867D01*
X031862Y023917D01*
X031962D01*
X032012Y023867D01*
X031712Y023618D02*
Y023917D01*
X031562D01*
X031512Y023867D01*
Y023668D01*
X031562Y023618D01*
X031712D01*
X031412Y023917D02*
Y023718D01*
X031312Y023618D01*
X031212Y023718D01*
Y023917D01*
Y023767D01*
X031412D01*
X032867Y023668D02*
X032917Y023618D01*
X033017D01*
X033067Y023668D01*
Y023718D01*
X033017Y023767D01*
X032917D01*
X032867Y023817D01*
Y023867D01*
X032917Y023917D01*
X033017D01*
X033067Y023867D01*
X032568Y023668D02*
X032618Y023618D01*
X032717D01*
X032767Y023668D01*
Y023867D01*
X032717Y023917D01*
X032618D01*
X032568Y023867D01*
X032468Y023618D02*
Y023917D01*
X032268D01*
X034073Y023668D02*
X034023Y023618D01*
X033923D01*
X033873Y023668D01*
Y023718D01*
X033923Y023767D01*
X033973D01*
X033923D01*
X033873Y023817D01*
Y023867D01*
X033923Y023917D01*
X034023D01*
X034073Y023867D01*
X033773Y023917D02*
Y023867D01*
X033723D01*
Y023917D01*
X033773D01*
X033523Y023668D02*
X033473Y023618D01*
X033373D01*
X033323Y023668D01*
Y023718D01*
X033373Y023767D01*
X033423D01*
X033373D01*
X033323Y023817D01*
Y023867D01*
X033373Y023917D01*
X033473D01*
X033523Y023867D01*
X033756Y016827D02*
X034056D01*
Y016977D01*
X034006Y017027D01*
X033806D01*
X033756Y016977D01*
Y016827D01*
X033806Y017327D02*
X033756Y017277D01*
Y017177D01*
X033806Y017127D01*
X034006D01*
X034056Y017177D01*
Y017277D01*
X034006Y017327D01*
X033906D01*
Y017227D01*
X034056Y017427D02*
Y017527D01*
Y017477D01*
X033756D01*
X033806Y017427D01*
X033756Y020127D02*
X034056D01*
Y020277D01*
X034006Y020327D01*
X033806D01*
X033756Y020277D01*
Y020127D01*
X033806Y020627D02*
X033756Y020577D01*
Y020477D01*
X033806Y020427D01*
X034006D01*
X034056Y020477D01*
Y020577D01*
X034006Y020627D01*
X033906D01*
Y020527D01*
X034056Y020877D02*
X033756D01*
X033906Y020727D01*
Y020927D01*
X033756Y018977D02*
X034056D01*
Y019127D01*
X034006Y019177D01*
X033806D01*
X033756Y019127D01*
Y018977D01*
X033806Y019477D02*
X033756Y019427D01*
Y019327D01*
X033806Y019277D01*
X034006D01*
X034056Y019327D01*
Y019427D01*
X034006Y019477D01*
X033906D01*
Y019377D01*
X033806Y019577D02*
X033756Y019627D01*
Y019727D01*
X033806Y019777D01*
X033856D01*
X033906Y019727D01*
Y019677D01*
Y019727D01*
X033956Y019777D01*
X034006D01*
X034056Y019727D01*
Y019627D01*
X034006Y019577D01*
X033756Y017877D02*
X034056D01*
Y018027D01*
X034006Y018077D01*
X033806D01*
X033756Y018027D01*
Y017877D01*
X033806Y018377D02*
X033756Y018327D01*
Y018227D01*
X033806Y018177D01*
X034006D01*
X034056Y018227D01*
Y018327D01*
X034006Y018377D01*
X033906D01*
Y018277D01*
X034056Y018677D02*
Y018477D01*
X033856Y018677D01*
X033806D01*
X033756Y018627D01*
Y018527D01*
X033806Y018477D01*
X034056Y016027D02*
X033856D01*
X033756Y016127D01*
X033856Y016227D01*
X034056D01*
X033906D01*
Y016027D01*
X033806Y016327D02*
X033756Y016377D01*
Y016477D01*
X033806Y016527D01*
X033856D01*
X033906Y016477D01*
Y016427D01*
Y016477D01*
X033956Y016527D01*
X034006D01*
X034056Y016477D01*
Y016377D01*
X034006Y016327D01*
X034056Y015227D02*
X033856D01*
X033756Y015327D01*
X033856Y015427D01*
X034056D01*
X033906D01*
Y015227D01*
X034056Y015727D02*
Y015527D01*
X033856Y015727D01*
X033806D01*
X033756Y015677D01*
Y015577D01*
X033806Y015527D01*
X034056Y014577D02*
X033856D01*
X033756Y014677D01*
X033856Y014777D01*
X034056D01*
X033906D01*
Y014577D01*
X034056Y014877D02*
Y014977D01*
Y014927D01*
X033756D01*
X033806Y014877D01*
X034056Y013827D02*
X033856D01*
X033756Y013927D01*
X033856Y014027D01*
X034056D01*
X033906D01*
Y013827D01*
X033806Y014127D02*
X033756Y014177D01*
Y014277D01*
X033806Y014327D01*
X034006D01*
X034056Y014277D01*
Y014177D01*
X034006Y014127D01*
X033806D01*
X032326Y011801D02*
Y011501D01*
X032176D01*
X032126Y011551D01*
Y011651D01*
X032176Y011701D01*
X032326D01*
X032226D02*
X032126Y011801D01*
X031826Y011551D02*
X031876Y011501D01*
X031976D01*
X032026Y011551D01*
Y011601D01*
X031976Y011651D01*
X031876D01*
X031826Y011701D01*
Y011751D01*
X031876Y011801D01*
X031976D01*
X032026Y011751D01*
X031726Y011501D02*
X031526D01*
X031626D01*
Y011801D01*
X027137Y018703D02*
X027187Y018653D01*
X027287D01*
X027337Y018703D01*
Y018903D01*
X027287Y018953D01*
X027187D01*
X027137Y018903D01*
X027037Y018953D02*
X026937D01*
X026987D01*
Y018653D01*
X027037Y018703D01*
X026787D02*
X026737Y018653D01*
X026637D01*
X026587Y018703D01*
Y018753D01*
X026637Y018803D01*
X026687D01*
X026637D01*
X026587Y018853D01*
Y018903D01*
X026637Y018953D01*
X026737D01*
X026787Y018903D01*
X029586Y012422D02*
X029536Y012373D01*
Y012273D01*
X029586Y012223D01*
X029786D01*
X029836Y012273D01*
Y012373D01*
X029786Y012422D01*
X029836Y012522D02*
Y012622D01*
Y012572D01*
X029536D01*
X029586Y012522D01*
X029836Y012972D02*
Y012772D01*
X029636Y012972D01*
X029586D01*
X029536Y012922D01*
Y012822D01*
X029586Y012772D01*
X028586Y014297D02*
X028636Y014247D01*
X028736D01*
X028786Y014297D01*
Y014497D01*
X028736Y014547D01*
X028636D01*
X028586Y014497D01*
X028286Y014547D02*
X028486D01*
X028286Y014347D01*
Y014297D01*
X028336Y014247D01*
X028436D01*
X028486Y014297D01*
X022786Y015072D02*
X022736Y015023D01*
Y014923D01*
X022786Y014873D01*
X022986D01*
X023036Y014923D01*
Y015023D01*
X022986Y015072D01*
X023036Y015172D02*
Y015272D01*
Y015222D01*
X022736D01*
X022786Y015172D01*
X022736Y015622D02*
X022786Y015522D01*
X022886Y015422D01*
X022986D01*
X023036Y015472D01*
Y015572D01*
X022986Y015622D01*
X022936D01*
X022886Y015572D01*
Y015422D01*
X022786Y014072D02*
X022736Y014023D01*
Y013923D01*
X022786Y013873D01*
X022986D01*
X023036Y013923D01*
Y014023D01*
X022986Y014072D01*
X023036Y014172D02*
Y014272D01*
Y014222D01*
X022736D01*
X022786Y014172D01*
X022736Y014622D02*
Y014422D01*
X022886D01*
X022836Y014522D01*
Y014572D01*
X022886Y014622D01*
X022986D01*
X023036Y014572D01*
Y014472D01*
X022986Y014422D01*
X026736Y012997D02*
X026786Y012947D01*
X026886D01*
X026936Y012997D01*
Y013197D01*
X026886Y013247D01*
X026786D01*
X026736Y013197D01*
X026486Y013247D02*
Y012947D01*
X026636Y013097D01*
X026436D01*
X026736Y013697D02*
X026786Y013647D01*
X026886D01*
X026936Y013697D01*
Y013897D01*
X026886Y013947D01*
X026786D01*
X026736Y013897D01*
X026636Y013697D02*
X026586Y013647D01*
X026486D01*
X026436Y013697D01*
Y013747D01*
X026486Y013797D01*
X026536D01*
X026486D01*
X026436Y013847D01*
Y013897D01*
X026486Y013947D01*
X026586D01*
X026636Y013897D01*
X030436Y010697D02*
X030736Y010897D01*
X030436D02*
X030736Y010697D01*
Y010997D02*
Y011097D01*
Y011047D01*
X030436D01*
X030486Y010997D01*
X027886Y019098D02*
X028136D01*
X028186Y019147D01*
Y019247D01*
X028136Y019297D01*
X027886D01*
Y019597D02*
X027936Y019497D01*
X028036Y019397D01*
X028136D01*
X028186Y019447D01*
Y019547D01*
X028136Y019597D01*
X028086D01*
X028036Y019547D01*
Y019397D01*
X026636Y016023D02*
Y016123D01*
Y016073D01*
X026936D01*
Y016023D01*
Y016123D01*
X026686Y016472D02*
X026636Y016422D01*
Y016322D01*
X026686Y016272D01*
X026886D01*
X026936Y016322D01*
Y016422D01*
X026886Y016472D01*
X026936Y016772D02*
Y016572D01*
X026736Y016772D01*
X026686D01*
X026636Y016722D01*
Y016622D01*
X026686Y016572D01*
X027137Y019453D02*
X027187Y019403D01*
X027287D01*
X027337Y019453D01*
Y019653D01*
X027287Y019703D01*
X027187D01*
X027137Y019653D01*
X027037Y019703D02*
X026937D01*
X026987D01*
Y019403D01*
X027037Y019453D01*
X026637Y019703D02*
Y019403D01*
X026787Y019553D01*
X026587D01*
X028031Y012227D02*
X028081Y012177D01*
X028181D01*
X028231Y012227D01*
Y012427D01*
X028181Y012477D01*
X028081D01*
X028031Y012427D01*
X027931Y012477D02*
X027831D01*
X027881D01*
Y012177D01*
X027931Y012227D01*
X027681Y012477D02*
X027581D01*
X027631D01*
Y012177D01*
X027681Y012227D01*
X028171Y011407D02*
X028221Y011357D01*
X028321D01*
X028371Y011407D01*
Y011607D01*
X028321Y011657D01*
X028221D01*
X028171Y011607D01*
X028071Y011657D02*
X027971D01*
X028021D01*
Y011357D01*
X028071Y011407D01*
X027821D02*
X027771Y011357D01*
X027671D01*
X027621Y011407D01*
Y011607D01*
X027671Y011657D01*
X027771D01*
X027821Y011607D01*
Y011407D01*
X030486Y014207D02*
X030536Y014157D01*
X030636D01*
X030686Y014207D01*
Y014407D01*
X030636Y014457D01*
X030536D01*
X030486Y014407D01*
X030386D02*
X030336Y014457D01*
X030236D01*
X030186Y014407D01*
Y014207D01*
X030236Y014157D01*
X030336D01*
X030386Y014207D01*
Y014257D01*
X030336Y014307D01*
X030186D01*
X030486Y013447D02*
X030536Y013397D01*
X030636D01*
X030686Y013447D01*
Y013647D01*
X030636Y013697D01*
X030536D01*
X030486Y013647D01*
X030386Y013447D02*
X030336Y013397D01*
X030236D01*
X030186Y013447D01*
Y013497D01*
X030236Y013547D01*
X030186Y013597D01*
Y013647D01*
X030236Y013697D01*
X030336D01*
X030386Y013647D01*
Y013597D01*
X030336Y013547D01*
X030386Y013497D01*
Y013447D01*
X030336Y013547D02*
X030236D01*
X029536Y020747D02*
X029586Y020697D01*
X029686D01*
X029736Y020747D01*
Y020947D01*
X029686Y020997D01*
X029586D01*
X029536Y020947D01*
X029436Y020697D02*
X029236D01*
Y020747D01*
X029436Y020947D01*
Y020997D01*
X029536Y020097D02*
X029586Y020047D01*
X029686D01*
X029736Y020097D01*
Y020297D01*
X029686Y020347D01*
X029586D01*
X029536Y020297D01*
X029236Y020047D02*
X029336Y020097D01*
X029436Y020197D01*
Y020297D01*
X029386Y020347D01*
X029286D01*
X029236Y020297D01*
Y020247D01*
X029286Y020197D01*
X029436D01*
X029486Y019347D02*
X029536Y019297D01*
X029636D01*
X029686Y019347D01*
Y019547D01*
X029636Y019597D01*
X029536D01*
X029486Y019547D01*
X029186Y019297D02*
X029386D01*
Y019447D01*
X029286Y019397D01*
X029236D01*
X029186Y019447D01*
Y019547D01*
X029236Y019597D01*
X029336D01*
X029386Y019547D01*
X025736Y025575D02*
X026036D01*
Y025725D01*
X025986Y025775D01*
X025786D01*
X025736Y025725D01*
Y025575D01*
X025986Y025875D02*
X026036Y025925D01*
Y026025D01*
X025986Y026075D01*
X025786D01*
X025736Y026025D01*
Y025925D01*
X025786Y025875D01*
X025836D01*
X025886Y025925D01*
Y026075D01*
X026676Y025575D02*
X026976D01*
Y025725D01*
X026926Y025775D01*
X026726D01*
X026676Y025725D01*
Y025575D01*
X026726Y025875D02*
X026676Y025925D01*
Y026025D01*
X026726Y026075D01*
X026776D01*
X026826Y026025D01*
X026876Y026075D01*
X026926D01*
X026976Y026025D01*
Y025925D01*
X026926Y025875D01*
X026876D01*
X026826Y025925D01*
X026776Y025875D01*
X026726D01*
X026826Y025925D02*
Y026025D01*
X026506Y025575D02*
X026206D01*
Y025725D01*
X026256Y025775D01*
X026356D01*
X026406Y025725D01*
Y025575D01*
Y025675D02*
X026506Y025775D01*
Y026025D02*
X026206D01*
X026356Y025875D01*
Y026075D01*
X026256Y026175D02*
X026206Y026225D01*
Y026325D01*
X026256Y026375D01*
X026456D01*
X026506Y026325D01*
Y026225D01*
X026456Y026175D01*
X026256D01*
X025566Y025575D02*
X025266D01*
Y025725D01*
X025316Y025775D01*
X025416D01*
X025466Y025725D01*
Y025575D01*
Y025675D02*
X025566Y025775D01*
Y026025D02*
X025266D01*
X025416Y025875D01*
Y026075D01*
X025316Y026175D02*
X025266Y026225D01*
Y026325D01*
X025316Y026375D01*
X025366D01*
X025416Y026325D01*
Y026275D01*
Y026325D01*
X025466Y026375D01*
X025516D01*
X025566Y026325D01*
Y026225D01*
X025516Y026175D01*
X022765Y035042D02*
X022715Y034992D01*
Y034892D01*
X022765Y034842D01*
X022965D01*
X023015Y034892D01*
Y034992D01*
X022965Y035042D01*
X022865D01*
Y034942D01*
X023015Y035142D02*
X022715D01*
X023015Y035342D01*
X022715D01*
Y035442D02*
X023015D01*
Y035591D01*
X022965Y035641D01*
X022765D01*
X022715Y035591D01*
Y035442D01*
X022856Y033965D02*
Y034165D01*
X022756Y034065D02*
X022956D01*
X022706Y034465D02*
Y034265D01*
X022856D01*
X022806Y034365D01*
Y034415D01*
X022856Y034465D01*
X022956D01*
X023006Y034415D01*
Y034315D01*
X022956Y034265D01*
X026406Y038505D02*
X026356Y038455D01*
X026256D01*
X026206Y038505D01*
Y038555D01*
X026256Y038605D01*
X026306D01*
X026256D01*
X026206Y038655D01*
Y038705D01*
X026256Y038755D01*
X026356D01*
X026406Y038705D01*
X026106Y038755D02*
Y038705D01*
X026056D01*
Y038755D01*
X026106D01*
X025856Y038505D02*
X025806Y038455D01*
X025706D01*
X025656Y038505D01*
Y038555D01*
X025706Y038605D01*
X025756D01*
X025706D01*
X025656Y038655D01*
Y038705D01*
X025706Y038755D01*
X025806D01*
X025856Y038705D01*
X027306Y038505D02*
X027356Y038455D01*
X027456D01*
X027506Y038505D01*
Y038705D01*
X027456Y038755D01*
X027356D01*
X027306Y038705D01*
X027206Y038455D02*
Y038755D01*
X027006D01*
X026906Y038455D02*
Y038755D01*
Y038655D01*
X026706Y038455D01*
X026856Y038605D01*
X026706Y038755D01*
X028406Y038505D02*
X028456Y038455D01*
X028556D01*
X028606Y038505D01*
Y038705D01*
X028556Y038755D01*
X028456D01*
X028406Y038705D01*
Y038605D01*
X028506D01*
X028306Y038755D02*
Y038455D01*
X028106Y038755D01*
Y038455D01*
X028006D02*
Y038755D01*
X027856D01*
X027806Y038705D01*
Y038505D01*
X027856Y038455D01*
X028006D01*
X029656D02*
Y038755D01*
X029506D01*
X029456Y038705D01*
Y038505D01*
X029506Y038455D01*
X029656D01*
X029356D02*
X029256D01*
X029306D01*
Y038755D01*
X029356D01*
X029256D01*
X028956Y038455D02*
X029056D01*
X029106Y038505D01*
Y038705D01*
X029056Y038755D01*
X028956D01*
X028906Y038705D01*
Y038505D01*
X028956Y038455D01*
X030756Y038505D02*
X030806Y038455D01*
X030906D01*
X030956Y038505D01*
Y038705D01*
X030906Y038755D01*
X030806D01*
X030756Y038705D01*
Y038605D01*
X030856D01*
X030656Y038755D02*
Y038455D01*
X030456Y038755D01*
Y038455D01*
X030356D02*
Y038755D01*
X030206D01*
X030156Y038705D01*
Y038505D01*
X030206Y038455D01*
X030356D01*
X031812Y038505D02*
X031862Y038455D01*
X031962D01*
X032012Y038505D01*
Y038555D01*
X031962Y038605D01*
X031862D01*
X031812Y038655D01*
Y038705D01*
X031862Y038755D01*
X031962D01*
X032012Y038705D01*
X031712Y038455D02*
Y038755D01*
X031562D01*
X031512Y038705D01*
Y038505D01*
X031562Y038455D01*
X031712D01*
X031412Y038755D02*
Y038555D01*
X031312Y038455D01*
X031212Y038555D01*
Y038755D01*
Y038605D01*
X031412D01*
X032867Y038505D02*
X032917Y038455D01*
X033017D01*
X033067Y038505D01*
Y038555D01*
X033017Y038605D01*
X032917D01*
X032867Y038655D01*
Y038705D01*
X032917Y038755D01*
X033017D01*
X033067Y038705D01*
X032568Y038505D02*
X032618Y038455D01*
X032717D01*
X032767Y038505D01*
Y038705D01*
X032717Y038755D01*
X032618D01*
X032568Y038705D01*
X032468Y038455D02*
Y038755D01*
X032268D01*
X034073Y038505D02*
X034023Y038455D01*
X033923D01*
X033873Y038505D01*
Y038555D01*
X033923Y038605D01*
X033973D01*
X033923D01*
X033873Y038655D01*
Y038705D01*
X033923Y038755D01*
X034023D01*
X034073Y038705D01*
X033773Y038755D02*
Y038705D01*
X033723D01*
Y038755D01*
X033773D01*
X033523Y038505D02*
X033473Y038455D01*
X033373D01*
X033323Y038505D01*
Y038555D01*
X033373Y038605D01*
X033423D01*
X033373D01*
X033323Y038655D01*
Y038705D01*
X033373Y038755D01*
X033473D01*
X033523Y038705D01*
X033756Y031665D02*
X034056D01*
Y031815D01*
X034006Y031865D01*
X033806D01*
X033756Y031815D01*
Y031665D01*
X033806Y032165D02*
X033756Y032115D01*
Y032015D01*
X033806Y031965D01*
X034006D01*
X034056Y032015D01*
Y032115D01*
X034006Y032165D01*
X033906D01*
Y032065D01*
X034056Y032265D02*
Y032365D01*
Y032315D01*
X033756D01*
X033806Y032265D01*
X033756Y034965D02*
X034056D01*
Y035115D01*
X034006Y035165D01*
X033806D01*
X033756Y035115D01*
Y034965D01*
X033806Y035465D02*
X033756Y035415D01*
Y035315D01*
X033806Y035265D01*
X034006D01*
X034056Y035315D01*
Y035415D01*
X034006Y035465D01*
X033906D01*
Y035365D01*
X034056Y035715D02*
X033756D01*
X033906Y035565D01*
Y035765D01*
X033756Y033815D02*
X034056D01*
Y033965D01*
X034006Y034015D01*
X033806D01*
X033756Y033965D01*
Y033815D01*
X033806Y034315D02*
X033756Y034265D01*
Y034165D01*
X033806Y034115D01*
X034006D01*
X034056Y034165D01*
Y034265D01*
X034006Y034315D01*
X033906D01*
Y034215D01*
X033806Y034415D02*
X033756Y034465D01*
Y034565D01*
X033806Y034615D01*
X033856D01*
X033906Y034565D01*
Y034515D01*
Y034565D01*
X033956Y034615D01*
X034006D01*
X034056Y034565D01*
Y034465D01*
X034006Y034415D01*
X033756Y032715D02*
X034056D01*
Y032865D01*
X034006Y032915D01*
X033806D01*
X033756Y032865D01*
Y032715D01*
X033806Y033215D02*
X033756Y033165D01*
Y033065D01*
X033806Y033015D01*
X034006D01*
X034056Y033065D01*
Y033165D01*
X034006Y033215D01*
X033906D01*
Y033115D01*
X034056Y033515D02*
Y033315D01*
X033856Y033515D01*
X033806D01*
X033756Y033465D01*
Y033365D01*
X033806Y033315D01*
X034056Y030865D02*
X033856D01*
X033756Y030965D01*
X033856Y031065D01*
X034056D01*
X033906D01*
Y030865D01*
X033806Y031165D02*
X033756Y031215D01*
Y031315D01*
X033806Y031365D01*
X033856D01*
X033906Y031315D01*
Y031265D01*
Y031315D01*
X033956Y031365D01*
X034006D01*
X034056Y031315D01*
Y031215D01*
X034006Y031165D01*
X034056Y030065D02*
X033856D01*
X033756Y030165D01*
X033856Y030265D01*
X034056D01*
X033906D01*
Y030065D01*
X034056Y030565D02*
Y030365D01*
X033856Y030565D01*
X033806D01*
X033756Y030515D01*
Y030415D01*
X033806Y030365D01*
X034056Y029415D02*
X033856D01*
X033756Y029515D01*
X033856Y029615D01*
X034056D01*
X033906D01*
Y029415D01*
X034056Y029715D02*
Y029815D01*
Y029765D01*
X033756D01*
X033806Y029715D01*
X034056Y028665D02*
X033856D01*
X033756Y028765D01*
X033856Y028865D01*
X034056D01*
X033906D01*
Y028665D01*
X033806Y028965D02*
X033756Y029015D01*
Y029115D01*
X033806Y029165D01*
X034006D01*
X034056Y029115D01*
Y029015D01*
X034006Y028965D01*
X033806D01*
X032326Y026638D02*
Y026338D01*
X032176D01*
X032126Y026388D01*
Y026488D01*
X032176Y026538D01*
X032326D01*
X032226D02*
X032126Y026638D01*
X031826Y026388D02*
X031876Y026338D01*
X031976D01*
X032026Y026388D01*
Y026438D01*
X031976Y026488D01*
X031876D01*
X031826Y026538D01*
Y026588D01*
X031876Y026638D01*
X031976D01*
X032026Y026588D01*
X031726Y026338D02*
X031526D01*
X031626D01*
Y026638D01*
X027137Y033541D02*
X027187Y033491D01*
X027287D01*
X027337Y033541D01*
Y033741D01*
X027287Y033791D01*
X027187D01*
X027137Y033741D01*
X027037Y033791D02*
X026937D01*
X026987D01*
Y033491D01*
X027037Y033541D01*
X026787D02*
X026737Y033491D01*
X026637D01*
X026587Y033541D01*
Y033591D01*
X026637Y033641D01*
X026687D01*
X026637D01*
X026587Y033691D01*
Y033741D01*
X026637Y033791D01*
X026737D01*
X026787Y033741D01*
X029586Y02726D02*
X029536Y02721D01*
Y02711D01*
X029586Y02706D01*
X029786D01*
X029836Y02711D01*
Y02721D01*
X029786Y02726D01*
X029836Y02736D02*
Y02746D01*
Y02741D01*
X029536D01*
X029586Y02736D01*
X029836Y02781D02*
Y02761D01*
X029636Y02781D01*
X029586D01*
X029536Y02776D01*
Y02766D01*
X029586Y02761D01*
X028586Y029135D02*
X028636Y029085D01*
X028736D01*
X028786Y029135D01*
Y029335D01*
X028736Y029385D01*
X028636D01*
X028586Y029335D01*
X028286Y029385D02*
X028486D01*
X028286Y029185D01*
Y029135D01*
X028336Y029085D01*
X028436D01*
X028486Y029135D01*
X022786Y02991D02*
X022736Y02986D01*
Y02976D01*
X022786Y02971D01*
X022986D01*
X023036Y02976D01*
Y02986D01*
X022986Y02991D01*
X023036Y03001D02*
Y03011D01*
Y03006D01*
X022736D01*
X022786Y03001D01*
X022736Y03046D02*
X022786Y03036D01*
X022886Y03026D01*
X022986D01*
X023036Y03031D01*
Y03041D01*
X022986Y03046D01*
X022936D01*
X022886Y03041D01*
Y03026D01*
X022786Y02891D02*
X022736Y02886D01*
Y02876D01*
X022786Y02871D01*
X022986D01*
X023036Y02876D01*
Y02886D01*
X022986Y02891D01*
X023036Y02901D02*
Y02911D01*
Y02906D01*
X022736D01*
X022786Y02901D01*
X022736Y02946D02*
Y02926D01*
X022886D01*
X022836Y02936D01*
Y02941D01*
X022886Y02946D01*
X022986D01*
X023036Y02941D01*
Y02931D01*
X022986Y02926D01*
X026736Y027835D02*
X026786Y027785D01*
X026886D01*
X026936Y027835D01*
Y028035D01*
X026886Y028085D01*
X026786D01*
X026736Y028035D01*
X026486Y028085D02*
Y027785D01*
X026636Y027935D01*
X026436D01*
X026736Y028535D02*
X026786Y028485D01*
X026886D01*
X026936Y028535D01*
Y028735D01*
X026886Y028785D01*
X026786D01*
X026736Y028735D01*
X026636Y028535D02*
X026586Y028485D01*
X026486D01*
X026436Y028535D01*
Y028585D01*
X026486Y028635D01*
X026536D01*
X026486D01*
X026436Y028685D01*
Y028735D01*
X026486Y028785D01*
X026586D01*
X026636Y028735D01*
X030436Y025535D02*
X030736Y025735D01*
X030436D02*
X030736Y025535D01*
Y025835D02*
Y025935D01*
Y025885D01*
X030436D01*
X030486Y025835D01*
X027886Y033935D02*
X028136D01*
X028186Y033985D01*
Y034085D01*
X028136Y034135D01*
X027886D01*
Y034435D02*
X027936Y034335D01*
X028036Y034235D01*
X028136D01*
X028186Y034285D01*
Y034385D01*
X028136Y034435D01*
X028086D01*
X028036Y034385D01*
Y034235D01*
X026636Y03086D02*
Y03096D01*
Y03091D01*
X026936D01*
Y03086D01*
Y03096D01*
X026686Y03131D02*
X026636Y03126D01*
Y03116D01*
X026686Y03111D01*
X026886D01*
X026936Y03116D01*
Y03126D01*
X026886Y03131D01*
X026936Y03161D02*
Y03141D01*
X026736Y03161D01*
X026686D01*
X026636Y03156D01*
Y03146D01*
X026686Y03141D01*
X027137Y034291D02*
X027187Y034241D01*
X027287D01*
X027337Y034291D01*
Y034491D01*
X027287Y034541D01*
X027187D01*
X027137Y034491D01*
X027037Y034541D02*
X026937D01*
X026987D01*
Y034241D01*
X027037Y034291D01*
X026637Y034541D02*
Y034241D01*
X026787Y034391D01*
X026587D01*
X028031Y027065D02*
X028081Y027015D01*
X028181D01*
X028231Y027065D01*
Y027265D01*
X028181Y027315D01*
X028081D01*
X028031Y027265D01*
X027931Y027315D02*
X027831D01*
X027881D01*
Y027015D01*
X027931Y027065D01*
X027681Y027315D02*
X027581D01*
X027631D01*
Y027015D01*
X027681Y027065D01*
X028171Y026245D02*
X028221Y026195D01*
X028321D01*
X028371Y026245D01*
Y026445D01*
X028321Y026495D01*
X028221D01*
X028171Y026445D01*
X028071Y026495D02*
X027971D01*
X028021D01*
Y026195D01*
X028071Y026245D01*
X027821D02*
X027771Y026195D01*
X027671D01*
X027621Y026245D01*
Y026445D01*
X027671Y026495D01*
X027771D01*
X027821Y026445D01*
Y026245D01*
X030486Y029045D02*
X030536Y028995D01*
X030636D01*
X030686Y029045D01*
Y029245D01*
X030636Y029295D01*
X030536D01*
X030486Y029245D01*
X030386D02*
X030336Y029295D01*
X030236D01*
X030186Y029245D01*
Y029045D01*
X030236Y028995D01*
X030336D01*
X030386Y029045D01*
Y029095D01*
X030336Y029145D01*
X030186D01*
X030486Y028285D02*
X030536Y028235D01*
X030636D01*
X030686Y028285D01*
Y028485D01*
X030636Y028535D01*
X030536D01*
X030486Y028485D01*
X030386Y028285D02*
X030336Y028235D01*
X030236D01*
X030186Y028285D01*
Y028335D01*
X030236Y028385D01*
X030186Y028435D01*
Y028485D01*
X030236Y028535D01*
X030336D01*
X030386Y028485D01*
Y028435D01*
X030336Y028385D01*
X030386Y028335D01*
Y028285D01*
X030336Y028385D02*
X030236D01*
X029536Y035585D02*
X029586Y035535D01*
X029686D01*
X029736Y035585D01*
Y035785D01*
X029686Y035835D01*
X029586D01*
X029536Y035785D01*
X029436Y035535D02*
X029236D01*
Y035585D01*
X029436Y035785D01*
Y035835D01*
X029536Y034935D02*
X029586Y034885D01*
X029686D01*
X029736Y034935D01*
Y035135D01*
X029686Y035185D01*
X029586D01*
X029536Y035135D01*
X029236Y034885D02*
X029336Y034935D01*
X029436Y035035D01*
Y035135D01*
X029386Y035185D01*
X029286D01*
X029236Y035135D01*
Y035085D01*
X029286Y035035D01*
X029436D01*
X029486Y034185D02*
X029536Y034135D01*
X029636D01*
X029686Y034185D01*
Y034385D01*
X029636Y034435D01*
X029536D01*
X029486Y034385D01*
X029186Y034135D02*
X029386D01*
Y034285D01*
X029286Y034235D01*
X029236D01*
X029186Y034285D01*
Y034385D01*
X029236Y034435D01*
X029336D01*
X029386Y034385D01*
X013249Y010738D02*
X013549D01*
Y010887D01*
X013499Y010937D01*
X013299D01*
X013249Y010887D01*
Y010738D01*
X013499Y011037D02*
X013549Y011087D01*
Y011187D01*
X013499Y011237D01*
X013299D01*
X013249Y011187D01*
Y011087D01*
X013299Y011037D01*
X013349D01*
X013399Y011087D01*
Y011237D01*
X014188Y010738D02*
X014488D01*
Y010887D01*
X014438Y010937D01*
X014238D01*
X014188Y010887D01*
Y010738D01*
X014238Y011037D02*
X014188Y011087D01*
Y011187D01*
X014238Y011237D01*
X014288D01*
X014338Y011187D01*
X014388Y011237D01*
X014438D01*
X014488Y011187D01*
Y011087D01*
X014438Y011037D01*
X014388D01*
X014338Y011087D01*
X014288Y011037D01*
X014238D01*
X014338Y011087D02*
Y011187D01*
X014018Y010738D02*
X013719D01*
Y010888D01*
X013769Y010938D01*
X013869D01*
X013919Y010888D01*
Y010738D01*
Y010838D02*
X014018Y010938D01*
Y011187D02*
X013719D01*
X013869Y011037D01*
Y011237D01*
X013769Y011337D02*
X013719Y011387D01*
Y011487D01*
X013769Y011537D01*
X013969D01*
X014018Y011487D01*
Y011387D01*
X013969Y011337D01*
X013769D01*
X013079Y010738D02*
X012779D01*
Y010888D01*
X012829Y010938D01*
X012929D01*
X012979Y010888D01*
Y010738D01*
Y010838D02*
X013079Y010938D01*
Y011187D02*
X012779D01*
X012929Y011037D01*
Y011237D01*
X012829Y011337D02*
X012779Y011387D01*
Y011487D01*
X012829Y011537D01*
X012879D01*
X012929Y011487D01*
Y011437D01*
Y011487D01*
X012979Y011537D01*
X013029D01*
X013079Y011487D01*
Y011387D01*
X013029Y011337D01*
X010278Y020204D02*
X010228Y020154D01*
Y020054D01*
X010278Y020004D01*
X010478D01*
X010527Y020054D01*
Y020154D01*
X010478Y020204D01*
X010378D01*
Y020104D01*
X010527Y020304D02*
X010228D01*
X010527Y020504D01*
X010228D01*
Y020604D02*
X010527D01*
Y020754D01*
X010478Y020804D01*
X010278D01*
X010228Y020754D01*
Y020604D01*
X010368Y019127D02*
Y019327D01*
X010268Y019227D02*
X010468D01*
X010218Y019627D02*
Y019427D01*
X010368D01*
X010318Y019527D01*
Y019577D01*
X010368Y019627D01*
X010468D01*
X010518Y019577D01*
Y019477D01*
X010468Y019427D01*
X013918Y023668D02*
X013868Y023618D01*
X013768D01*
X013718Y023668D01*
Y023718D01*
X013768Y023767D01*
X013818D01*
X013768D01*
X013718Y023817D01*
Y023867D01*
X013768Y023917D01*
X013868D01*
X013918Y023867D01*
X013618Y023917D02*
Y023867D01*
X013568D01*
Y023917D01*
X013618D01*
X013369Y023668D02*
X013319Y023618D01*
X013219D01*
X013169Y023668D01*
Y023718D01*
X013219Y023767D01*
X013269D01*
X013219D01*
X013169Y023817D01*
Y023867D01*
X013219Y023917D01*
X013319D01*
X013369Y023867D01*
X014818Y023668D02*
X014868Y023618D01*
X014968D01*
X015018Y023668D01*
Y023867D01*
X014968Y023917D01*
X014868D01*
X014818Y023867D01*
X014718Y023618D02*
Y023917D01*
X014519D01*
X014419Y023618D02*
Y023917D01*
Y023817D01*
X014219Y023618D01*
X014369Y023767D01*
X014219Y023917D01*
X015918Y023668D02*
X015968Y023618D01*
X016068D01*
X016118Y023668D01*
Y023867D01*
X016068Y023917D01*
X015968D01*
X015918Y023867D01*
Y023767D01*
X016018D01*
X015818Y023917D02*
Y023618D01*
X015618Y023917D01*
Y023618D01*
X015519D02*
Y023917D01*
X015369D01*
X015319Y023867D01*
Y023668D01*
X015369Y023618D01*
X015519D01*
X017168D02*
Y023917D01*
X017018D01*
X016968Y023867D01*
Y023668D01*
X017018Y023618D01*
X017168D01*
X016868D02*
X016768D01*
X016818D01*
Y023917D01*
X016868D01*
X016768D01*
X016469Y023618D02*
X016569D01*
X016619Y023668D01*
Y023867D01*
X016569Y023917D01*
X016469D01*
X016419Y023867D01*
Y023668D01*
X016469Y023618D01*
X018268Y023668D02*
X018318Y023618D01*
X018418D01*
X018468Y023668D01*
Y023867D01*
X018418Y023917D01*
X018318D01*
X018268Y023867D01*
Y023767D01*
X018368D01*
X018168Y023917D02*
Y023618D01*
X017969Y023917D01*
Y023618D01*
X017869D02*
Y023917D01*
X017719D01*
X017669Y023867D01*
Y023668D01*
X017719Y023618D01*
X017869D01*
X019324Y023668D02*
X019374Y023618D01*
X019474D01*
X019524Y023668D01*
Y023718D01*
X019474Y023767D01*
X019374D01*
X019324Y023817D01*
Y023867D01*
X019374Y023917D01*
X019474D01*
X019524Y023867D01*
X019224Y023618D02*
Y023917D01*
X019074D01*
X019024Y023867D01*
Y023668D01*
X019074Y023618D01*
X019224D01*
X018924Y023917D02*
Y023718D01*
X018824Y023618D01*
X018724Y023718D01*
Y023917D01*
Y023767D01*
X018924D01*
X02038Y023668D02*
X02043Y023618D01*
X02053D01*
X02058Y023668D01*
Y023718D01*
X02053Y023767D01*
X02043D01*
X02038Y023817D01*
Y023867D01*
X02043Y023917D01*
X02053D01*
X02058Y023867D01*
X02008Y023668D02*
X02013Y023618D01*
X02023D01*
X02028Y023668D01*
Y023867D01*
X02023Y023917D01*
X02013D01*
X02008Y023867D01*
X01998Y023618D02*
Y023917D01*
X01978D01*
X021586Y023668D02*
X021536Y023618D01*
X021436D01*
X021386Y023668D01*
Y023718D01*
X021436Y023767D01*
X021486D01*
X021436D01*
X021386Y023817D01*
Y023867D01*
X021436Y023917D01*
X021536D01*
X021586Y023867D01*
X021286Y023917D02*
Y023867D01*
X021236D01*
Y023917D01*
X021286D01*
X021036Y023668D02*
X020986Y023618D01*
X020886D01*
X020836Y023668D01*
Y023718D01*
X020886Y023767D01*
X020936D01*
X020886D01*
X020836Y023817D01*
Y023867D01*
X020886Y023917D01*
X020986D01*
X021036Y023867D01*
X021268Y016827D02*
X021568D01*
Y016977D01*
X021518Y017027D01*
X021318D01*
X021268Y016977D01*
Y016827D01*
X021318Y017327D02*
X021268Y017277D01*
Y017177D01*
X021318Y017127D01*
X021518D01*
X021568Y017177D01*
Y017277D01*
X021518Y017327D01*
X021418D01*
Y017227D01*
X021568Y017427D02*
Y017527D01*
Y017477D01*
X021268D01*
X021318Y017427D01*
X021268Y020127D02*
X021568D01*
Y020277D01*
X021518Y020327D01*
X021318D01*
X021268Y020277D01*
Y020127D01*
X021318Y020627D02*
X021268Y020577D01*
Y020477D01*
X021318Y020427D01*
X021518D01*
X021568Y020477D01*
Y020577D01*
X021518Y020627D01*
X021418D01*
Y020527D01*
X021568Y020877D02*
X021268D01*
X021418Y020727D01*
Y020927D01*
X021268Y018977D02*
X021568D01*
Y019127D01*
X021518Y019177D01*
X021318D01*
X021268Y019127D01*
Y018977D01*
X021318Y019477D02*
X021268Y019427D01*
Y019327D01*
X021318Y019277D01*
X021518D01*
X021568Y019327D01*
Y019427D01*
X021518Y019477D01*
X021418D01*
Y019377D01*
X021318Y019577D02*
X021268Y019627D01*
Y019727D01*
X021318Y019777D01*
X021368D01*
X021418Y019727D01*
Y019677D01*
Y019727D01*
X021468Y019777D01*
X021518D01*
X021568Y019727D01*
Y019627D01*
X021518Y019577D01*
X021268Y017877D02*
X021568D01*
Y018027D01*
X021518Y018077D01*
X021318D01*
X021268Y018027D01*
Y017877D01*
X021318Y018377D02*
X021268Y018327D01*
Y018227D01*
X021318Y018177D01*
X021518D01*
X021568Y018227D01*
Y018327D01*
X021518Y018377D01*
X021418D01*
Y018277D01*
X021568Y018677D02*
Y018477D01*
X021368Y018677D01*
X021318D01*
X021268Y018627D01*
Y018527D01*
X021318Y018477D01*
X021568Y016027D02*
X021368D01*
X021268Y016127D01*
X021368Y016227D01*
X021568D01*
X021418D01*
Y016027D01*
X021318Y016327D02*
X021268Y016377D01*
Y016477D01*
X021318Y016527D01*
X021368D01*
X021418Y016477D01*
Y016427D01*
Y016477D01*
X021468Y016527D01*
X021518D01*
X021568Y016477D01*
Y016377D01*
X021518Y016327D01*
X021568Y015227D02*
X021368D01*
X021268Y015327D01*
X021368Y015427D01*
X021568D01*
X021418D01*
Y015227D01*
X021568Y015727D02*
Y015527D01*
X021368Y015727D01*
X021318D01*
X021268Y015677D01*
Y015577D01*
X021318Y015527D01*
X021568Y014577D02*
X021368D01*
X021268Y014677D01*
X021368Y014777D01*
X021568D01*
X021418D01*
Y014577D01*
X021568Y014877D02*
Y014977D01*
Y014927D01*
X021268D01*
X021318Y014877D01*
X021568Y013827D02*
X021368D01*
X021268Y013927D01*
X021368Y014027D01*
X021568D01*
X021418D01*
Y013827D01*
X021318Y014127D02*
X021268Y014177D01*
Y014277D01*
X021318Y014327D01*
X021518D01*
X021568Y014277D01*
Y014177D01*
X021518Y014127D01*
X021318D01*
X019838Y011801D02*
Y011501D01*
X019688D01*
X019638Y011551D01*
Y011651D01*
X019688Y011701D01*
X019838D01*
X019738D02*
X019638Y011801D01*
X019339Y011551D02*
X019388Y011501D01*
X019488D01*
X019538Y011551D01*
Y011601D01*
X019488Y011651D01*
X019388D01*
X019339Y011701D01*
Y011751D01*
X019388Y011801D01*
X019488D01*
X019538Y011751D01*
X019239Y011501D02*
X019039D01*
X019139D01*
Y011801D01*
X014649Y018703D02*
X014699Y018653D01*
X014799D01*
X014849Y018703D01*
Y018903D01*
X014799Y018953D01*
X014699D01*
X014649Y018903D01*
X014549Y018953D02*
X014449D01*
X014499D01*
Y018653D01*
X014549Y018703D01*
X014299D02*
X014249Y018653D01*
X014149D01*
X014099Y018703D01*
Y018753D01*
X014149Y018803D01*
X014199D01*
X014149D01*
X014099Y018853D01*
Y018903D01*
X014149Y018953D01*
X014249D01*
X014299Y018903D01*
X017098Y012422D02*
X017048Y012373D01*
Y012273D01*
X017098Y012223D01*
X017298D01*
X017348Y012273D01*
Y012373D01*
X017298Y012422D01*
X017348Y012522D02*
Y012622D01*
Y012572D01*
X017048D01*
X017098Y012522D01*
X017348Y012972D02*
Y012772D01*
X017148Y012972D01*
X017098D01*
X017048Y012922D01*
Y012822D01*
X017098Y012772D01*
X016098Y014297D02*
X016148Y014247D01*
X016248D01*
X016298Y014297D01*
Y014497D01*
X016248Y014547D01*
X016148D01*
X016098Y014497D01*
X015798Y014547D02*
X015998D01*
X015798Y014347D01*
Y014297D01*
X015848Y014247D01*
X015948D01*
X015998Y014297D01*
X010298Y015072D02*
X010248Y015023D01*
Y014923D01*
X010298Y014873D01*
X010498D01*
X010548Y014923D01*
Y015023D01*
X010498Y015072D01*
X010548Y015172D02*
Y015272D01*
Y015222D01*
X010248D01*
X010298Y015172D01*
X010248Y015622D02*
X010298Y015522D01*
X010398Y015422D01*
X010498D01*
X010548Y015472D01*
Y015572D01*
X010498Y015622D01*
X010448D01*
X010398Y015572D01*
Y015422D01*
X010298Y014072D02*
X010248Y014023D01*
Y013923D01*
X010298Y013873D01*
X010498D01*
X010548Y013923D01*
Y014023D01*
X010498Y014072D01*
X010548Y014172D02*
Y014272D01*
Y014222D01*
X010248D01*
X010298Y014172D01*
X010248Y014622D02*
Y014422D01*
X010398D01*
X010348Y014522D01*
Y014572D01*
X010398Y014622D01*
X010498D01*
X010548Y014572D01*
Y014472D01*
X010498Y014422D01*
X014248Y012997D02*
X014298Y012947D01*
X014398D01*
X014448Y012997D01*
Y013197D01*
X014398Y013247D01*
X014298D01*
X014248Y013197D01*
X013998Y013247D02*
Y012947D01*
X014148Y013097D01*
X013948D01*
X014248Y013697D02*
X014298Y013647D01*
X014398D01*
X014448Y013697D01*
Y013897D01*
X014398Y013947D01*
X014298D01*
X014248Y013897D01*
X014148Y013697D02*
X014098Y013647D01*
X013998D01*
X013948Y013697D01*
Y013747D01*
X013998Y013797D01*
X014048D01*
X013998D01*
X013948Y013847D01*
Y013897D01*
X013998Y013947D01*
X014098D01*
X014148Y013897D01*
X017948Y010697D02*
X018248Y010897D01*
X017948D02*
X018248Y010697D01*
Y010997D02*
Y011097D01*
Y011047D01*
X017948D01*
X017998Y010997D01*
X015398Y019098D02*
X015648D01*
X015698Y019147D01*
Y019247D01*
X015648Y019297D01*
X015398D01*
Y019597D02*
X015448Y019497D01*
X015548Y019397D01*
X015648D01*
X015698Y019447D01*
Y019547D01*
X015648Y019597D01*
X015598D01*
X015548Y019547D01*
Y019397D01*
X014148Y016023D02*
Y016123D01*
Y016073D01*
X014448D01*
Y016023D01*
Y016123D01*
X014198Y016472D02*
X014148Y016422D01*
Y016322D01*
X014198Y016272D01*
X014398D01*
X014448Y016322D01*
Y016422D01*
X014398Y016472D01*
X014448Y016772D02*
Y016572D01*
X014248Y016772D01*
X014198D01*
X014148Y016722D01*
Y016622D01*
X014198Y016572D01*
X014649Y019453D02*
X014699Y019403D01*
X014799D01*
X014849Y019453D01*
Y019653D01*
X014799Y019703D01*
X014699D01*
X014649Y019653D01*
X014549Y019703D02*
X014449D01*
X014499D01*
Y019403D01*
X014549Y019453D01*
X014149Y019703D02*
Y019403D01*
X014299Y019553D01*
X014099D01*
X015543Y012227D02*
X015593Y012177D01*
X015693D01*
X015743Y012227D01*
Y012427D01*
X015693Y012477D01*
X015593D01*
X015543Y012427D01*
X015443Y012477D02*
X015343D01*
X015393D01*
Y012177D01*
X015443Y012227D01*
X015193Y012477D02*
X015093D01*
X015143D01*
Y012177D01*
X015193Y012227D01*
X015683Y011407D02*
X015733Y011357D01*
X015833D01*
X015883Y011407D01*
Y011607D01*
X015833Y011657D01*
X015733D01*
X015683Y011607D01*
X015583Y011657D02*
X015483D01*
X015533D01*
Y011357D01*
X015583Y011407D01*
X015333D02*
X015283Y011357D01*
X015183D01*
X015133Y011407D01*
Y011607D01*
X015183Y011657D01*
X015283D01*
X015333Y011607D01*
Y011407D01*
X017998Y014207D02*
X018048Y014157D01*
X018148D01*
X018198Y014207D01*
Y014407D01*
X018148Y014457D01*
X018048D01*
X017998Y014407D01*
X017898D02*
X017848Y014457D01*
X017748D01*
X017698Y014407D01*
Y014207D01*
X017748Y014157D01*
X017848D01*
X017898Y014207D01*
Y014257D01*
X017848Y014307D01*
X017698D01*
X017998Y013447D02*
X018048Y013397D01*
X018148D01*
X018198Y013447D01*
Y013647D01*
X018148Y013697D01*
X018048D01*
X017998Y013647D01*
X017898Y013447D02*
X017848Y013397D01*
X017748D01*
X017698Y013447D01*
Y013497D01*
X017748Y013547D01*
X017698Y013597D01*
Y013647D01*
X017748Y013697D01*
X017848D01*
X017898Y013647D01*
Y013597D01*
X017848Y013547D01*
X017898Y013497D01*
Y013447D01*
X017848Y013547D02*
X017748D01*
X017048Y020747D02*
X017098Y020697D01*
X017198D01*
X017248Y020747D01*
Y020947D01*
X017198Y020997D01*
X017098D01*
X017048Y020947D01*
X016948Y020697D02*
X016748D01*
Y020747D01*
X016948Y020947D01*
Y020997D01*
X017048Y020097D02*
X017098Y020047D01*
X017198D01*
X017248Y020097D01*
Y020297D01*
X017198Y020347D01*
X017098D01*
X017048Y020297D01*
X016748Y020047D02*
X016848Y020097D01*
X016948Y020197D01*
Y020297D01*
X016898Y020347D01*
X016798D01*
X016748Y020297D01*
Y020247D01*
X016798Y020197D01*
X016948D01*
X016998Y019347D02*
X017048Y019297D01*
X017148D01*
X017198Y019347D01*
Y019547D01*
X017148Y019597D01*
X017048D01*
X016998Y019547D01*
X016698Y019297D02*
X016898D01*
Y019447D01*
X016798Y019397D01*
X016748D01*
X016698Y019447D01*
Y019547D01*
X016748Y019597D01*
X016848D01*
X016898Y019547D01*
X013249Y025575D02*
X013549D01*
Y025725D01*
X013499Y025775D01*
X013299D01*
X013249Y025725D01*
Y025575D01*
X013499Y025875D02*
X013549Y025925D01*
Y026025D01*
X013499Y026075D01*
X013299D01*
X013249Y026025D01*
Y025925D01*
X013299Y025875D01*
X013349D01*
X013399Y025925D01*
Y026075D01*
X014188Y025575D02*
X014488D01*
Y025725D01*
X014438Y025775D01*
X014238D01*
X014188Y025725D01*
Y025575D01*
X014238Y025875D02*
X014188Y025925D01*
Y026025D01*
X014238Y026075D01*
X014288D01*
X014338Y026025D01*
X014388Y026075D01*
X014438D01*
X014488Y026025D01*
Y025925D01*
X014438Y025875D01*
X014388D01*
X014338Y025925D01*
X014288Y025875D01*
X014238D01*
X014338Y025925D02*
Y026025D01*
X014018Y025575D02*
X013719D01*
Y025725D01*
X013769Y025775D01*
X013869D01*
X013919Y025725D01*
Y025575D01*
Y025675D02*
X014018Y025775D01*
Y026025D02*
X013719D01*
X013869Y025875D01*
Y026075D01*
X013769Y026175D02*
X013719Y026225D01*
Y026325D01*
X013769Y026375D01*
X013969D01*
X014018Y026325D01*
Y026225D01*
X013969Y026175D01*
X013769D01*
X013079Y025575D02*
X012779D01*
Y025725D01*
X012829Y025775D01*
X012929D01*
X012979Y025725D01*
Y025575D01*
Y025675D02*
X013079Y025775D01*
Y026025D02*
X012779D01*
X012929Y025875D01*
Y026075D01*
X012829Y026175D02*
X012779Y026225D01*
Y026325D01*
X012829Y026375D01*
X012879D01*
X012929Y026325D01*
Y026275D01*
Y026325D01*
X012979Y026375D01*
X013029D01*
X013079Y026325D01*
Y026225D01*
X013029Y026175D01*
X010278Y035042D02*
X010228Y034992D01*
Y034892D01*
X010278Y034842D01*
X010478D01*
X010527Y034892D01*
Y034992D01*
X010478Y035042D01*
X010378D01*
Y034942D01*
X010527Y035142D02*
X010228D01*
X010527Y035342D01*
X010228D01*
Y035442D02*
X010527D01*
Y035591D01*
X010478Y035641D01*
X010278D01*
X010228Y035591D01*
Y035442D01*
X010368Y033965D02*
Y034165D01*
X010268Y034065D02*
X010468D01*
X010218Y034465D02*
Y034265D01*
X010368D01*
X010318Y034365D01*
Y034415D01*
X010368Y034465D01*
X010468D01*
X010518Y034415D01*
Y034315D01*
X010468Y034265D01*
X013918Y038505D02*
X013868Y038455D01*
X013768D01*
X013718Y038505D01*
Y038555D01*
X013768Y038605D01*
X013818D01*
X013768D01*
X013718Y038655D01*
Y038705D01*
X013768Y038755D01*
X013868D01*
X013918Y038705D01*
X013618Y038755D02*
Y038705D01*
X013568D01*
Y038755D01*
X013618D01*
X013369Y038505D02*
X013319Y038455D01*
X013219D01*
X013169Y038505D01*
Y038555D01*
X013219Y038605D01*
X013269D01*
X013219D01*
X013169Y038655D01*
Y038705D01*
X013219Y038755D01*
X013319D01*
X013369Y038705D01*
X014818Y038505D02*
X014868Y038455D01*
X014968D01*
X015018Y038505D01*
Y038705D01*
X014968Y038755D01*
X014868D01*
X014818Y038705D01*
X014718Y038455D02*
Y038755D01*
X014519D01*
X014419Y038455D02*
Y038755D01*
Y038655D01*
X014219Y038455D01*
X014369Y038605D01*
X014219Y038755D01*
X015918Y038505D02*
X015968Y038455D01*
X016068D01*
X016118Y038505D01*
Y038705D01*
X016068Y038755D01*
X015968D01*
X015918Y038705D01*
Y038605D01*
X016018D01*
X015818Y038755D02*
Y038455D01*
X015618Y038755D01*
Y038455D01*
X015519D02*
Y038755D01*
X015369D01*
X015319Y038705D01*
Y038505D01*
X015369Y038455D01*
X015519D01*
X017168D02*
Y038755D01*
X017018D01*
X016968Y038705D01*
Y038505D01*
X017018Y038455D01*
X017168D01*
X016868D02*
X016768D01*
X016818D01*
Y038755D01*
X016868D01*
X016768D01*
X016469Y038455D02*
X016569D01*
X016619Y038505D01*
Y038705D01*
X016569Y038755D01*
X016469D01*
X016419Y038705D01*
Y038505D01*
X016469Y038455D01*
X018268Y038505D02*
X018318Y038455D01*
X018418D01*
X018468Y038505D01*
Y038705D01*
X018418Y038755D01*
X018318D01*
X018268Y038705D01*
Y038605D01*
X018368D01*
X018168Y038755D02*
Y038455D01*
X017969Y038755D01*
Y038455D01*
X017869D02*
Y038755D01*
X017719D01*
X017669Y038705D01*
Y038505D01*
X017719Y038455D01*
X017869D01*
X019324Y038505D02*
X019374Y038455D01*
X019474D01*
X019524Y038505D01*
Y038555D01*
X019474Y038605D01*
X019374D01*
X019324Y038655D01*
Y038705D01*
X019374Y038755D01*
X019474D01*
X019524Y038705D01*
X019224Y038455D02*
Y038755D01*
X019074D01*
X019024Y038705D01*
Y038505D01*
X019074Y038455D01*
X019224D01*
X018924Y038755D02*
Y038555D01*
X018824Y038455D01*
X018724Y038555D01*
Y038755D01*
Y038605D01*
X018924D01*
X02038Y038505D02*
X02043Y038455D01*
X02053D01*
X02058Y038505D01*
Y038555D01*
X02053Y038605D01*
X02043D01*
X02038Y038655D01*
Y038705D01*
X02043Y038755D01*
X02053D01*
X02058Y038705D01*
X02008Y038505D02*
X02013Y038455D01*
X02023D01*
X02028Y038505D01*
Y038705D01*
X02023Y038755D01*
X02013D01*
X02008Y038705D01*
X01998Y038455D02*
Y038755D01*
X01978D01*
X021586Y038505D02*
X021536Y038455D01*
X021436D01*
X021386Y038505D01*
Y038555D01*
X021436Y038605D01*
X021486D01*
X021436D01*
X021386Y038655D01*
Y038705D01*
X021436Y038755D01*
X021536D01*
X021586Y038705D01*
X021286Y038755D02*
Y038705D01*
X021236D01*
Y038755D01*
X021286D01*
X021036Y038505D02*
X020986Y038455D01*
X020886D01*
X020836Y038505D01*
Y038555D01*
X020886Y038605D01*
X020936D01*
X020886D01*
X020836Y038655D01*
Y038705D01*
X020886Y038755D01*
X020986D01*
X021036Y038705D01*
X021268Y031665D02*
X021568D01*
Y031815D01*
X021518Y031865D01*
X021318D01*
X021268Y031815D01*
Y031665D01*
X021318Y032165D02*
X021268Y032115D01*
Y032015D01*
X021318Y031965D01*
X021518D01*
X021568Y032015D01*
Y032115D01*
X021518Y032165D01*
X021418D01*
Y032065D01*
X021568Y032265D02*
Y032365D01*
Y032315D01*
X021268D01*
X021318Y032265D01*
X021268Y034965D02*
X021568D01*
Y035115D01*
X021518Y035165D01*
X021318D01*
X021268Y035115D01*
Y034965D01*
X021318Y035465D02*
X021268Y035415D01*
Y035315D01*
X021318Y035265D01*
X021518D01*
X021568Y035315D01*
Y035415D01*
X021518Y035465D01*
X021418D01*
Y035365D01*
X021568Y035715D02*
X021268D01*
X021418Y035565D01*
Y035765D01*
X021268Y033815D02*
X021568D01*
Y033965D01*
X021518Y034015D01*
X021318D01*
X021268Y033965D01*
Y033815D01*
X021318Y034315D02*
X021268Y034265D01*
Y034165D01*
X021318Y034115D01*
X021518D01*
X021568Y034165D01*
Y034265D01*
X021518Y034315D01*
X021418D01*
Y034215D01*
X021318Y034415D02*
X021268Y034465D01*
Y034565D01*
X021318Y034615D01*
X021368D01*
X021418Y034565D01*
Y034515D01*
Y034565D01*
X021468Y034615D01*
X021518D01*
X021568Y034565D01*
Y034465D01*
X021518Y034415D01*
X021268Y032715D02*
X021568D01*
Y032865D01*
X021518Y032915D01*
X021318D01*
X021268Y032865D01*
Y032715D01*
X021318Y033215D02*
X021268Y033165D01*
Y033065D01*
X021318Y033015D01*
X021518D01*
X021568Y033065D01*
Y033165D01*
X021518Y033215D01*
X021418D01*
Y033115D01*
X021568Y033515D02*
Y033315D01*
X021368Y033515D01*
X021318D01*
X021268Y033465D01*
Y033365D01*
X021318Y033315D01*
X021568Y030865D02*
X021368D01*
X021268Y030965D01*
X021368Y031065D01*
X021568D01*
X021418D01*
Y030865D01*
X021318Y031165D02*
X021268Y031215D01*
Y031315D01*
X021318Y031365D01*
X021368D01*
X021418Y031315D01*
Y031265D01*
Y031315D01*
X021468Y031365D01*
X021518D01*
X021568Y031315D01*
Y031215D01*
X021518Y031165D01*
X021568Y030065D02*
X021368D01*
X021268Y030165D01*
X021368Y030265D01*
X021568D01*
X021418D01*
Y030065D01*
X021568Y030565D02*
Y030365D01*
X021368Y030565D01*
X021318D01*
X021268Y030515D01*
Y030415D01*
X021318Y030365D01*
X021568Y029415D02*
X021368D01*
X021268Y029515D01*
X021368Y029615D01*
X021568D01*
X021418D01*
Y029415D01*
X021568Y029715D02*
Y029815D01*
Y029765D01*
X021268D01*
X021318Y029715D01*
X021568Y028665D02*
X021368D01*
X021268Y028765D01*
X021368Y028865D01*
X021568D01*
X021418D01*
Y028665D01*
X021318Y028965D02*
X021268Y029015D01*
Y029115D01*
X021318Y029165D01*
X021518D01*
X021568Y029115D01*
Y029015D01*
X021518Y028965D01*
X021318D01*
X019838Y026638D02*
Y026338D01*
X019688D01*
X019638Y026388D01*
Y026488D01*
X019688Y026538D01*
X019838D01*
X019738D02*
X019638Y026638D01*
X019339Y026388D02*
X019388Y026338D01*
X019488D01*
X019538Y026388D01*
Y026438D01*
X019488Y026488D01*
X019388D01*
X019339Y026538D01*
Y026588D01*
X019388Y026638D01*
X019488D01*
X019538Y026588D01*
X019239Y026338D02*
X019039D01*
X019139D01*
Y026638D01*
X014649Y033541D02*
X014699Y033491D01*
X014799D01*
X014849Y033541D01*
Y033741D01*
X014799Y033791D01*
X014699D01*
X014649Y033741D01*
X014549Y033791D02*
X014449D01*
X014499D01*
Y033491D01*
X014549Y033541D01*
X014299D02*
X014249Y033491D01*
X014149D01*
X014099Y033541D01*
Y033591D01*
X014149Y033641D01*
X014199D01*
X014149D01*
X014099Y033691D01*
Y033741D01*
X014149Y033791D01*
X014249D01*
X014299Y033741D01*
X017098Y02726D02*
X017048Y02721D01*
Y02711D01*
X017098Y02706D01*
X017298D01*
X017348Y02711D01*
Y02721D01*
X017298Y02726D01*
X017348Y02736D02*
Y02746D01*
Y02741D01*
X017048D01*
X017098Y02736D01*
X017348Y02781D02*
Y02761D01*
X017148Y02781D01*
X017098D01*
X017048Y02776D01*
Y02766D01*
X017098Y02761D01*
X016098Y029135D02*
X016148Y029085D01*
X016248D01*
X016298Y029135D01*
Y029335D01*
X016248Y029385D01*
X016148D01*
X016098Y029335D01*
X015798Y029385D02*
X015998D01*
X015798Y029185D01*
Y029135D01*
X015848Y029085D01*
X015948D01*
X015998Y029135D01*
X010298Y02991D02*
X010248Y02986D01*
Y02976D01*
X010298Y02971D01*
X010498D01*
X010548Y02976D01*
Y02986D01*
X010498Y02991D01*
X010548Y03001D02*
Y03011D01*
Y03006D01*
X010248D01*
X010298Y03001D01*
X010248Y03046D02*
X010298Y03036D01*
X010398Y03026D01*
X010498D01*
X010548Y03031D01*
Y03041D01*
X010498Y03046D01*
X010448D01*
X010398Y03041D01*
Y03026D01*
X010298Y02891D02*
X010248Y02886D01*
Y02876D01*
X010298Y02871D01*
X010498D01*
X010548Y02876D01*
Y02886D01*
X010498Y02891D01*
X010548Y02901D02*
Y02911D01*
Y02906D01*
X010248D01*
X010298Y02901D01*
X010248Y02946D02*
Y02926D01*
X010398D01*
X010348Y02936D01*
Y02941D01*
X010398Y02946D01*
X010498D01*
X010548Y02941D01*
Y02931D01*
X010498Y02926D01*
X014248Y027835D02*
X014298Y027785D01*
X014398D01*
X014448Y027835D01*
Y028035D01*
X014398Y028085D01*
X014298D01*
X014248Y028035D01*
X013998Y028085D02*
Y027785D01*
X014148Y027935D01*
X013948D01*
X014248Y028535D02*
X014298Y028485D01*
X014398D01*
X014448Y028535D01*
Y028735D01*
X014398Y028785D01*
X014298D01*
X014248Y028735D01*
X014148Y028535D02*
X014098Y028485D01*
X013998D01*
X013948Y028535D01*
Y028585D01*
X013998Y028635D01*
X014048D01*
X013998D01*
X013948Y028685D01*
Y028735D01*
X013998Y028785D01*
X014098D01*
X014148Y028735D01*
X017948Y025535D02*
X018248Y025735D01*
X017948D02*
X018248Y025535D01*
Y025835D02*
Y025935D01*
Y025885D01*
X017948D01*
X017998Y025835D01*
X015398Y033935D02*
X015648D01*
X015698Y033985D01*
Y034085D01*
X015648Y034135D01*
X015398D01*
Y034435D02*
X015448Y034335D01*
X015548Y034235D01*
X015648D01*
X015698Y034285D01*
Y034385D01*
X015648Y034435D01*
X015598D01*
X015548Y034385D01*
Y034235D01*
X014148Y03086D02*
Y03096D01*
Y03091D01*
X014448D01*
Y03086D01*
Y03096D01*
X014198Y03131D02*
X014148Y03126D01*
Y03116D01*
X014198Y03111D01*
X014398D01*
X014448Y03116D01*
Y03126D01*
X014398Y03131D01*
X014448Y03161D02*
Y03141D01*
X014248Y03161D01*
X014198D01*
X014148Y03156D01*
Y03146D01*
X014198Y03141D01*
X014649Y034291D02*
X014699Y034241D01*
X014799D01*
X014849Y034291D01*
Y034491D01*
X014799Y034541D01*
X014699D01*
X014649Y034491D01*
X014549Y034541D02*
X014449D01*
X014499D01*
Y034241D01*
X014549Y034291D01*
X014149Y034541D02*
Y034241D01*
X014299Y034391D01*
X014099D01*
X015543Y027065D02*
X015593Y027015D01*
X015693D01*
X015743Y027065D01*
Y027265D01*
X015693Y027315D01*
X015593D01*
X015543Y027265D01*
X015443Y027315D02*
X015343D01*
X015393D01*
Y027015D01*
X015443Y027065D01*
X015193Y027315D02*
X015093D01*
X015143D01*
Y027015D01*
X015193Y027065D01*
X015683Y026245D02*
X015733Y026195D01*
X015833D01*
X015883Y026245D01*
Y026445D01*
X015833Y026495D01*
X015733D01*
X015683Y026445D01*
X015583Y026495D02*
X015483D01*
X015533D01*
Y026195D01*
X015583Y026245D01*
X015333D02*
X015283Y026195D01*
X015183D01*
X015133Y026245D01*
Y026445D01*
X015183Y026495D01*
X015283D01*
X015333Y026445D01*
Y026245D01*
X017998Y029045D02*
X018048Y028995D01*
X018148D01*
X018198Y029045D01*
Y029245D01*
X018148Y029295D01*
X018048D01*
X017998Y029245D01*
X017898D02*
X017848Y029295D01*
X017748D01*
X017698Y029245D01*
Y029045D01*
X017748Y028995D01*
X017848D01*
X017898Y029045D01*
Y029095D01*
X017848Y029145D01*
X017698D01*
X017998Y028285D02*
X018048Y028235D01*
X018148D01*
X018198Y028285D01*
Y028485D01*
X018148Y028535D01*
X018048D01*
X017998Y028485D01*
X017898Y028285D02*
X017848Y028235D01*
X017748D01*
X017698Y028285D01*
Y028335D01*
X017748Y028385D01*
X017698Y028435D01*
Y028485D01*
X017748Y028535D01*
X017848D01*
X017898Y028485D01*
Y028435D01*
X017848Y028385D01*
X017898Y028335D01*
Y028285D01*
X017848Y028385D02*
X017748D01*
X017048Y035585D02*
X017098Y035535D01*
X017198D01*
X017248Y035585D01*
Y035785D01*
X017198Y035835D01*
X017098D01*
X017048Y035785D01*
X016948Y035535D02*
X016748D01*
Y035585D01*
X016948Y035785D01*
Y035835D01*
X017048Y034935D02*
X017098Y034885D01*
X017198D01*
X017248Y034935D01*
Y035135D01*
X017198Y035185D01*
X017098D01*
X017048Y035135D01*
X016748Y034885D02*
X016848Y034935D01*
X016948Y035035D01*
Y035135D01*
X016898Y035185D01*
X016798D01*
X016748Y035135D01*
Y035085D01*
X016798Y035035D01*
X016948D01*
X016998Y034185D02*
X017048Y034135D01*
X017148D01*
X017198Y034185D01*
Y034385D01*
X017148Y034435D01*
X017048D01*
X016998Y034385D01*
X016698Y034135D02*
X016898D01*
Y034285D01*
X016798Y034235D01*
X016748D01*
X016698Y034285D01*
Y034385D01*
X016748Y034435D01*
X016848D01*
X016898Y034385D01*
D31*
X045776Y021441D02*
G03*
X045776Y021441I0J-000049D01*
G01*
X043968Y014672D02*
G03*
X043968Y014672I0J-000049D01*
G01*
X040096Y015333D02*
G03*
X040096Y015333I0J-000049D01*
G01*
X037649Y020367D02*
G03*
X037649Y020367I0J-000049D01*
G01*
X038573Y023653D02*
G03*
X038573Y023653I0J-000049D01*
G01*
X038465Y015678D02*
G03*
X038465Y015678I0J-000049D01*
G01*
X045776Y036279D02*
G03*
X045776Y036279I0J-000049D01*
G01*
X043968Y029509D02*
G03*
X043968Y029509I0J-000049D01*
G01*
X040096Y030171D02*
G03*
X040096Y030171I0J-000049D01*
G01*
X037649Y035205D02*
G03*
X037649Y035205I0J-000049D01*
G01*
X038573Y038491D02*
G03*
X038573Y038491I0J-000049D01*
G01*
X038465Y030515D02*
G03*
X038465Y030515I0J-000049D01*
G01*
X033289Y021441D02*
G03*
X033289Y021441I0J-000049D01*
G01*
X03148Y014672D02*
G03*
X03148Y014672I0J-000049D01*
G01*
X027609Y015333D02*
G03*
X027609Y015333I0J-000049D01*
G01*
X025162Y020367D02*
G03*
X025162Y020367I0J-000049D01*
G01*
X026086Y023653D02*
G03*
X026086Y023653I0J-000049D01*
G01*
X025977Y015678D02*
G03*
X025977Y015678I0J-000049D01*
G01*
X033289Y036279D02*
G03*
X033289Y036279I0J-000049D01*
G01*
X03148Y029509D02*
G03*
X03148Y029509I0J-000049D01*
G01*
X027609Y030171D02*
G03*
X027609Y030171I0J-000049D01*
G01*
X025162Y035205D02*
G03*
X025162Y035205I0J-000049D01*
G01*
X026086Y038491D02*
G03*
X026086Y038491I0J-000049D01*
G01*
X025977Y030515D02*
G03*
X025977Y030515I0J-000049D01*
G01*
X020801Y021441D02*
G03*
X020801Y021441I0J-000049D01*
G01*
X018993Y014672D02*
G03*
X018993Y014672I0J-000049D01*
G01*
X015121Y015333D02*
G03*
X015121Y015333I0J-000049D01*
G01*
X012674Y020367D02*
G03*
X012674Y020367I0J-000049D01*
G01*
X013598Y023653D02*
G03*
X013598Y023653I0J-000049D01*
G01*
X01349Y015678D02*
G03*
X01349Y015678I0J-000049D01*
G01*
X020801Y036279D02*
G03*
X020801Y036279I0J-000049D01*
G01*
X018993Y029509D02*
G03*
X018993Y029509I0J-000049D01*
G01*
X015121Y030171D02*
G03*
X015121Y030171I0J-000049D01*
G01*
X012674Y035205D02*
G03*
X012674Y035205I0J-000049D01*
G01*
X013598Y038491D02*
G03*
X013598Y038491I0J-000049D01*
G01*
X01349Y030515D02*
G03*
X01349Y030515I0J-000049D01*
G01*
D32*
X042567Y010598D02*
G03*
X042567Y010598I0J-00002D01*
G01*
X037776Y014304D02*
X037626D01*
X037776Y014604D02*
X037626D01*
X037776Y012922D02*
X037626D01*
X037776Y013222D02*
X037626D01*
X042567Y025435D02*
G03*
X042567Y025435I0J-00002D01*
G01*
X037776Y029141D02*
X037626D01*
X037776Y029441D02*
X037626D01*
X037776Y027759D02*
X037626D01*
X037776Y028059D02*
X037626D01*
X030079Y010598D02*
G03*
X030079Y010598I0J-00002D01*
G01*
X025289Y014304D02*
X025139D01*
X025289Y014604D02*
X025139D01*
X025289Y012922D02*
X025139D01*
X025289Y013222D02*
X025139D01*
X030079Y025435D02*
G03*
X030079Y025435I0J-00002D01*
G01*
X025289Y029141D02*
X025139D01*
X025289Y029441D02*
X025139D01*
X025289Y027759D02*
X025139D01*
X025289Y028059D02*
X025139D01*
X017592Y010598D02*
G03*
X017592Y010598I0J-00002D01*
G01*
X012801Y014304D02*
X012651D01*
X012801Y014604D02*
X012651D01*
X012801Y012922D02*
X012651D01*
X012801Y013222D02*
X012651D01*
X017592Y025435D02*
G03*
X017592Y025435I0J-00002D01*
G01*
X012801Y029141D02*
X012651D01*
X012801Y029441D02*
X012651D01*
X012801Y027759D02*
X012651D01*
X012801Y028059D02*
X012651D01*
D33*
X038226Y012777D02*
Y0154D01*
X037187D01*
X037176Y015389D02*
X037187Y0154D01*
X037176Y014158D02*
Y015389D01*
Y013367D02*
Y014158D01*
X037613Y011737D02*
X037176Y012175D01*
Y012777D01*
X037613Y010637D02*
Y011737D01*
X039613D02*
X037613D01*
X039613Y010677D02*
Y011737D01*
X039573Y010637D02*
X039613Y010677D01*
X039573Y010637D02*
X037613D01*
X038963Y01852D02*
Y01912D01*
X037883D01*
Y01852D02*
Y01912D01*
X038963Y01852D02*
X037883D01*
X043033Y011998D02*
X042433D01*
X043033D02*
Y013078D01*
X042433D01*
Y011998D02*
Y013078D01*
X036688Y014805D02*
Y015405D01*
X035608D01*
Y014805D02*
Y015405D01*
X036688Y014805D02*
X035608D01*
X036688Y014095D02*
Y014695D01*
X035608D01*
Y014095D02*
Y014695D01*
X036688Y014095D02*
X035608D01*
X038963Y019231D02*
Y019831D01*
X037883D01*
Y019231D02*
Y019831D01*
X038963Y019231D02*
X037883D01*
X040863Y011998D02*
Y012598D01*
X041943Y011998D02*
X040863D01*
X041943D02*
Y012598D01*
X040863D01*
X039933Y010597D02*
Y011197D01*
X041013Y010597D02*
X039933D01*
X041013D02*
Y011197D01*
X039933D01*
X042503Y013967D02*
Y014567D01*
X041423D01*
Y013967D02*
Y014567D01*
X042503Y013967D02*
X041423D01*
X042503Y013247D02*
Y013847D01*
X041423D01*
Y013247D02*
Y013847D01*
X042503Y013247D02*
X041423D01*
X04344Y020568D02*
Y021168D01*
X04236D01*
Y020568D02*
Y021168D01*
X04344Y020568D02*
X04236D01*
X04344Y019858D02*
Y020458D01*
X04236D01*
Y019858D02*
Y020458D01*
X04344Y019858D02*
X04236D01*
X04344Y019147D02*
Y019747D01*
X04236D01*
Y019147D02*
Y019747D01*
X04344Y019147D02*
X04236D01*
X039606Y012747D02*
Y013347D01*
X040686Y012747D02*
X039606D01*
X040686D02*
Y013347D01*
X039606D01*
X039593Y013475D02*
Y014075D01*
X040673Y013475D02*
X039593D01*
X040673D02*
Y014075D01*
X039593D01*
Y014185D02*
Y014785D01*
X040673Y014185D02*
X039593D01*
X040673D02*
Y014785D01*
X039593D01*
X038226Y027614D02*
Y030238D01*
X037187D01*
X037176Y030227D02*
X037187Y030238D01*
X037176Y028996D02*
Y030227D01*
Y028205D02*
Y028996D01*
X037613Y026575D02*
X037176Y027012D01*
Y027614D01*
X037613Y025475D02*
Y026575D01*
X039613D02*
X037613D01*
X039613Y025515D02*
Y026575D01*
X039573Y025475D02*
X039613Y025515D01*
X039573Y025475D02*
X037613D01*
X038963Y033358D02*
Y033958D01*
X037883D01*
Y033358D02*
Y033958D01*
X038963Y033358D02*
X037883D01*
X043033Y026835D02*
X042433D01*
X043033D02*
Y027915D01*
X042433D01*
Y026835D02*
Y027915D01*
X036688Y029643D02*
Y030243D01*
X035608D01*
Y029643D02*
Y030243D01*
X036688Y029643D02*
X035608D01*
X036688Y028932D02*
Y029532D01*
X035608D01*
Y028932D02*
Y029532D01*
X036688Y028932D02*
X035608D01*
X038963Y034068D02*
Y034668D01*
X037883D01*
Y034068D02*
Y034668D01*
X038963Y034068D02*
X037883D01*
X040863Y026835D02*
Y027435D01*
X041943Y026835D02*
X040863D01*
X041943D02*
Y027435D01*
X040863D01*
X039933Y025435D02*
Y026035D01*
X041013Y025435D02*
X039933D01*
X041013D02*
Y026035D01*
X039933D01*
X042503Y028805D02*
Y029405D01*
X041423D01*
Y028805D02*
Y029405D01*
X042503Y028805D02*
X041423D01*
X042503Y028085D02*
Y028685D01*
X041423D01*
Y028085D02*
Y028685D01*
X042503Y028085D02*
X041423D01*
X04344Y035406D02*
Y036006D01*
X04236D01*
Y035406D02*
Y036006D01*
X04344Y035406D02*
X04236D01*
X04344Y034695D02*
Y035295D01*
X04236D01*
Y034695D02*
Y035295D01*
X04344Y034695D02*
X04236D01*
X04344Y033985D02*
Y034585D01*
X04236D01*
Y033985D02*
Y034585D01*
X04344Y033985D02*
X04236D01*
X039606Y027585D02*
Y028185D01*
X040686Y027585D02*
X039606D01*
X040686D02*
Y028185D01*
X039606D01*
X039593Y028312D02*
Y028912D01*
X040673Y028312D02*
X039593D01*
X040673D02*
Y028912D01*
X039593D01*
Y029023D02*
Y029623D01*
X040673Y029023D02*
X039593D01*
X040673D02*
Y029623D01*
X039593D01*
X025739Y012777D02*
Y0154D01*
X0247D01*
X024689Y015389D02*
X0247Y0154D01*
X024689Y014158D02*
Y015389D01*
Y013367D02*
Y014158D01*
X025126Y011737D02*
X024689Y012175D01*
Y012777D01*
X025126Y010637D02*
Y011737D01*
X027126D02*
X025126D01*
X027126Y010677D02*
Y011737D01*
X027086Y010637D02*
X027126Y010677D01*
X027086Y010637D02*
X025126D01*
X026476Y01852D02*
Y01912D01*
X025396D01*
Y01852D02*
Y01912D01*
X026476Y01852D02*
X025396D01*
X030546Y011998D02*
X029946D01*
X030546D02*
Y013078D01*
X029946D01*
Y011998D02*
Y013078D01*
X0242Y014805D02*
Y015405D01*
X02312D01*
Y014805D02*
Y015405D01*
X0242Y014805D02*
X02312D01*
X0242Y014095D02*
Y014695D01*
X02312D01*
Y014095D02*
Y014695D01*
X0242Y014095D02*
X02312D01*
X026476Y019231D02*
Y019831D01*
X025396D01*
Y019231D02*
Y019831D01*
X026476Y019231D02*
X025396D01*
X028376Y011998D02*
Y012598D01*
X029456Y011998D02*
X028376D01*
X029456D02*
Y012598D01*
X028376D01*
X027446Y010597D02*
Y011197D01*
X028526Y010597D02*
X027446D01*
X028526D02*
Y011197D01*
X027446D01*
X030016Y013967D02*
Y014567D01*
X028936D01*
Y013967D02*
Y014567D01*
X030016Y013967D02*
X028936D01*
X030016Y013247D02*
Y013847D01*
X028936D01*
Y013247D02*
Y013847D01*
X030016Y013247D02*
X028936D01*
X030953Y020568D02*
Y021168D01*
X029873D01*
Y020568D02*
Y021168D01*
X030953Y020568D02*
X029873D01*
X030953Y019858D02*
Y020458D01*
X029873D01*
Y019858D02*
Y020458D01*
X030953Y019858D02*
X029873D01*
X030953Y019147D02*
Y019747D01*
X029873D01*
Y019147D02*
Y019747D01*
X030953Y019147D02*
X029873D01*
X027119Y012747D02*
Y013347D01*
X028199Y012747D02*
X027119D01*
X028199D02*
Y013347D01*
X027119D01*
X027106Y013475D02*
Y014075D01*
X028186Y013475D02*
X027106D01*
X028186D02*
Y014075D01*
X027106D01*
Y014185D02*
Y014785D01*
X028186Y014185D02*
X027106D01*
X028186D02*
Y014785D01*
X027106D01*
X025739Y027614D02*
Y030238D01*
X0247D01*
X024689Y030227D02*
X0247Y030238D01*
X024689Y028996D02*
Y030227D01*
Y028205D02*
Y028996D01*
X025126Y026575D02*
X024689Y027012D01*
Y027614D01*
X025126Y025475D02*
Y026575D01*
X027126D02*
X025126D01*
X027126Y025515D02*
Y026575D01*
X027086Y025475D02*
X027126Y025515D01*
X027086Y025475D02*
X025126D01*
X026476Y033358D02*
Y033958D01*
X025396D01*
Y033358D02*
Y033958D01*
X026476Y033358D02*
X025396D01*
X030546Y026835D02*
X029946D01*
X030546D02*
Y027915D01*
X029946D01*
Y026835D02*
Y027915D01*
X0242Y029643D02*
Y030243D01*
X02312D01*
Y029643D02*
Y030243D01*
X0242Y029643D02*
X02312D01*
X0242Y028932D02*
Y029532D01*
X02312D01*
Y028932D02*
Y029532D01*
X0242Y028932D02*
X02312D01*
X026476Y034068D02*
Y034668D01*
X025396D01*
Y034068D02*
Y034668D01*
X026476Y034068D02*
X025396D01*
X028376Y026835D02*
Y027435D01*
X029456Y026835D02*
X028376D01*
X029456D02*
Y027435D01*
X028376D01*
X027446Y025435D02*
Y026035D01*
X028526Y025435D02*
X027446D01*
X028526D02*
Y026035D01*
X027446D01*
X030016Y028805D02*
Y029405D01*
X028936D01*
Y028805D02*
Y029405D01*
X030016Y028805D02*
X028936D01*
X030016Y028085D02*
Y028685D01*
X028936D01*
Y028085D02*
Y028685D01*
X030016Y028085D02*
X028936D01*
X030953Y035406D02*
Y036006D01*
X029873D01*
Y035406D02*
Y036006D01*
X030953Y035406D02*
X029873D01*
X030953Y034695D02*
Y035295D01*
X029873D01*
Y034695D02*
Y035295D01*
X030953Y034695D02*
X029873D01*
X030953Y033985D02*
Y034585D01*
X029873D01*
Y033985D02*
Y034585D01*
X030953Y033985D02*
X029873D01*
X027119Y027585D02*
Y028185D01*
X028199Y027585D02*
X027119D01*
X028199D02*
Y028185D01*
X027119D01*
X027106Y028312D02*
Y028912D01*
X028186Y028312D02*
X027106D01*
X028186D02*
Y028912D01*
X027106D01*
Y029023D02*
Y029623D01*
X028186Y029023D02*
X027106D01*
X028186D02*
Y029623D01*
X027106D01*
X013251Y012777D02*
Y0154D01*
X012213D01*
X012201Y015389D02*
X012213Y0154D01*
X012201Y014158D02*
Y015389D01*
Y013367D02*
Y014158D01*
X012638Y011737D02*
X012201Y012175D01*
Y012777D01*
X012638Y010637D02*
Y011737D01*
X014638D02*
X012638D01*
X014638Y010677D02*
Y011737D01*
X014598Y010637D02*
X014638Y010677D01*
X014598Y010637D02*
X012638D01*
X013988Y01852D02*
Y01912D01*
X012908D01*
Y01852D02*
Y01912D01*
X013988Y01852D02*
X012908D01*
X018058Y011998D02*
X017458D01*
X018058D02*
Y013078D01*
X017458D01*
Y011998D02*
Y013078D01*
X011713Y014805D02*
Y015405D01*
X010633D01*
Y014805D02*
Y015405D01*
X011713Y014805D02*
X010633D01*
X011713Y014095D02*
Y014695D01*
X010633D01*
Y014095D02*
Y014695D01*
X011713Y014095D02*
X010633D01*
X013988Y019231D02*
Y019831D01*
X012908D01*
Y019231D02*
Y019831D01*
X013988Y019231D02*
X012908D01*
X015888Y011998D02*
Y012598D01*
X016968Y011998D02*
X015888D01*
X016968D02*
Y012598D01*
X015888D01*
X014958Y010597D02*
Y011197D01*
X016038Y010597D02*
X014958D01*
X016038D02*
Y011197D01*
X014958D01*
X017528Y013967D02*
Y014567D01*
X016448D01*
Y013967D02*
Y014567D01*
X017528Y013967D02*
X016448D01*
X017528Y013247D02*
Y013847D01*
X016448D01*
Y013247D02*
Y013847D01*
X017528Y013247D02*
X016448D01*
X018466Y020568D02*
Y021168D01*
X017386D01*
Y020568D02*
Y021168D01*
X018466Y020568D02*
X017386D01*
X018466Y019858D02*
Y020458D01*
X017386D01*
Y019858D02*
Y020458D01*
X018466Y019858D02*
X017386D01*
X018466Y019147D02*
Y019747D01*
X017386D01*
Y019147D02*
Y019747D01*
X018466Y019147D02*
X017386D01*
X014631Y012747D02*
Y013347D01*
X015711Y012747D02*
X014631D01*
X015711D02*
Y013347D01*
X014631D01*
X014618Y013475D02*
Y014075D01*
X015698Y013475D02*
X014618D01*
X015698D02*
Y014075D01*
X014618D01*
Y014185D02*
Y014785D01*
X015698Y014185D02*
X014618D01*
X015698D02*
Y014785D01*
X014618D01*
X013251Y027614D02*
Y030238D01*
X012213D01*
X012201Y030227D02*
X012213Y030238D01*
X012201Y028996D02*
Y030227D01*
Y028205D02*
Y028996D01*
X012638Y026575D02*
X012201Y027012D01*
Y027614D01*
X012638Y025475D02*
Y026575D01*
X014638D02*
X012638D01*
X014638Y025515D02*
Y026575D01*
X014598Y025475D02*
X014638Y025515D01*
X014598Y025475D02*
X012638D01*
X013988Y033358D02*
Y033958D01*
X012908D01*
Y033358D02*
Y033958D01*
X013988Y033358D02*
X012908D01*
X018058Y026835D02*
X017458D01*
X018058D02*
Y027915D01*
X017458D01*
Y026835D02*
Y027915D01*
X011713Y029643D02*
Y030243D01*
X010633D01*
Y029643D02*
Y030243D01*
X011713Y029643D02*
X010633D01*
X011713Y028932D02*
Y029532D01*
X010633D01*
Y028932D02*
Y029532D01*
X011713Y028932D02*
X010633D01*
X013988Y034068D02*
Y034668D01*
X012908D01*
Y034068D02*
Y034668D01*
X013988Y034068D02*
X012908D01*
X015888Y026835D02*
Y027435D01*
X016968Y026835D02*
X015888D01*
X016968D02*
Y027435D01*
X015888D01*
X014958Y025435D02*
Y026035D01*
X016038Y025435D02*
X014958D01*
X016038D02*
Y026035D01*
X014958D01*
X017528Y028805D02*
Y029405D01*
X016448D01*
Y028805D02*
Y029405D01*
X017528Y028805D02*
X016448D01*
X017528Y028085D02*
Y028685D01*
X016448D01*
Y028085D02*
Y028685D01*
X017528Y028085D02*
X016448D01*
X018466Y035406D02*
Y036006D01*
X017386D01*
Y035406D02*
Y036006D01*
X018466Y035406D02*
X017386D01*
X018466Y034695D02*
Y035295D01*
X017386D01*
Y034695D02*
Y035295D01*
X018466Y034695D02*
X017386D01*
X018466Y033985D02*
Y034585D01*
X017386D01*
Y033985D02*
Y034585D01*
X018466Y033985D02*
X017386D01*
X014631Y027585D02*
Y028185D01*
X015711Y027585D02*
X014631D01*
X015711D02*
Y028185D01*
X014631D01*
X014618Y028312D02*
Y028912D01*
X015698Y028312D02*
X014618D01*
X015698D02*
Y028912D01*
X014618D01*
Y029023D02*
Y029623D01*
X015698Y029023D02*
X014618D01*
X015698D02*
Y029623D01*
X014618D01*
D34*
X038226Y014754D02*
X037176D01*
X038226Y014154D02*
Y014754D01*
Y014154D02*
X037176D01*
Y014754D01*
X038226Y013372D02*
X037176D01*
X038226Y012772D02*
Y013372D01*
Y012772D02*
X037176D01*
Y013372D01*
X037169Y013752D02*
X036912D01*
X03704Y013881D02*
Y013624D01*
X037169Y015134D02*
X036912D01*
X03704Y015263D02*
Y015006D01*
X038226Y029591D02*
X037176D01*
X038226Y028991D02*
Y029591D01*
Y028991D02*
X037176D01*
Y029591D01*
X038226Y028209D02*
X037176D01*
X038226Y027609D02*
Y028209D01*
Y027609D02*
X037176D01*
Y028209D01*
X037169Y02859D02*
X036912D01*
X03704Y028718D02*
Y028461D01*
X037169Y029972D02*
X036912D01*
X03704Y0301D02*
Y029843D01*
X025739Y014754D02*
X024689D01*
X025739Y014154D02*
Y014754D01*
Y014154D02*
X024689D01*
Y014754D01*
X025739Y013372D02*
X024689D01*
X025739Y012772D02*
Y013372D01*
Y012772D02*
X024689D01*
Y013372D01*
X024681Y013752D02*
X024424D01*
X024553Y013881D02*
Y013624D01*
X024681Y015134D02*
X024424D01*
X024553Y015263D02*
Y015006D01*
X025739Y029591D02*
X024689D01*
X025739Y028991D02*
Y029591D01*
Y028991D02*
X024689D01*
Y029591D01*
X025739Y028209D02*
X024689D01*
X025739Y027609D02*
Y028209D01*
Y027609D02*
X024689D01*
Y028209D01*
X024681Y02859D02*
X024424D01*
X024553Y028718D02*
Y028461D01*
X024681Y029972D02*
X024424D01*
X024553Y0301D02*
Y029843D01*
X013251Y014754D02*
X012201D01*
X013251Y014154D02*
Y014754D01*
Y014154D02*
X012201D01*
Y014754D01*
X013251Y013372D02*
X012201D01*
X013251Y012772D02*
Y013372D01*
Y012772D02*
X012201D01*
Y013372D01*
X012194Y013752D02*
X011937D01*
X012066Y013881D02*
Y013624D01*
X012194Y015134D02*
X011937D01*
X012066Y015263D02*
Y015006D01*
X013251Y029591D02*
X012201D01*
X013251Y028991D02*
Y029591D01*
Y028991D02*
X012201D01*
Y029591D01*
X013251Y028209D02*
X012201D01*
X013251Y027609D02*
Y028209D01*
Y027609D02*
X012201D01*
Y028209D01*
X012194Y02859D02*
X011937D01*
X012066Y028718D02*
Y028461D01*
X012194Y029972D02*
X011937D01*
X012066Y0301D02*
Y029843D01*
D35*
X037103Y010358D02*
X037026Y010572D01*
X03701Y010622D01*
X036988Y01066D01*
X036944Y010737D01*
X036894Y010798D01*
X036867Y010827D01*
X036825Y010864D01*
X036785Y010891D01*
X036734Y01092D01*
X036609Y010987D01*
X036534Y011027D01*
X036438Y011067D01*
X036411Y011075D01*
X03631Y011104D01*
X036254Y011114D01*
X03616Y011128D01*
X036096Y011133D01*
X036038Y011138D01*
X035968Y011136D02*
X036038Y011138D01*
X035934Y01113D02*
X035968Y011136D01*
X037103Y010358D02*
X037026Y010572D01*
X03701Y010622D01*
X036988Y01066D01*
X036944Y010737D01*
X036894Y010798D01*
X036867Y010827D01*
X036825Y010864D01*
X036785Y010891D01*
X036734Y01092D01*
X036609Y010987D01*
X036534Y011027D01*
X036438Y011067D01*
X036411Y011075D01*
X03631Y011104D01*
X036254Y011114D01*
X03616Y011128D01*
X036096Y011133D01*
X036038Y011138D01*
X035968Y011136D02*
X036038Y011138D01*
X035934Y01113D02*
X035968Y011136D01*
X037103Y025195D02*
X037026Y02541D01*
X03701Y025459D01*
X036988Y025498D01*
X036944Y025575D01*
X036894Y025635D01*
X036867Y025664D01*
X036825Y025701D01*
X036785Y025728D01*
X036734Y025758D01*
X036609Y025824D01*
X036534Y025864D01*
X036438Y025904D01*
X036411Y025912D01*
X03631Y025941D01*
X036254Y025952D01*
X03616Y025965D01*
X036096Y02597D01*
X036038Y025976D01*
X035968Y025973D02*
X036038Y025976D01*
X035934Y025968D02*
X035968Y025973D01*
X037103Y025195D02*
X037026Y02541D01*
X03701Y025459D01*
X036988Y025498D01*
X036944Y025575D01*
X036894Y025635D01*
X036867Y025664D01*
X036825Y025701D01*
X036785Y025728D01*
X036734Y025758D01*
X036609Y025824D01*
X036534Y025864D01*
X036438Y025904D01*
X036411Y025912D01*
X03631Y025941D01*
X036254Y025952D01*
X03616Y025965D01*
X036096Y02597D01*
X036038Y025976D01*
X035968Y025973D02*
X036038Y025976D01*
X035934Y025968D02*
X035968Y025973D01*
X024616Y010358D02*
X024539Y010572D01*
X024523Y010622D01*
X024501Y01066D01*
X024457Y010737D01*
X024407Y010798D01*
X02438Y010827D01*
X024337Y010864D01*
X024297Y010891D01*
X024247Y01092D01*
X024121Y010987D01*
X024047Y011027D01*
X023951Y011067D01*
X023924Y011075D01*
X023822Y011104D01*
X023766Y011114D01*
X023673Y011128D01*
X023609Y011133D01*
X02355Y011138D01*
X023481Y011136D02*
X02355Y011138D01*
X023446Y01113D02*
X023481Y011136D01*
X024616Y010358D02*
X024539Y010572D01*
X024523Y010622D01*
X024501Y01066D01*
X024457Y010737D01*
X024407Y010798D01*
X02438Y010827D01*
X024337Y010864D01*
X024297Y010891D01*
X024247Y01092D01*
X024121Y010987D01*
X024047Y011027D01*
X023951Y011067D01*
X023924Y011075D01*
X023822Y011104D01*
X023766Y011114D01*
X023673Y011128D01*
X023609Y011133D01*
X02355Y011138D01*
X023481Y011136D02*
X02355Y011138D01*
X023446Y01113D02*
X023481Y011136D01*
X024616Y025195D02*
X024539Y02541D01*
X024523Y025459D01*
X024501Y025498D01*
X024457Y025575D01*
X024407Y025635D01*
X02438Y025664D01*
X024337Y025701D01*
X024297Y025728D01*
X024247Y025758D01*
X024121Y025824D01*
X024047Y025864D01*
X023951Y025904D01*
X023924Y025912D01*
X023822Y025941D01*
X023766Y025952D01*
X023673Y025965D01*
X023609Y02597D01*
X02355Y025976D01*
X023481Y025973D02*
X02355Y025976D01*
X023446Y025968D02*
X023481Y025973D01*
X024616Y025195D02*
X024539Y02541D01*
X024523Y025459D01*
X024501Y025498D01*
X024457Y025575D01*
X024407Y025635D01*
X02438Y025664D01*
X024337Y025701D01*
X024297Y025728D01*
X024247Y025758D01*
X024121Y025824D01*
X024047Y025864D01*
X023951Y025904D01*
X023924Y025912D01*
X023822Y025941D01*
X023766Y025952D01*
X023673Y025965D01*
X023609Y02597D01*
X02355Y025976D01*
X023481Y025973D02*
X02355Y025976D01*
X023446Y025968D02*
X023481Y025973D01*
X012129Y010358D02*
X012052Y010572D01*
X012035Y010622D01*
X012013Y01066D01*
X011969Y010737D01*
X01192Y010798D01*
X011893Y010827D01*
X01185Y010864D01*
X01181Y010891D01*
X011759Y01092D01*
X011634Y010987D01*
X011559Y011027D01*
X011463Y011067D01*
X011437Y011075D01*
X011335Y011104D01*
X011279Y011114D01*
X011186Y011128D01*
X011122Y011133D01*
X011063Y011138D01*
X010994Y011136D02*
X011063Y011138D01*
X010959Y01113D02*
X010994Y011136D01*
X012129Y010358D02*
X012052Y010572D01*
X012035Y010622D01*
X012013Y01066D01*
X011969Y010737D01*
X01192Y010798D01*
X011893Y010827D01*
X01185Y010864D01*
X01181Y010891D01*
X011759Y01092D01*
X011634Y010987D01*
X011559Y011027D01*
X011463Y011067D01*
X011437Y011075D01*
X011335Y011104D01*
X011279Y011114D01*
X011186Y011128D01*
X011122Y011133D01*
X011063Y011138D01*
X010994Y011136D02*
X011063Y011138D01*
X010959Y01113D02*
X010994Y011136D01*
X012129Y025195D02*
X012052Y02541D01*
X012035Y025459D01*
X012013Y025498D01*
X011969Y025575D01*
X01192Y025635D01*
X011893Y025664D01*
X01185Y025701D01*
X01181Y025728D01*
X011759Y025758D01*
X011634Y025824D01*
X011559Y025864D01*
X011463Y025904D01*
X011437Y025912D01*
X011335Y025941D01*
X011279Y025952D01*
X011186Y025965D01*
X011122Y02597D01*
X011063Y025976D01*
X010994Y025973D02*
X011063Y025976D01*
X010959Y025968D02*
X010994Y025973D01*
X012129Y025195D02*
X012052Y02541D01*
X012035Y025459D01*
X012013Y025498D01*
X011969Y025575D01*
X01192Y025635D01*
X011893Y025664D01*
X01185Y025701D01*
X01181Y025728D01*
X011759Y025758D01*
X011634Y025824D01*
X011559Y025864D01*
X011463Y025904D01*
X011437Y025912D01*
X011335Y025941D01*
X011279Y025952D01*
X011186Y025965D01*
X011122Y02597D01*
X011063Y025976D01*
X010994Y025973D02*
X011063Y025976D01*
X010959Y025968D02*
X010994Y025973D01*
D36*
X042567Y021569D02*
Y023498D01*
X046622D02*
X042567D01*
X046622Y021569D02*
Y023498D01*
Y021569D02*
X042567D01*
X044145Y013776D02*
Y020981D01*
X046074Y013776D02*
X044145D01*
X046074D02*
Y020981D01*
X044145D01*
X046074Y01196D02*
X043712D01*
X046074Y013495D02*
X043712D01*
X046074Y01196D02*
Y012334D01*
X043712Y01196D02*
Y012334D01*
X046074Y013121D02*
Y013495D01*
X043712Y013121D02*
Y013495D01*
X042626Y015727D02*
X040421D01*
X042626Y018168D02*
X040421D01*
X040303Y015845D02*
Y01805D01*
X042744Y015845D02*
Y01805D01*
X040421Y015727D02*
X040303Y015845D01*
Y01805D02*
X040421Y018168D01*
X042626Y015727D02*
X042744Y015845D01*
Y01805D02*
X042626Y018168D01*
X040421Y015727D02*
Y016318D01*
X040618D02*
X040421D01*
X040618Y015727D02*
Y016318D01*
X037472Y018684D02*
X035543D01*
Y021164D01*
X037472D02*
X035543D01*
X037472Y018684D02*
Y021164D01*
X04214Y023437D02*
X038006D01*
Y021094D02*
Y023437D01*
X04214Y021094D02*
X038006D01*
X04214D02*
Y023437D01*
X037874Y018266D02*
X036772D01*
X037874Y015629D02*
X036772D01*
Y018266D01*
X037874Y015629D02*
Y018266D01*
X042567Y036406D02*
Y038336D01*
X046622D02*
X042567D01*
X046622Y036406D02*
Y038336D01*
Y036406D02*
X042567D01*
X044145Y028614D02*
Y035818D01*
X046074Y028614D02*
X044145D01*
X046074D02*
Y035818D01*
X044145D01*
X046074Y026797D02*
X043712D01*
X046074Y028333D02*
X043712D01*
X046074Y026797D02*
Y027171D01*
X043712Y026797D02*
Y027171D01*
X046074Y027959D02*
Y028333D01*
X043712Y027959D02*
Y028333D01*
X042626Y030564D02*
X040421D01*
X042626Y033005D02*
X040421D01*
X040303Y030682D02*
Y032887D01*
X042744Y030682D02*
Y032887D01*
X040421Y030564D02*
X040303Y030682D01*
Y032887D02*
X040421Y033005D01*
X042626Y030564D02*
X042744Y030682D01*
Y032887D02*
X042626Y033005D01*
X040421Y030564D02*
Y031155D01*
X040618D02*
X040421D01*
X040618Y030564D02*
Y031155D01*
X037472Y033522D02*
X035543D01*
Y036002D01*
X037472D02*
X035543D01*
X037472Y033522D02*
Y036002D01*
X04214Y038274D02*
X038006D01*
Y035932D02*
Y038274D01*
X04214Y035932D02*
X038006D01*
X04214D02*
Y038274D01*
X037874Y033104D02*
X036772D01*
X037874Y030466D02*
X036772D01*
Y033104D01*
X037874Y030466D02*
Y033104D01*
X03008Y021569D02*
Y023498D01*
X034135D02*
X03008D01*
X034135Y021569D02*
Y023498D01*
Y021569D02*
X03008D01*
X031657Y013776D02*
Y020981D01*
X033587Y013776D02*
X031657D01*
X033587D02*
Y020981D01*
X031657D01*
X033587Y01196D02*
X031225D01*
X033587Y013495D02*
X031225D01*
X033587Y01196D02*
Y012334D01*
X031225Y01196D02*
Y012334D01*
X033587Y013121D02*
Y013495D01*
X031225Y013121D02*
Y013495D01*
X030138Y015727D02*
X027933D01*
X030138Y018168D02*
X027933D01*
X027815Y015845D02*
Y01805D01*
X030256Y015845D02*
Y01805D01*
X027933Y015727D02*
X027815Y015845D01*
Y01805D02*
X027933Y018168D01*
X030138Y015727D02*
X030256Y015845D01*
Y01805D02*
X030138Y018168D01*
X027933Y015727D02*
Y016318D01*
X02813D02*
X027933D01*
X02813Y015727D02*
Y016318D01*
X024985Y018684D02*
X023056D01*
Y021164D01*
X024985D02*
X023056D01*
X024985Y018684D02*
Y021164D01*
X029653Y023437D02*
X025519D01*
Y021094D02*
Y023437D01*
X029653Y021094D02*
X025519D01*
X029653D02*
Y023437D01*
X025387Y018266D02*
X024285D01*
X025387Y015629D02*
X024285D01*
Y018266D01*
X025387Y015629D02*
Y018266D01*
X03008Y036406D02*
Y038336D01*
X034135D02*
X03008D01*
X034135Y036406D02*
Y038336D01*
Y036406D02*
X03008D01*
X031657Y028614D02*
Y035818D01*
X033587Y028614D02*
X031657D01*
X033587D02*
Y035818D01*
X031657D01*
X033587Y026797D02*
X031225D01*
X033587Y028333D02*
X031225D01*
X033587Y026797D02*
Y027171D01*
X031225Y026797D02*
Y027171D01*
X033587Y027959D02*
Y028333D01*
X031225Y027959D02*
Y028333D01*
X030138Y030564D02*
X027933D01*
X030138Y033005D02*
X027933D01*
X027815Y030682D02*
Y032887D01*
X030256Y030682D02*
Y032887D01*
X027933Y030564D02*
X027815Y030682D01*
Y032887D02*
X027933Y033005D01*
X030138Y030564D02*
X030256Y030682D01*
Y032887D02*
X030138Y033005D01*
X027933Y030564D02*
Y031155D01*
X02813D02*
X027933D01*
X02813Y030564D02*
Y031155D01*
X024985Y033522D02*
X023056D01*
Y036002D01*
X024985D02*
X023056D01*
X024985Y033522D02*
Y036002D01*
X029653Y038274D02*
X025519D01*
Y035932D02*
Y038274D01*
X029653Y035932D02*
X025519D01*
X029653D02*
Y038274D01*
X025387Y033104D02*
X024285D01*
X025387Y030466D02*
X024285D01*
Y033104D01*
X025387Y030466D02*
Y033104D01*
X017593Y021569D02*
Y023498D01*
X021648D02*
X017593D01*
X021648Y021569D02*
Y023498D01*
Y021569D02*
X017593D01*
X01917Y013776D02*
Y020981D01*
X021099Y013776D02*
X01917D01*
X021099D02*
Y020981D01*
X01917D01*
X021099Y01196D02*
X018737D01*
X021099Y013495D02*
X018737D01*
X021099Y01196D02*
Y012334D01*
X018737Y01196D02*
Y012334D01*
X021099Y013121D02*
Y013495D01*
X018737Y013121D02*
Y013495D01*
X017651Y015727D02*
X015446D01*
X017651Y018168D02*
X015446D01*
X015328Y015845D02*
Y01805D01*
X017769Y015845D02*
Y01805D01*
X015446Y015727D02*
X015328Y015845D01*
Y01805D02*
X015446Y018168D01*
X017651Y015727D02*
X017769Y015845D01*
Y01805D02*
X017651Y018168D01*
X015446Y015727D02*
Y016318D01*
X015643D02*
X015446D01*
X015643Y015727D02*
Y016318D01*
X012497Y018684D02*
X010568D01*
Y021164D01*
X012497D02*
X010568D01*
X012497Y018684D02*
Y021164D01*
X017165Y023437D02*
X013031D01*
Y021094D02*
Y023437D01*
X017165Y021094D02*
X013031D01*
X017165D02*
Y023437D01*
X0129Y018266D02*
X011797D01*
X0129Y015629D02*
X011797D01*
Y018266D01*
X0129Y015629D02*
Y018266D01*
X017593Y036406D02*
Y038336D01*
X021648D02*
X017593D01*
X021648Y036406D02*
Y038336D01*
Y036406D02*
X017593D01*
X01917Y028614D02*
Y035818D01*
X021099Y028614D02*
X01917D01*
X021099D02*
Y035818D01*
X01917D01*
X021099Y026797D02*
X018737D01*
X021099Y028333D02*
X018737D01*
X021099Y026797D02*
Y027171D01*
X018737Y026797D02*
Y027171D01*
X021099Y027959D02*
Y028333D01*
X018737Y027959D02*
Y028333D01*
X017651Y030564D02*
X015446D01*
X017651Y033005D02*
X015446D01*
X015328Y030682D02*
Y032887D01*
X017769Y030682D02*
Y032887D01*
X015446Y030564D02*
X015328Y030682D01*
Y032887D02*
X015446Y033005D01*
X017651Y030564D02*
X017769Y030682D01*
Y032887D02*
X017651Y033005D01*
X015446Y030564D02*
Y031155D01*
X015643D02*
X015446D01*
X015643Y030564D02*
Y031155D01*
X012497Y033522D02*
X010568D01*
Y036002D01*
X012497D02*
X010568D01*
X012497Y033522D02*
Y036002D01*
X017165Y038274D02*
X013031D01*
Y035932D02*
Y038274D01*
X017165Y035932D02*
X013031D01*
X017165D02*
Y038274D01*
X0129Y033104D02*
X011797D01*
X0129Y030466D02*
X011797D01*
Y033104D01*
X0129Y030466D02*
Y033104D01*
D37*
X037308Y011002D02*
X036934D01*
Y011189D01*
X036996Y011252D01*
X037121D01*
X037184Y011189D01*
Y011002D01*
X036934Y011377D02*
Y011502D01*
Y011439D01*
X037308D01*
Y011377D01*
Y011502D01*
X036934Y011939D02*
Y011689D01*
X037121D01*
Y011814D01*
Y011689D01*
X037308D01*
Y025839D02*
X036934D01*
Y026027D01*
X036996Y026089D01*
X037121D01*
X037184Y026027D01*
Y025839D01*
X036934Y026214D02*
Y026339D01*
Y026277D01*
X037308D01*
Y026214D01*
Y026339D01*
X036934Y026776D02*
Y026526D01*
X037121D01*
Y026651D01*
Y026526D01*
X037308D01*
X024821Y011002D02*
X024446D01*
Y011189D01*
X024509Y011252D01*
X024634D01*
X024696Y011189D01*
Y011002D01*
X024446Y011377D02*
Y011502D01*
Y011439D01*
X024821D01*
Y011377D01*
Y011502D01*
X024446Y011939D02*
Y011689D01*
X024634D01*
Y011814D01*
Y011689D01*
X024821D01*
Y025839D02*
X024446D01*
Y026027D01*
X024509Y026089D01*
X024634D01*
X024696Y026027D01*
Y025839D01*
X024446Y026214D02*
Y026339D01*
Y026277D01*
X024821D01*
Y026214D01*
Y026339D01*
X024446Y026776D02*
Y026526D01*
X024634D01*
Y026651D01*
Y026526D01*
X024821D01*
X012334Y011002D02*
X011959D01*
Y011189D01*
X012021Y011252D01*
X012146D01*
X012209Y011189D01*
Y011002D01*
X011959Y011377D02*
Y011502D01*
Y011439D01*
X012334D01*
Y011377D01*
Y011502D01*
X011959Y011939D02*
Y011689D01*
X012146D01*
Y011814D01*
Y011689D01*
X012334D01*
Y025839D02*
X011959D01*
Y026027D01*
X012021Y026089D01*
X012146D01*
X012209Y026027D01*
Y025839D01*
X011959Y026214D02*
Y026339D01*
Y026277D01*
X012334D01*
Y026214D01*
Y026339D01*
X011959Y026776D02*
Y026526D01*
X012146D01*
Y026651D01*
Y026526D01*
X012334D01*
M02*
