G04*
G04 #@! TF.GenerationSoftware,Altium Limited,Altium Designer,22.7.1 (60)*
G04*
G04 Layer_Color=8421504*
%FSTAX24Y24*%
%MOIN*%
G70*
G04*
G04 #@! TF.SameCoordinates,6CD0EBB0-E617-4DF7-9ACC-651BA77C9F88*
G04*
G04*
G04 #@! TF.FilePolarity,Positive*
G04*
G01*
G75*
%ADD10R,0.0315X0.0315*%
%ADD11R,0.0315X0.0374*%
%ADD12R,0.0100X0.0100*%
%ADD13R,0.0591X0.0551*%
%ADD14R,0.0374X0.0315*%
%ADD15R,0.0610X0.0374*%
%ADD16O,0.0217X0.0571*%
%ADD17O,0.0571X0.0217*%
%ADD18R,0.0945X0.1299*%
%ADD19R,0.0945X0.0394*%
D10*
X037424Y013763D02*
D03*
X038054D02*
D03*
X037424Y015145D02*
D03*
X038054D02*
D03*
X037424Y0286D02*
D03*
X038054D02*
D03*
X037424Y029982D02*
D03*
X038054D02*
D03*
X024936Y013763D02*
D03*
X025566D02*
D03*
X024936Y015145D02*
D03*
X025566D02*
D03*
X024936Y0286D02*
D03*
X025566D02*
D03*
X024936Y029982D02*
D03*
X025566D02*
D03*
X012449Y013763D02*
D03*
X013079D02*
D03*
X012449Y015145D02*
D03*
X013079D02*
D03*
X012449Y0286D02*
D03*
X013079D02*
D03*
X012449Y029982D02*
D03*
X013079D02*
D03*
D11*
X037972Y014454D02*
D03*
X03742D02*
D03*
X037972Y013072D02*
D03*
X03742D02*
D03*
X038148Y01882D02*
D03*
X038699D02*
D03*
X035872Y015105D02*
D03*
X036423D02*
D03*
X035872Y014395D02*
D03*
X036423D02*
D03*
X038148Y019531D02*
D03*
X038699D02*
D03*
X041679Y012298D02*
D03*
X041128D02*
D03*
X040749Y010897D02*
D03*
X040198D02*
D03*
X041688Y014267D02*
D03*
X042239D02*
D03*
X041688Y013547D02*
D03*
X042239D02*
D03*
X042625Y020868D02*
D03*
X043176D02*
D03*
X042625Y020158D02*
D03*
X043176D02*
D03*
X042625Y019447D02*
D03*
X043176D02*
D03*
X040422Y013047D02*
D03*
X039871D02*
D03*
X040409Y013775D02*
D03*
X039858D02*
D03*
X040409Y014485D02*
D03*
X039858D02*
D03*
X037972Y029291D02*
D03*
X03742D02*
D03*
X037972Y027909D02*
D03*
X03742D02*
D03*
X038148Y033658D02*
D03*
X038699D02*
D03*
X035872Y029943D02*
D03*
X036423D02*
D03*
X035872Y029232D02*
D03*
X036423D02*
D03*
X038148Y034368D02*
D03*
X038699D02*
D03*
X041679Y027135D02*
D03*
X041128D02*
D03*
X040749Y025735D02*
D03*
X040198D02*
D03*
X041688Y029105D02*
D03*
X042239D02*
D03*
X041688Y028385D02*
D03*
X042239D02*
D03*
X042625Y035706D02*
D03*
X043176D02*
D03*
X042625Y034995D02*
D03*
X043176D02*
D03*
X042625Y034285D02*
D03*
X043176D02*
D03*
X040422Y027885D02*
D03*
X039871D02*
D03*
X040409Y028612D02*
D03*
X039858D02*
D03*
X040409Y029323D02*
D03*
X039858D02*
D03*
X025484Y014454D02*
D03*
X024933D02*
D03*
X025484Y013072D02*
D03*
X024933D02*
D03*
X02566Y01882D02*
D03*
X026211D02*
D03*
X023385Y015105D02*
D03*
X023936D02*
D03*
X023385Y014395D02*
D03*
X023936D02*
D03*
X02566Y019531D02*
D03*
X026211D02*
D03*
X029191Y012298D02*
D03*
X02864D02*
D03*
X028261Y010897D02*
D03*
X02771D02*
D03*
X0292Y014267D02*
D03*
X029751D02*
D03*
X0292Y013547D02*
D03*
X029751D02*
D03*
X030137Y020868D02*
D03*
X030689D02*
D03*
X030137Y020158D02*
D03*
X030689D02*
D03*
X030137Y019447D02*
D03*
X030689D02*
D03*
X027934Y013047D02*
D03*
X027383D02*
D03*
X027921Y013775D02*
D03*
X02737D02*
D03*
X027921Y014485D02*
D03*
X02737D02*
D03*
X025484Y029291D02*
D03*
X024933D02*
D03*
X025484Y027909D02*
D03*
X024933D02*
D03*
X02566Y033658D02*
D03*
X026211D02*
D03*
X023385Y029943D02*
D03*
X023936D02*
D03*
X023385Y029232D02*
D03*
X023936D02*
D03*
X02566Y034368D02*
D03*
X026211D02*
D03*
X029191Y027135D02*
D03*
X02864D02*
D03*
X028261Y025735D02*
D03*
X02771D02*
D03*
X0292Y029105D02*
D03*
X029751D02*
D03*
X0292Y028385D02*
D03*
X029751D02*
D03*
X030137Y035706D02*
D03*
X030689D02*
D03*
X030137Y034995D02*
D03*
X030689D02*
D03*
X030137Y034285D02*
D03*
X030689D02*
D03*
X027934Y027885D02*
D03*
X027383D02*
D03*
X027921Y028612D02*
D03*
X02737D02*
D03*
X027921Y029323D02*
D03*
X02737D02*
D03*
X012997Y014454D02*
D03*
X012446D02*
D03*
X012997Y013072D02*
D03*
X012446D02*
D03*
X013173Y01882D02*
D03*
X013724D02*
D03*
X010897Y015105D02*
D03*
X011448D02*
D03*
X010897Y014395D02*
D03*
X011448D02*
D03*
X013173Y019531D02*
D03*
X013724D02*
D03*
X016704Y012298D02*
D03*
X016153D02*
D03*
X015774Y010897D02*
D03*
X015223D02*
D03*
X016713Y014267D02*
D03*
X017264D02*
D03*
X016713Y013547D02*
D03*
X017264D02*
D03*
X01765Y020868D02*
D03*
X018201D02*
D03*
X01765Y020158D02*
D03*
X018201D02*
D03*
X01765Y019447D02*
D03*
X018201D02*
D03*
X015447Y013047D02*
D03*
X014896D02*
D03*
X015434Y013775D02*
D03*
X014883D02*
D03*
X015434Y014485D02*
D03*
X014883D02*
D03*
X012997Y029291D02*
D03*
X012446D02*
D03*
X012997Y027909D02*
D03*
X012446D02*
D03*
X013173Y033658D02*
D03*
X013724D02*
D03*
X010897Y029943D02*
D03*
X011448D02*
D03*
X010897Y029232D02*
D03*
X011448D02*
D03*
X013173Y034368D02*
D03*
X013724D02*
D03*
X016704Y027135D02*
D03*
X016153D02*
D03*
X015774Y025735D02*
D03*
X015223D02*
D03*
X016713Y029105D02*
D03*
X017264D02*
D03*
X016713Y028385D02*
D03*
X017264D02*
D03*
X01765Y035706D02*
D03*
X018201D02*
D03*
X01765Y034995D02*
D03*
X018201D02*
D03*
X01765Y034285D02*
D03*
X018201D02*
D03*
X015447Y027885D02*
D03*
X014896D02*
D03*
X015434Y028612D02*
D03*
X014883D02*
D03*
X015434Y029323D02*
D03*
X014883D02*
D03*
D12*
X037093Y010367D02*
D03*
Y025205D02*
D03*
X024606Y010367D02*
D03*
Y025205D02*
D03*
X012118Y010367D02*
D03*
Y025205D02*
D03*
D13*
X046173Y012727D02*
D03*
X043614D02*
D03*
X046173Y027565D02*
D03*
X043614D02*
D03*
X033685Y012727D02*
D03*
X031126D02*
D03*
X033685Y027565D02*
D03*
X031126D02*
D03*
X021198Y012727D02*
D03*
X018639D02*
D03*
X021198Y027565D02*
D03*
X018639D02*
D03*
D14*
X042733Y012813D02*
D03*
Y012262D02*
D03*
Y027651D02*
D03*
Y027099D02*
D03*
X030246Y012813D02*
D03*
Y012262D02*
D03*
Y027651D02*
D03*
Y027099D02*
D03*
X017758Y012813D02*
D03*
Y012262D02*
D03*
Y027651D02*
D03*
Y027099D02*
D03*
D15*
X04235Y011582D02*
D03*
Y010913D02*
D03*
X041484Y011582D02*
D03*
Y010913D02*
D03*
X04235Y026419D02*
D03*
Y02575D02*
D03*
X041484Y026419D02*
D03*
Y02575D02*
D03*
X029863Y011582D02*
D03*
Y010913D02*
D03*
X028997Y011582D02*
D03*
Y010913D02*
D03*
X029863Y026419D02*
D03*
Y02575D02*
D03*
X028997Y026419D02*
D03*
Y02575D02*
D03*
X017375Y011582D02*
D03*
Y010913D02*
D03*
X016509Y011582D02*
D03*
Y010913D02*
D03*
X017375Y026419D02*
D03*
Y02575D02*
D03*
X016509Y026419D02*
D03*
Y02575D02*
D03*
D16*
X040421Y015284D02*
D03*
X040736D02*
D03*
X041051D02*
D03*
X041366D02*
D03*
X041681D02*
D03*
X041996D02*
D03*
X042311D02*
D03*
X042626D02*
D03*
Y018611D02*
D03*
X042311D02*
D03*
X041996D02*
D03*
X041681D02*
D03*
X041366D02*
D03*
X041051D02*
D03*
X040736D02*
D03*
X040421D02*
D03*
Y030121D02*
D03*
X040736D02*
D03*
X041051D02*
D03*
X041366D02*
D03*
X041681D02*
D03*
X041996D02*
D03*
X042311D02*
D03*
X042626D02*
D03*
Y033448D02*
D03*
X042311D02*
D03*
X041996D02*
D03*
X041681D02*
D03*
X041366D02*
D03*
X041051D02*
D03*
X040736D02*
D03*
X040421D02*
D03*
X027933Y015284D02*
D03*
X028248D02*
D03*
X028563D02*
D03*
X028878D02*
D03*
X029193D02*
D03*
X029508D02*
D03*
X029823D02*
D03*
X030138D02*
D03*
Y018611D02*
D03*
X029823D02*
D03*
X029508D02*
D03*
X029193D02*
D03*
X028878D02*
D03*
X028563D02*
D03*
X028248D02*
D03*
X027933D02*
D03*
Y030121D02*
D03*
X028248D02*
D03*
X028563D02*
D03*
X028878D02*
D03*
X029193D02*
D03*
X029508D02*
D03*
X029823D02*
D03*
X030138D02*
D03*
Y033448D02*
D03*
X029823D02*
D03*
X029508D02*
D03*
X029193D02*
D03*
X028878D02*
D03*
X028563D02*
D03*
X028248D02*
D03*
X027933D02*
D03*
X015446Y015284D02*
D03*
X015761D02*
D03*
X016076D02*
D03*
X016391D02*
D03*
X016706D02*
D03*
X017021D02*
D03*
X017336D02*
D03*
X017651D02*
D03*
Y018611D02*
D03*
X017336D02*
D03*
X017021D02*
D03*
X016706D02*
D03*
X016391D02*
D03*
X016076D02*
D03*
X015761D02*
D03*
X015446D02*
D03*
Y030121D02*
D03*
X015761D02*
D03*
X016076D02*
D03*
X016391D02*
D03*
X016706D02*
D03*
X017021D02*
D03*
X017336D02*
D03*
X017651D02*
D03*
Y033448D02*
D03*
X017336D02*
D03*
X017021D02*
D03*
X016706D02*
D03*
X016391D02*
D03*
X016076D02*
D03*
X015761D02*
D03*
X015446D02*
D03*
D17*
X043187Y015845D02*
D03*
Y01616D02*
D03*
Y016475D02*
D03*
Y01679D02*
D03*
Y017105D02*
D03*
Y01742D02*
D03*
Y017735D02*
D03*
Y01805D02*
D03*
X03986D02*
D03*
Y017735D02*
D03*
Y01742D02*
D03*
Y017105D02*
D03*
Y01679D02*
D03*
Y016475D02*
D03*
Y01616D02*
D03*
Y015845D02*
D03*
X043187Y030682D02*
D03*
Y030997D02*
D03*
Y031312D02*
D03*
Y031627D02*
D03*
Y031942D02*
D03*
Y032257D02*
D03*
Y032572D02*
D03*
Y032887D02*
D03*
X03986D02*
D03*
Y032572D02*
D03*
Y032257D02*
D03*
Y031942D02*
D03*
Y031627D02*
D03*
Y031312D02*
D03*
Y030997D02*
D03*
Y030682D02*
D03*
X030699Y015845D02*
D03*
Y01616D02*
D03*
Y016475D02*
D03*
Y01679D02*
D03*
Y017105D02*
D03*
Y01742D02*
D03*
Y017735D02*
D03*
Y01805D02*
D03*
X027372D02*
D03*
Y017735D02*
D03*
Y01742D02*
D03*
Y017105D02*
D03*
Y01679D02*
D03*
Y016475D02*
D03*
Y01616D02*
D03*
Y015845D02*
D03*
X030699Y030682D02*
D03*
Y030997D02*
D03*
Y031312D02*
D03*
Y031627D02*
D03*
Y031942D02*
D03*
Y032257D02*
D03*
Y032572D02*
D03*
Y032887D02*
D03*
X027372D02*
D03*
Y032572D02*
D03*
Y032257D02*
D03*
Y031942D02*
D03*
Y031627D02*
D03*
Y031312D02*
D03*
Y030997D02*
D03*
Y030682D02*
D03*
X018212Y015845D02*
D03*
Y01616D02*
D03*
Y016475D02*
D03*
Y01679D02*
D03*
Y017105D02*
D03*
Y01742D02*
D03*
Y017735D02*
D03*
Y01805D02*
D03*
X014885D02*
D03*
Y017735D02*
D03*
Y01742D02*
D03*
Y017105D02*
D03*
Y01679D02*
D03*
Y016475D02*
D03*
Y01616D02*
D03*
Y015845D02*
D03*
X018212Y030682D02*
D03*
Y030997D02*
D03*
Y031312D02*
D03*
Y031627D02*
D03*
Y031942D02*
D03*
Y032257D02*
D03*
Y032572D02*
D03*
Y032887D02*
D03*
X014885D02*
D03*
Y032572D02*
D03*
Y032257D02*
D03*
Y031942D02*
D03*
Y031627D02*
D03*
Y031312D02*
D03*
Y030997D02*
D03*
Y030682D02*
D03*
D18*
X036181Y016947D02*
D03*
Y031785D02*
D03*
X023694Y016947D02*
D03*
Y031785D02*
D03*
X011207Y016947D02*
D03*
Y031785D02*
D03*
D19*
X038465Y017853D02*
D03*
Y016947D02*
D03*
Y016042D02*
D03*
Y03269D02*
D03*
Y031785D02*
D03*
Y030879D02*
D03*
X025977Y017853D02*
D03*
Y016947D02*
D03*
Y016042D02*
D03*
Y03269D02*
D03*
Y031785D02*
D03*
Y030879D02*
D03*
X01349Y017853D02*
D03*
Y016947D02*
D03*
Y016042D02*
D03*
Y03269D02*
D03*
Y031785D02*
D03*
Y030879D02*
D03*
M02*
