G04*
G04 #@! TF.GenerationSoftware,Altium Limited,Altium Designer,22.7.1 (60)*
G04*
G04 Layer_Color=16711935*
%FSTAX24Y24*%
%MOIN*%
G70*
G04*
G04 #@! TF.SameCoordinates,6CD0EBB0-E617-4DF7-9ACC-651BA77C9F88*
G04*
G04*
G04 #@! TF.FilePolarity,Negative*
G04*
G01*
G75*
%ADD42R,0.0454X0.0395*%
%ADD48C,0.0592*%
%ADD49R,0.0592X0.0592*%
%ADD50R,0.0592X0.0592*%
%ADD51C,0.1460*%
%ADD52C,0.0671*%
%ADD53R,0.0671X0.0671*%
%ADD54C,0.0395*%
D42*
X044989Y021659D02*
D03*
Y021108D02*
D03*
X044201Y021659D02*
D03*
Y021108D02*
D03*
X044989Y036497D02*
D03*
Y035946D02*
D03*
X044201Y036497D02*
D03*
Y035946D02*
D03*
X032501Y021659D02*
D03*
Y021108D02*
D03*
X031714Y021659D02*
D03*
Y021108D02*
D03*
X032501Y036497D02*
D03*
Y035946D02*
D03*
X031714Y036497D02*
D03*
Y035946D02*
D03*
X020014Y021659D02*
D03*
Y021108D02*
D03*
X019226Y021659D02*
D03*
Y021108D02*
D03*
X020014Y036497D02*
D03*
Y035946D02*
D03*
X019226Y036497D02*
D03*
Y035946D02*
D03*
D48*
X044989Y022297D02*
D03*
X044201D02*
D03*
X043414D02*
D03*
X044873Y017772D02*
D03*
Y016197D02*
D03*
Y01541D02*
D03*
Y016985D02*
D03*
Y01856D02*
D03*
Y019347D02*
D03*
Y020134D02*
D03*
X036744Y019531D02*
D03*
X044989Y037135D02*
D03*
X044201D02*
D03*
X043414D02*
D03*
X044873Y03261D02*
D03*
Y031035D02*
D03*
Y030247D02*
D03*
Y031822D02*
D03*
Y033397D02*
D03*
Y034184D02*
D03*
Y034972D02*
D03*
X036744Y034368D02*
D03*
X032501Y022297D02*
D03*
X031714D02*
D03*
X030926D02*
D03*
X032386Y017772D02*
D03*
Y016197D02*
D03*
Y01541D02*
D03*
Y016985D02*
D03*
Y01856D02*
D03*
Y019347D02*
D03*
Y020134D02*
D03*
X024256Y019531D02*
D03*
X032501Y037135D02*
D03*
X031714D02*
D03*
X030926D02*
D03*
X032386Y03261D02*
D03*
Y031035D02*
D03*
Y030247D02*
D03*
Y031822D02*
D03*
Y033397D02*
D03*
Y034184D02*
D03*
Y034972D02*
D03*
X024256Y034368D02*
D03*
X020014Y022297D02*
D03*
X019226D02*
D03*
X018439D02*
D03*
X019898Y017772D02*
D03*
Y016197D02*
D03*
Y01541D02*
D03*
Y016985D02*
D03*
Y01856D02*
D03*
Y019347D02*
D03*
Y020134D02*
D03*
X011769Y019531D02*
D03*
X020014Y037135D02*
D03*
X019226D02*
D03*
X018439D02*
D03*
X019898Y03261D02*
D03*
Y031035D02*
D03*
Y030247D02*
D03*
Y031822D02*
D03*
Y033397D02*
D03*
Y034184D02*
D03*
Y034972D02*
D03*
X011769Y034368D02*
D03*
D49*
X045776Y022297D02*
D03*
Y037135D02*
D03*
X033289Y022297D02*
D03*
Y037135D02*
D03*
X020801Y022297D02*
D03*
Y037135D02*
D03*
D50*
X044873Y014623D02*
D03*
X036744Y020318D02*
D03*
X044873Y02946D02*
D03*
X036744Y035155D02*
D03*
X032386Y014623D02*
D03*
X024256Y020318D02*
D03*
X032386Y02946D02*
D03*
X024256Y035155D02*
D03*
X019898Y014623D02*
D03*
X011769Y020318D02*
D03*
X019898Y02946D02*
D03*
X011769Y035155D02*
D03*
D51*
X045783Y011037D02*
D03*
X036073Y023147D02*
D03*
X045783Y025875D02*
D03*
X036073Y037985D02*
D03*
X033296Y011037D02*
D03*
X023586Y023147D02*
D03*
X033296Y025875D02*
D03*
X023586Y037985D02*
D03*
X020808Y011037D02*
D03*
X011098Y023147D02*
D03*
X020808Y025875D02*
D03*
X011098Y037985D02*
D03*
D52*
X039573Y022147D02*
D03*
X040573D02*
D03*
X041573D02*
D03*
X039573Y036985D02*
D03*
X040573D02*
D03*
X041573D02*
D03*
X027086Y022147D02*
D03*
X028086D02*
D03*
X029086D02*
D03*
X027086Y036985D02*
D03*
X028086D02*
D03*
X029086D02*
D03*
X014598Y022147D02*
D03*
X015598D02*
D03*
X016598D02*
D03*
X014598Y036985D02*
D03*
X015598D02*
D03*
X016598D02*
D03*
D53*
X038573Y022147D02*
D03*
Y036985D02*
D03*
X026086Y022147D02*
D03*
Y036985D02*
D03*
X013598Y022147D02*
D03*
Y036985D02*
D03*
D54*
X038573Y014447D02*
D03*
X041688Y013126D02*
D03*
X042623Y021297D02*
D03*
X038573Y029285D02*
D03*
X041688Y027963D02*
D03*
X042623Y036135D02*
D03*
X026086Y014447D02*
D03*
X0292Y013126D02*
D03*
X030136Y021297D02*
D03*
X026086Y029285D02*
D03*
X0292Y027963D02*
D03*
X030136Y036135D02*
D03*
X013598Y014447D02*
D03*
X016713Y013126D02*
D03*
X017648Y021297D02*
D03*
X013598Y029285D02*
D03*
X016713Y027963D02*
D03*
X017648Y036135D02*
D03*
M02*
