G04*
G04 #@! TF.GenerationSoftware,Altium Limited,Altium Designer,22.7.1 (60)*
G04*
G04 Layer_Color=16711935*
%FSTAX24Y24*%
%MOIN*%
G70*
G04*
G04 #@! TF.SameCoordinates,6CD0EBB0-E617-4DF7-9ACC-651BA77C9F88*
G04*
G04*
G04 #@! TF.FilePolarity,Positive*
G04*
G01*
G75*
%ADD33C,0.0060*%
%ADD57C,0.0100*%
D33*
X01Y00999D02*
Y03908D01*
X04689D01*
Y00999D02*
Y03908D01*
X01Y00999D02*
X04689D01*
D57*
X035073Y010097D02*
Y024147D01*
X046773Y010097D02*
X035073D01*
X046773Y024147D02*
X035073D01*
X046773Y010097D02*
Y024147D01*
X035073Y024935D02*
Y038985D01*
X046773Y024935D02*
X035073D01*
X046773Y038985D02*
X035073D01*
X046773Y024935D02*
Y038985D01*
X022586Y010097D02*
Y024147D01*
X034286Y010097D02*
X022586D01*
X034286Y024147D02*
X022586D01*
X034286Y010097D02*
Y024147D01*
X022586Y024935D02*
Y038985D01*
X034286Y024935D02*
X022586D01*
X034286Y038985D02*
X022586D01*
X034286Y024935D02*
Y038985D01*
X010098Y010097D02*
Y024147D01*
X021798Y010097D02*
X010098D01*
X021798Y024147D02*
X010098D01*
X021798Y010097D02*
Y024147D01*
X010098Y024935D02*
Y038985D01*
X021798Y024935D02*
X010098D01*
X021798Y038985D02*
X010098D01*
X021798Y024935D02*
Y038985D01*
M02*
